<svg width="250" height="85" viewBox="0 0 250 85" fill="none" xmlns="http://www.w3.org/2000/svg">
<path d="M181.803 36.772C182.289 36.7018 182.904 36.7269 183.395 36.8743C183.634 36.9455 183.314 37.3399 183.554 37.4041C184.115 37.5527 184.717 37.5855 185.294 37.5116C185.539 37.4791 185.171 37.0085 185.488 37.0023C187.662 36.9554 189.798 36.874 191.994 37.486C192.145 37.5288 192.278 38.4866 192.598 38.3024C192.622 38.0361 192.621 37.7219 192.631 37.4374C195.795 37.284 198.928 37.6188 202.101 37.6703C202.233 37.67 202.004 37.1621 202.262 37.1635C203.761 37.171 205.218 37.0314 206.751 37.5372C206.902 37.5916 206.826 38.481 207.273 38.3459C207.356 38.3207 208.028 38.2019 208.202 38.0081C208.226 37.9788 208.102 37.5596 208.32 37.5474C209.584 37.484 210.91 37.5788 212.172 37.8341C212.375 37.876 212.159 38.3204 212.302 38.3562C213.331 38.5923 214.452 38.2547 215.435 38.6582C216.093 38.9303 215.85 39.7002 216.2 40.4574C216.251 40.5637 216.657 40.581 216.679 41.0204C216.733 42.128 216.537 43.3411 216.617 44.5216C216.634 44.7759 217.179 44.5033 216.855 45.1179C216.829 45.1604 216.438 45.3636 216.341 45.5709C216.273 45.7151 216.395 46.1644 216.256 46.3489C216.118 46.5321 215.966 46.1579 215.737 46.3745C215.507 46.594 215.607 47.1025 215.148 47.1628C214.084 47.2992 212.689 47.1533 211.629 46.9529C211.297 46.8908 211.465 46.6142 211.235 46.5588C210.786 46.4508 210.368 46.5851 209.925 46.4564C209.779 46.411 209.961 45.9729 209.807 45.9369C208.963 45.7425 208.164 45.8538 207.309 45.7603C203.096 45.2987 198.954 45.1342 194.689 44.9336C193.283 44.8679 191.573 44.4698 190.121 44.6444C189.953 44.6656 190.052 45.0466 190.021 45.0821C189.515 45.5693 189.683 44.7895 189.353 44.6854C188.042 44.2764 186.584 44.2421 185.322 44.3911C184.785 44.4556 185.322 45.2227 184.782 44.7929C184.744 44.7638 184.88 44.353 184.733 44.3092C184.4 44.2108 183.766 44.2828 183.507 44.2503C183.009 44.1856 182.926 44.191 182.456 44.1863C181.811 44.1764 181.043 43.9734 180.352 44.066C180.204 44.0871 180.398 44.5063 180.162 44.5779C179.926 44.6492 179.303 44.613 179.093 44.5139C178.884 44.4143 178.973 44.0864 178.937 44.0097C178.63 43.3705 177.909 44.256 177.816 44.2785C176.123 44.6516 174.672 44.1465 173.083 44.1479C171.878 44.1501 170.589 44.3165 169.441 44.2938C168.074 44.265 166.915 44.0371 165.587 44.0763C165.447 44.0799 165.61 44.575 165.439 44.5805C163.621 44.6379 161.815 44.5839 160.005 44.2503C159.824 44.2164 160.056 43.7804 159.875 43.7205C158.764 43.3636 157.008 42.5092 156.348 44.3987C155.596 44.3249 154.682 44.2472 154.009 43.8664C153.575 43.6214 153.995 43.149 153.464 43.3494C153.343 43.3944 153.498 43.8098 153.318 43.8459C152.559 43.9974 151.729 43.8624 150.979 44.0763C150.826 44.1208 150.868 44.4931 150.825 44.56C150.461 45.1009 149.854 44.2053 149.722 44.1402C148.717 43.6561 147.983 43.8474 147.047 43.8357C146.83 43.8327 147.085 44.3299 146.876 44.345C145.792 44.4163 144.669 44.374 143.608 44.153C143.371 44.1026 143.587 43.6768 143.475 43.6309C142.977 43.4349 142.867 44.2366 142.389 44.0635C142.29 44.0283 142.345 43.6708 142.328 43.6258C142.041 43.0008 141.791 43.8807 141.716 43.9048C140.782 44.1727 140.183 43.2463 139.28 43.3776C139.173 43.3958 139.415 43.8545 139.114 43.8741C137.09 44.001 134.948 43.8734 132.946 43.5055C132.636 43.4484 132.858 43.1028 132.838 43.0602C132.52 42.3975 132.313 43.2844 132.211 43.3213C131.41 43.5629 130.662 42.8155 130.118 43.8766C126.725 43.5081 123.347 44.1038 119.983 43.1524C119.942 43.1334 120.016 42.7039 119.931 42.684C118.904 42.4377 119.101 43.1188 118.421 43.9534C118.25 44.163 117.73 43.1546 117.684 43.0807C117.517 42.8082 117.689 42.1557 117.633 42.103C117.168 41.6909 117.244 43.8481 116.617 43.851C116.598 43.8475 116.678 43.4549 116.627 43.4108C116.464 43.2867 116.301 43.4427 116.141 43.3059C115.774 42.9891 115.642 41.9399 115.082 42.5509C115.011 42.6335 115.119 43.8551 114.559 43.7973C114.335 43.7732 113.347 43.7948 113.07 43.7154C112.793 43.6361 112.982 43.2411 112.962 43.224C112.217 42.7021 112.499 42.4844 112.125 41.7115C111.753 40.9448 111.855 42.7764 111.703 42.9834C111.551 43.1879 111.003 42.757 110.869 42.6072C110.737 42.4577 110.902 42.2088 110.784 42.1235C109.992 41.5695 110.436 43.0345 110.175 43.3264C109.56 44.0168 109.08 42.6537 108.517 42.5202C108.365 42.4843 108.489 42.7957 108.353 42.8248C107.816 42.9354 107.492 42.5101 106.881 42.899C106.781 42.9625 106.285 43.7817 105.965 43.1805C105.921 43.0927 106.048 42.7547 105.819 42.6789C105.477 42.5649 104.861 42.4913 104.494 42.6047C104.223 42.6889 104.533 43.2467 104.192 43.073C104.04 42.9953 104.321 42.6694 104.035 42.5509C103.752 42.4326 103.028 42.4449 102.751 42.4562C102.475 42.4678 102.625 42.8934 102.602 42.922C102.467 43.0858 101.938 43.2911 101.891 43.2906C99.5321 43.3422 97.3565 42.6264 95.06 42.8631C94.8804 42.8818 95.0003 43.3289 94.9729 43.3366C94.3559 43.5241 94.8409 42.3324 94.4099 41.9341C94.4721 42.8415 94.2194 42.6796 93.7854 42.7787C93.5779 42.827 93.6868 43.1724 93.6702 43.2138C93.3596 43.7479 93.1424 43.058 93.0867 42.9169C92.8813 42.4003 92.6585 43.0106 92.5186 42.6661C92.3787 42.3218 92.6996 41.8101 92.2831 41.8164C92.1662 42.1415 92.4742 42.9916 92.1577 43.1293C90.9635 43.6491 88.7363 42.9838 87.7761 42.9143C86.8179 42.8452 86.5071 42.9039 85.9488 42.7864C84.9417 42.5746 85.3098 43.2042 84.6845 43.4927C84.0567 43.7811 84.3623 42.2326 84.2724 41.8983C84.1838 41.5651 84.0858 41.9074 83.9755 41.7243C83.8662 41.5412 84.1033 41.3144 83.845 41.2457C83.5864 41.1774 82.8801 41.7698 82.788 42.1184C82.5943 42.8569 82.9118 43.632 82.2275 43.3597C82.1913 43.3372 82.3155 42.9347 82.1661 42.8939C80.9699 42.5801 79.7267 42.5621 78.5319 42.2847C78.3675 42.2459 78.5124 41.7904 78.4167 41.7626C77.4219 41.4734 77.7776 42.239 77.2317 43.0884C77.3544 41.9576 77.0512 41.2651 76.295 41.2585C75.8415 41.2547 75.9182 41.7475 75.6245 42.0954C75.5363 42.2003 75.217 41.8631 75.1587 42.0954C74.9668 42.8544 75.2676 43.7031 74.4882 43.3648C74.4559 43.3441 74.5621 42.9342 74.4446 42.9092C73.681 42.7448 73.5888 43.5373 72.7632 43.6335C72.116 43.7084 70.9662 43.2263 70.2294 43.1472C70.245 41.876 69.547 42.1659 69.2646 43.0423C68.7865 43.0065 68.2703 43.0559 67.8083 42.9348C67.6504 42.8937 67.7523 42.5309 67.7341 42.4869C67.4265 41.8633 67.2181 42.7139 67.1148 42.748C65.9958 43.073 65.0833 42.426 64.0154 43.0577C63.9775 43.0817 63.9168 43.963 63.6315 43.3187C63.6183 43.2696 63.9614 42.8735 63.4626 42.8427C62.96 42.8111 62.0125 42.339 61.3153 42.748C61.1458 42.8488 60.7206 43.5603 60.3786 43.0014C60.3335 42.9249 60.3823 42.6739 60.3172 42.533C60.1042 42.084 59.9865 42.9753 59.7362 42.2182C59.4859 41.4599 58.9655 40.8914 58.2621 41.4146C58.2397 41.4298 58.0734 42.1354 57.8526 42.1261C57.4997 42.1076 56.9979 41.9604 56.6292 41.9648C56.4527 41.9673 56.5652 42.4072 56.5345 42.4153C55.3475 42.6614 54.5021 42.2679 53.2305 42.0979C52.9969 42.0667 52.3276 42.6656 51.8766 42.1926C51.381 41.6741 51.8895 39.5162 50.7505 40.03C50.2911 40.2357 49.7102 42.9722 48.8847 41.5553C47.2835 41.9066 45.8017 41.1817 44.1961 41.6833C44.1231 41.7111 43.8966 42.4652 43.7277 42.4588C43.476 42.4419 43.3366 42.0838 43.157 42.0595C42.403 41.952 41.7111 42.258 40.9841 42.2105C40.7096 42.1924 40.8051 41.8248 40.4774 41.8036C40.1484 41.7833 39.9276 42.2686 39.4818 42.0339C39.1454 41.8539 38.8074 40.8623 38.3608 40.7466C38.3438 41.7259 38.0383 41.7066 37.4932 41.9648C37.3883 42.015 37.4993 42.356 37.4497 42.3974C37.2479 42.5728 37.0603 42.2905 36.8687 42.4818C36.8224 42.5291 36.8198 42.8631 36.7817 42.9195C36.4575 43.4108 35.9239 42.6589 35.8322 42.5279C35.481 42.0312 35.3161 42.4653 35.0465 42.2694C34.7791 42.0736 35.1805 41.8278 34.8673 41.7089C34.2155 41.4629 33.377 41.517 32.715 41.5016C32.4508 41.4975 32.6299 41.9448 32.5921 41.9546C32.0464 42.0671 31.4949 41.5941 31.1922 42.4818C30.8137 40.1834 30.8618 42.706 30.0814 42.2464C30.0199 42.2091 29.9425 41.1213 30.1787 40.9616C30.4148 40.8022 30.7725 41.1414 31.1 40.8925C31.1776 40.8332 31.6168 39.8249 31.681 39.7536C32.155 39.2719 32.2239 40.8895 32.2492 40.9846C32.5341 41.9482 33.0787 40.8506 33.2217 40.7747C33.8756 40.4276 34.4304 40.6543 34.9774 40.4062C35.3353 40.2458 35.372 39.181 35.6531 39.2136C36.5863 39.3223 36.9129 40.8074 37.7926 39.5207C37.9814 39.246 37.7945 38.0809 38.4709 38.996C38.5141 39.055 39.0153 39.8911 39.3052 39.362C39.3415 39.2953 39.3395 38.9573 39.3871 38.9269C39.709 38.7427 39.9245 39.0125 40.2752 38.8834C40.626 38.754 41.0493 38.5611 41.4499 38.6761C41.6908 38.746 41.9994 39.375 42.1153 39.5309C42.4416 39.9766 42.7911 39.2472 42.9932 39.7868C43.197 40.3293 42.7991 41.1537 43.3336 41.5041C43.3534 40.6232 43.399 39.7182 43.4308 38.8322C44.602 38.8632 45.7544 39.1474 46.9294 39.1086C47.0751 39.1029 46.9268 38.6279 47.083 38.6096C47.7417 38.5344 48.3169 38.8715 48.9999 38.7375C49.5289 38.6316 50.1103 38.132 50.6635 38.0056C51.0015 39.013 51.823 38.671 52.4192 38.7631C52.6273 38.7955 52.6137 39.0644 52.7621 39.1521C53.3216 39.4763 53.06 38.5875 53.2125 38.4458C53.8717 37.8473 53.93 39.8648 54.7072 39.815C54.7533 39.8007 55.2466 38.7458 55.3189 38.671C55.7593 38.2344 55.3939 39.0445 55.6695 39.124C56.1722 39.2692 56.5229 39.5257 57.1129 39.211C57.2855 39.1163 57.6978 38.4481 58.0317 38.9653C58.0756 39.0329 58.0506 39.3876 58.0855 39.4106C58.7261 39.7574 58.7434 38.64 59.1092 38.2615C59.4752 37.8837 60.0428 38.653 60.1585 38.8757C60.4581 39.4473 59.9321 39.1258 59.9103 39.1777C59.7187 39.8489 60.1325 39.7353 60.4477 39.792C60.4936 40.8859 60.9324 40.8201 60.7728 39.8457C60.7547 39.7398 60.5127 39.8401 60.4477 39.792C60.7244 38.7181 61.2078 38.5794 61.7427 39.5821C61.9933 40.0526 61.7573 40.6018 62.5182 40.4011C62.8628 40.3098 62.7306 39.5572 63.0352 39.3518C63.7314 38.8835 64.6363 39.5854 65.3539 39.4746C65.6131 39.4337 65.3603 39.0223 65.5382 38.9807C66.0107 38.8688 66.4279 39.1776 66.9023 39.0191C66.9435 38.9998 66.8406 38.5723 66.9868 38.5661C68.1053 38.5159 69.0796 38.7937 70.2474 38.8015C70.8113 38.805 71.8201 38.5672 72.4049 38.6147C73.4181 38.6951 74.6667 39.3226 75.5324 39.1701C76.0957 39.0721 75.9715 38.6401 76.2131 38.3459C76.6792 37.7763 77.5047 38.7941 77.6182 38.9551C77.6216 38.9603 77.1363 39.0634 77.3955 39.2852C77.5462 39.7468 77.6127 38.9571 77.6182 38.9551C77.6913 39.0573 78.6617 39.1554 78.8544 39.0728C78.958 39.0276 78.9019 38.6264 78.9542 38.6044C80.2518 38.2381 81.5538 38.1341 82.8699 38.3255C82.891 38.3464 82.8586 38.7852 82.9109 38.8041C83.6726 39.0076 84.1613 38.4482 84.7894 38.1156C85.4177 37.7832 85.9172 37.8952 86.2892 38.6812C86.7632 38.5825 87.4437 38.9285 87.835 39.1393C88.2249 39.3489 88.2792 38.4631 88.3136 38.4406C89.3876 37.8768 90.0097 38.3867 91.1237 38.4662C91.6536 38.5055 92.705 38.3769 93.2787 38.2794C93.7319 38.201 94.0051 38.4104 94.4227 38.2768C94.4792 38.259 94.4233 37.8622 94.4406 37.8469C94.9061 37.3734 94.6823 38.3415 94.7784 38.5149C95.1274 39.145 95.3433 39.4818 95.9404 39.1854C96.0785 39.1145 96.4779 37.7192 96.7286 37.637C97.0549 37.5334 96.9323 38.0345 97.2738 37.9134C97.303 37.9035 97.2983 37.5952 97.5092 37.6089C98.488 37.6681 99.5557 37.8471 100.573 37.8162C100.71 37.8112 100.534 37.3244 100.734 37.312C101.676 37.2539 102.708 37.2721 103.626 37.5014C103.852 37.5593 103.711 37.9004 103.759 38.003C104.06 38.6186 104.486 37.7253 104.558 37.7061C106.238 37.2758 107.526 38.0868 109.239 37.701C109.335 37.6732 110.05 36.7213 110.37 37.5423C110.393 37.6008 110.707 38.4368 110.987 37.8622C111.002 37.8227 110.81 37.3934 111.153 37.4374C111.497 37.4811 112.052 37.1923 112.525 37.6677C112.675 37.8178 113.03 38.6595 113.477 37.9902C113.506 37.9434 114.195 36.4283 114.442 37.4732C114.482 37.6453 114.441 38.7506 114.974 38.1847C115.076 38.0748 114.892 37.8269 115.161 37.6728C115.572 37.4368 116.117 37.7316 116.622 37.2403C116.71 37.1531 117.086 36.402 117.387 36.9716C117.435 37.0608 117.346 37.4293 117.505 37.4707C118.262 37.6686 119.053 37.4228 119.821 37.678C120.094 37.7677 119.955 38.3652 120.239 38.5251C120.522 38.6848 121.093 38.8378 121.39 38.5661C121.687 38.2934 121.364 37.3431 121.807 37.2659C123.741 36.9353 125.658 37.4914 127.589 37.573C127.875 37.585 127.638 37.2468 128.06 37.2403C129.616 37.215 132.302 36.8959 133.652 37.6191C134.734 38.1983 133.373 38.6374 134.2 38.8732C134.598 38.9855 135.029 37.8844 135.126 37.8469C136.067 37.4932 136.721 37.9818 137.568 37.8315C137.742 37.8 137.571 37.353 137.719 37.3299C138.227 37.2522 138.763 37.4535 139.249 37.4169C139.465 37.3983 139.426 37.0587 139.625 37.0842C140.105 37.1434 140.53 37.286 140.997 37.6063C141.04 37.6355 140.754 38.0607 141.107 38.0772C141.682 38.1016 142.396 38.4194 143.057 38.0926C143.253 37.993 143.261 37.2124 143.682 37.7522C143.77 37.8653 143.657 38.8034 144.148 37.9928C144.23 37.8579 145.056 36.7634 145.461 37.4681C145.567 37.6538 145.842 38.4233 146.077 38.3024C146.107 38.2775 145.982 37.8628 146.175 37.8213C146.863 37.6841 147.586 37.7303 148.294 37.5986C148.483 37.5626 148.202 37.1265 148.483 37.0868C149.257 36.977 150.224 37.0889 150.981 37.225C151.26 37.276 151.068 37.6362 151.089 37.6754C151.415 38.3104 151.607 37.4537 151.716 37.4016C152.39 37.1011 152.904 37.5057 153.525 37.399C153.696 37.3706 153.576 36.9601 153.609 36.923C153.964 36.5654 153.7 37.3024 153.924 37.3836C154.552 37.6135 155.252 37.5794 155.887 37.527C156.12 37.5067 155.859 37.034 156.066 37.0202C157.305 36.9382 158.594 36.9833 159.803 37.2454C160.031 37.2957 159.889 37.6634 159.936 37.7471C160.263 38.3304 160.742 37.5351 160.852 37.4579C161.354 37.1105 161.548 37.4338 161.991 37.3734C164.155 37.0723 166.826 37.2869 168.868 37.4195C171.529 37.5901 173.594 37.9373 176.132 37.8469C176.293 37.8416 176.131 37.3561 176.27 37.3453C178.065 37.2278 179.833 37.4169 181.631 37.2762C181.777 37.2633 181.567 36.8046 181.803 36.772ZM27.6731 41.4095C28.8971 41.4931 29.64 43.3281 28.3078 43.1216C28.0665 43.0842 28.8267 42.5375 28.5202 42.3718C27.9579 42.0701 27.584 43.2225 27.0102 42.6047C26.9084 42.4895 27.6031 41.4018 27.6757 41.4069L27.6731 41.4095ZM121.475 42.7685C121.825 41.9555 120.462 41.8704 120.761 42.7249C120.777 42.7691 121.453 42.8092 121.475 42.7685ZM90.1102 41.9853C90.2677 41.4877 89.6827 41.4474 89.8057 41.9648C89.8129 41.9855 90.1013 42.0055 90.1102 41.9853ZM108.714 41.6679C108.7 41.2428 108.407 41.3624 108.501 41.755C108.507 41.7783 108.718 41.7998 108.714 41.6679ZM36.4157 40.9641C36.2429 40.6634 35.7452 41.0099 35.9602 41.3839C36.133 41.6845 36.6302 41.338 36.4157 40.9641ZM40.8817 39.6051C40.8474 39.6342 40.804 40.7939 40.8357 40.8336C41.3894 41.3788 41.4748 39.1557 40.8817 39.6051ZM214.882 40.6928C215.038 40.1949 214.453 40.1547 214.578 40.6724C214.583 40.6929 214.869 40.7123 214.882 40.6928ZM46.2128 39.4695C45.8792 38.9377 45.604 40.1175 45.747 40.3294C46.2207 41.0209 46.5471 40.0035 46.2128 39.4695ZM89.5958 40.0812C89.9582 40.5092 90.0133 38.9436 89.6214 39.3185C89.6027 39.3382 89.5784 40.0429 89.5958 40.0812Z" fill="#2B2B2B"/>
<path d="M211.789 32.572C212.226 32.4322 212.524 31.9298 212.644 32.5922C212.67 32.7391 212.677 32.9197 212.71 33.0958C212.788 33.5109 212.45 34.5674 213.307 33.5638C213.399 34.0145 213.736 33.9389 213.358 35.0124C213.52 34.798 213.681 34.5835 213.843 34.3691C213.879 34.3832 213.916 34.397 213.952 34.4111C213.83 34.6354 213.708 34.8603 213.587 35.0846C213.787 35.2832 214.627 34.5678 214.821 34.6943C215.149 34.9065 215.796 35.7727 215.934 36.2576C216.007 36.5153 216.297 36.0539 215.813 37.0723C215.891 37.0282 215.97 36.9837 216.048 36.9396C216.199 36.7436 216.349 36.547 216.5 36.3511C216.72 36.4727 216.777 36.9529 216.984 37.0741C217.361 37.293 218.272 37.0539 218.418 37.6596C218.454 37.8123 218.31 38.3186 218.405 38.3693C218.543 38.4434 219.011 37.7434 219.19 37.8327C219.495 37.9892 219.537 39.1504 219.852 39.2556C219.946 39.2868 220.147 39.0451 220.221 39.0508C220.533 39.0722 220.716 39.2108 221.193 38.9357C221.022 39.7735 220.463 40.6506 219.997 41.5946C219.645 42.3074 218.873 43.9865 218.54 44.5954C218.305 45.0231 217.914 45.5199 217.662 45.9938C217.147 46.1826 217.266 45.7033 217.418 44.9133C216.961 44.6727 216.504 44.4311 216.048 44.1906C216.159 43.9159 216.272 43.6389 216.383 43.3642C216.388 42.9747 215.927 43.5769 215.748 43.6682C214.027 44.5424 212.968 42.4059 212.102 41.6657C211.915 41.5068 211.036 41.4358 211.139 40.9433C211.166 40.8156 211.388 40.4246 211.362 40.3813C210.873 40.3996 210.382 40.4178 209.893 40.4361C209.536 39.4005 208.492 39.4454 207.711 39.0995C205.596 38.164 203.467 37.296 201.592 36.0368C201.23 35.7928 200.581 35.7944 200.328 35.3869C200.224 35.2157 200.533 34.5602 200.054 34.901C200.153 34.7328 200.251 34.5637 200.35 34.3954C200.054 34.4921 199.713 34.8038 199.494 34.7242C199.309 34.6563 198.858 34.4183 198.751 34.2663C198.694 34.1887 198.912 33.892 198.84 33.8509C198.716 33.7831 198.197 34.0602 198.03 33.9595C197.879 33.8681 197.843 33.3545 197.695 33.3357C197.166 33.2682 196.388 33.5271 196.029 33.115C195.93 32.9996 196.016 32.5001 195.971 32.4881C195.881 32.4672 195.621 32.8446 195.54 32.8647C195.129 32.9651 195.012 32.2583 194.772 32.0868C193.989 31.5308 193.015 31.1777 192.242 30.6121C191.754 30.255 190.853 29.806 190.555 29.2222C190.492 29.0961 190.778 28.6846 190.694 28.6305C190.599 28.5731 190.372 28.8286 190.312 28.8273C189.904 28.8053 189.043 28.6878 188.931 28.2138C188.91 28.1237 189.071 27.765 189.04 27.7415C189.023 27.7313 188.844 27.9378 188.777 27.9294C188.184 27.8555 187.923 27.5157 187.513 27.1601C186.727 26.4814 185.452 26.2967 184.671 25.5089C184.501 25.3372 184.766 24.585 184.734 24.5746C184.662 24.5545 184.353 24.9769 184.161 25.0123C183.524 25.1251 183.252 24.306 182.719 24.2906C182.456 24.2832 181.841 24.6909 181.572 24.7006C181.357 24.7078 181.129 24.2666 180.91 24.4743C180.777 24.6005 180.463 25.0748 180.376 25.1056C180.298 25.1307 180.408 24.8029 180.364 24.7544C180.178 24.5505 180.216 24.298 180.081 24.06C179.879 23.7065 178.746 23.5427 179.967 21.5214C179.979 21.5016 179.992 21.4802 180.004 21.4601C180.24 21.0773 180.571 20.704 180.845 20.2758C181.12 19.847 182.81 17.0292 183.015 16.937C183.299 16.8245 183.244 17.7736 183.347 17.7926C183.42 17.802 183.643 17.5932 183.743 17.5923C184.069 17.5897 184.082 17.8505 184.715 17.2854C184.58 17.7031 184.442 18.1222 184.307 18.5399C184.521 18.4377 184.4 19.0202 184.483 19.0351C184.552 19.0469 184.76 18.778 184.826 18.7996C184.901 18.8223 184.812 19.1938 184.958 19.22C185.197 19.2616 185.689 18.5288 185.863 18.5025C186.044 18.4763 185.985 18.9982 186.299 18.8256C186.368 18.7546 186.439 18.6848 186.508 18.6138C186.608 18.4176 186.708 18.2197 186.808 18.0235C186.935 17.9866 186.739 18.388 186.806 18.4378C186.884 18.4954 187.145 18.161 187.202 18.1928C187.247 18.2224 187.135 18.5542 187.206 18.572C187.309 18.5951 187.543 18.1662 187.637 18.1151C187.675 18.0958 188.159 18.0726 188.184 18.0808C188.343 18.154 188.01 18.7373 188.096 18.8614C188.342 19.1983 188.963 18.9356 189.374 18.943C189.557 18.9465 189.679 19.0671 189.759 19.2413C188.651 20.5924 188.427 22.0287 189.649 19.6057C189.601 20.0254 190.084 19.4691 190.165 19.6573C190.216 19.7821 190.086 20.1435 190.223 20.2154C190.468 20.34 191.276 19.582 190.347 21.2714C190.797 21.1479 190.676 21.8899 191.654 20.4941C191.778 20.4501 191.437 21.4209 191.444 21.5899C191.452 21.7464 191.794 22.4893 191.875 22.5682C191.957 22.6472 192.109 22.7696 192.265 22.6901C192.463 22.5883 193.439 21.127 192.552 22.9978C192.845 22.9799 192.889 23.0747 192.957 23.3954C192.97 23.4528 192.819 23.7129 192.835 23.7312C192.877 23.7565 193.065 23.6077 193.155 23.6282C193.301 23.6639 193.039 24.2569 193.534 23.4059C193.7 23.3139 193.866 23.2221 194.033 23.1301C193.963 23.3093 193.894 23.4887 193.824 23.668C193.974 23.5173 194.126 23.3679 194.276 23.2173C193.489 24.4052 194.23 23.8692 194.553 23.1097C194.558 23.457 194.561 23.8049 194.566 24.1522C193.707 25.5247 194.816 24.5214 195.24 23.7491C195.257 23.7608 195.275 23.7714 195.292 23.7831C195.227 24.2466 195.553 24.0344 195.596 24.3976C195.639 24.7607 195.539 24.8847 195.213 25.5565C195.28 25.5473 195.348 25.5382 195.415 25.529C196.707 23.9266 194.838 26.9267 196.054 25.8317C195.521 27.0083 196.189 26.6246 196.602 26.4197C196.65 26.3955 196.778 26.1827 196.851 26.1365C197.027 26.027 197.066 26.4247 197.475 25.7329C197.425 25.9745 197.378 26.2168 197.329 26.4584C197.462 26.3687 197.595 26.2781 197.729 26.1884C197.858 25.9737 197.988 25.759 198.118 25.5443C197.793 26.3466 198.144 26.1768 198.129 26.4064C198.124 26.4545 197.952 26.7517 197.959 26.8659C197.967 27.0007 198.141 26.9873 198.163 27.1268C198.392 26.8173 198.619 26.507 198.847 26.1975C199.094 26.104 198.624 26.9962 198.664 27.1151C198.671 27.1357 198.976 27.2364 199.003 27.2272C199.21 27.1524 199.624 26.3939 199.871 26.7594C199.915 26.8251 199.809 27.1091 199.857 27.1543C199.943 27.2318 200.589 26.8312 200.935 26.3105C200.65 27.0507 201.13 26.969 201.107 27.2187C201.098 27.2968 200.848 27.7245 200.879 27.8676C200.905 27.9837 201.29 27.7537 201.346 27.8625C201.402 27.9809 201.224 28.355 201.248 28.4104C201.274 28.4579 201.484 28.1947 201.538 28.2269C201.702 28.3398 201.577 28.8992 201.706 28.989C201.893 29.1173 202.58 28.3674 202.972 28.0856C202.979 28.1658 202.908 28.3735 202.949 28.4007C203.457 28.744 203.953 29.2593 204.368 29.76C204.56 29.9946 204.467 31.5154 205.475 29.4811C205.764 29.1965 205.907 30.3433 206.017 30.4304C206.127 30.5127 206.43 30.2228 206.526 30.2713C206.813 30.4241 206.858 30.7928 207.379 30.6944C207.514 30.6678 207.854 30.3159 207.905 30.3484C207.964 30.3927 207.79 30.8321 207.855 30.907C208.013 31.0803 208.451 31.1651 208.595 31.3451C208.621 31.3789 208.422 31.7364 208.403 31.8752C208.333 32.4159 208.567 32.5057 209.204 31.3663C209.062 32.1453 209.632 31.7038 209.877 31.8024C210.392 32.0151 211.094 32.7931 211.789 32.572ZM202.941 29.7205C202.882 29.8667 202.824 30.0149 202.765 30.1611C202.786 30.1687 202.807 30.1769 202.829 30.1845C202.96 29.961 203.091 29.7369 203.222 29.5133C203.129 29.5826 203.035 29.6512 202.941 29.7205ZM190.463 20.4803C190.494 20.3737 190.265 20.478 190.137 20.6747C189.64 21.4351 190.32 20.9629 190.463 20.4803Z" fill="#2B2B2B"/>
<path d="M212.307 51.7209C212.744 51.8607 213.041 52.3632 213.162 51.7007C213.188 51.5539 213.195 51.3732 213.228 51.1971C213.306 50.782 212.968 49.7255 213.824 50.7291C213.917 50.2784 214.254 50.354 213.876 49.2805C214.038 49.4949 214.199 49.7094 214.361 49.9238C214.397 49.9097 214.434 49.8959 214.47 49.8818C214.348 49.6575 214.226 49.4326 214.105 49.2083C214.305 49.0097 215.145 49.7251 215.339 49.5986C215.667 49.3864 216.314 48.5202 216.452 48.0353C216.525 47.7776 216.815 48.239 216.33 47.2206C216.408 47.2648 216.488 47.3092 216.566 47.3533C216.717 47.5493 216.867 47.7459 217.017 47.9419C217.237 47.8202 217.295 47.34 217.502 47.2188C217.879 46.9999 218.79 47.239 218.936 46.6333C218.972 46.4806 218.828 45.9743 218.923 45.9236C219.061 45.8495 219.529 46.5495 219.707 46.4602C220.013 46.3037 220.055 45.1425 220.37 45.0374C220.463 45.0061 220.665 45.2478 220.739 45.2421C221.051 45.2207 221.233 45.0821 221.711 45.3572C221.54 44.5194 220.981 43.6423 220.514 42.6983C220.163 41.9855 219.391 40.3064 219.057 39.6975C218.823 39.2699 218.432 38.773 218.18 38.2991C217.664 38.1103 217.784 38.5896 217.935 39.3796C217.479 39.6202 217.022 39.8618 216.566 40.1023C216.677 40.377 216.789 40.654 216.901 40.9287C216.905 41.3182 216.445 40.716 216.266 40.6247C214.544 39.7505 213.486 41.887 212.619 42.6272C212.432 42.7861 211.554 42.8571 211.656 43.3496C211.683 43.4773 211.906 43.8683 211.879 43.9116C211.39 43.8934 210.9 43.8751 210.411 43.8568C210.054 44.8924 209.01 44.8475 208.228 45.1934C206.114 46.1289 203.985 46.9969 202.11 48.2561C201.748 48.5001 201.099 48.4986 200.846 48.906C200.742 49.0772 201.05 49.7327 200.571 49.3919C200.67 49.5602 200.769 49.7292 200.868 49.8975C200.571 49.8008 200.231 49.4891 200.012 49.5687C199.827 49.6366 199.376 49.8746 199.269 50.0266C199.212 50.1042 199.429 50.4009 199.358 50.442C199.234 50.5098 198.714 50.2328 198.548 50.3334C198.397 50.4248 198.36 50.9384 198.213 50.9573C197.683 51.0247 196.905 50.7658 196.546 51.1779C196.448 51.2933 196.534 51.7929 196.489 51.8048C196.399 51.8257 196.139 51.4483 196.058 51.4282C195.647 51.3278 195.53 52.0346 195.29 52.2061C194.506 52.7621 193.533 53.1152 192.76 53.6808C192.271 54.0379 191.371 54.4869 191.073 55.0707C191.01 55.1968 191.296 55.6083 191.212 55.6624C191.117 55.7199 190.89 55.4643 190.83 55.4656C190.421 55.4877 189.561 55.6051 189.449 56.0791C189.428 56.1692 189.589 56.5279 189.558 56.5514C189.541 56.5616 189.362 56.3551 189.295 56.3635C188.701 56.4374 188.441 56.7772 188.031 57.1329C187.245 57.8115 185.97 57.9962 185.189 58.784C185.019 58.9557 185.284 59.7079 185.251 59.7183C185.18 59.7384 184.871 59.316 184.679 59.2807C184.042 59.1678 183.769 59.9869 183.237 60.0023C182.974 60.0097 182.359 59.602 182.089 59.5923C181.875 59.5852 181.647 60.0264 181.428 59.8186C181.295 59.6924 180.98 59.2181 180.894 59.1873C180.816 59.1623 180.926 59.49 180.882 59.5385C180.696 59.7424 180.734 59.9949 180.599 60.2329C180.397 60.5864 179.264 60.7502 180.485 62.7715C180.497 62.7913 180.509 62.8127 180.522 62.8328C180.758 63.2156 181.089 63.5889 181.363 64.0171C181.637 64.4459 183.328 67.2637 183.533 67.3559C183.816 67.4684 183.761 66.5193 183.865 66.5003C183.938 66.491 184.161 66.6997 184.261 66.7006C184.587 66.7032 184.599 66.4425 185.233 67.0075C185.097 66.5898 184.96 66.1707 184.825 65.753C185.039 65.8552 184.917 65.2727 185.001 65.2578C185.07 65.246 185.277 65.5149 185.344 65.4933C185.418 65.4706 185.33 65.0991 185.475 65.0729C185.715 65.0313 186.207 65.7641 186.381 65.7904C186.562 65.8166 186.502 65.2947 186.817 65.4673C186.886 65.5383 186.957 65.6081 187.026 65.6791C187.125 65.8753 187.226 66.0732 187.326 66.2694C187.453 66.3063 187.257 65.9049 187.323 65.8551C187.402 65.7975 187.662 66.1319 187.72 66.1001C187.765 66.0705 187.653 65.7388 187.724 65.7209C187.827 65.6978 188.061 66.1267 188.155 66.1778C188.192 66.1971 188.677 66.2203 188.702 66.2121C188.861 66.139 188.527 65.5556 188.613 65.4315C188.859 65.0946 189.48 65.3573 189.892 65.3499C190.075 65.3465 190.197 65.2258 190.277 65.0516C189.169 63.7005 188.945 62.2642 190.167 64.6872C190.119 64.2675 190.602 64.8238 190.683 64.6356C190.734 64.5108 190.604 64.1494 190.741 64.0775C190.985 63.9529 191.794 64.7109 190.865 63.0215C191.315 63.145 191.193 62.403 192.172 63.7988C192.295 63.8428 191.955 62.872 191.961 62.703C191.97 62.5465 192.312 61.8036 192.393 61.7247C192.474 61.6457 192.627 61.5233 192.783 61.6028C192.981 61.7046 193.957 63.1659 193.069 61.2951C193.362 61.313 193.407 61.2182 193.475 60.8975C193.487 60.8401 193.337 60.58 193.353 60.5617C193.395 60.5364 193.583 60.6852 193.672 60.6647C193.819 60.629 193.556 60.036 194.052 60.887C194.218 60.979 194.384 61.0708 194.55 61.1628C194.481 60.9836 194.412 60.8042 194.342 60.6249C194.492 60.7756 194.644 60.925 194.794 61.0756C194.007 59.8877 194.747 60.4237 195.071 61.1832C195.076 60.8359 195.079 60.488 195.084 60.1407C194.225 58.7682 195.334 59.7715 195.758 60.5438C195.775 60.5321 195.793 60.5215 195.809 60.5098C195.744 60.0463 196.071 60.2585 196.114 59.8953C196.157 59.5322 196.057 59.4082 195.731 58.7364C195.798 58.7456 195.865 58.7547 195.933 58.7639C197.224 60.3663 195.356 57.3662 196.572 58.4612C196.038 57.2846 196.707 57.6683 197.12 57.8732C197.168 57.8974 197.296 58.1102 197.369 58.1564C197.545 58.2659 197.584 57.8682 197.992 58.5601C197.943 58.3184 197.896 58.0761 197.847 57.8345C197.98 57.9242 198.113 58.0148 198.246 58.1046C198.376 58.3192 198.506 58.5339 198.635 58.7486C198.31 57.9463 198.662 58.1161 198.647 57.8865C198.642 57.8384 198.47 57.5412 198.477 57.427C198.485 57.2922 198.659 57.3056 198.681 57.1661C198.909 57.4756 199.137 57.7859 199.365 58.0954C199.612 58.1889 199.142 57.2967 199.182 57.1778C199.189 57.1572 199.493 57.0566 199.52 57.0657C199.728 57.1405 200.141 57.899 200.389 57.5335C200.433 57.4679 200.327 57.1838 200.375 57.1386C200.461 57.0611 201.106 57.4617 201.453 57.9824C201.167 57.2422 201.648 57.3239 201.625 57.0742C201.616 56.9961 201.366 56.5684 201.397 56.4253C201.422 56.3092 201.808 56.5393 201.864 56.4304C201.92 56.312 201.742 55.9379 201.766 55.8825C201.792 55.835 202.002 56.0982 202.056 56.066C202.22 55.9531 202.094 55.3937 202.224 55.3039C202.411 55.1756 203.098 55.9255 203.49 56.2073C203.497 56.1271 203.426 55.9194 203.467 55.8922C203.975 55.5489 204.471 55.0336 204.886 54.5329C205.078 54.2983 204.985 52.7775 205.993 54.8118C206.282 55.0964 206.425 53.9496 206.535 53.8625C206.645 53.7803 206.947 54.0701 207.043 54.0216C207.331 53.8688 207.376 53.5001 207.897 53.5985C208.032 53.6252 208.372 53.977 208.423 53.9445C208.481 53.9002 208.308 53.4608 208.373 53.3859C208.531 53.2126 208.969 53.1279 209.113 52.9478C209.138 52.914 208.939 52.5565 208.921 52.4177C208.851 51.877 209.084 51.7872 209.722 52.9266C209.58 52.1476 210.15 52.5891 210.394 52.4905C210.91 52.2778 211.612 51.4998 212.307 51.7209ZM203.459 54.5724C203.4 54.4262 203.342 54.278 203.283 54.1318C203.304 54.1242 203.325 54.116 203.346 54.1084C203.478 54.3319 203.608 54.556 203.74 54.7796C203.646 54.7103 203.553 54.6417 203.459 54.5724ZM190.981 63.8126C191.012 63.9192 190.783 63.815 190.655 63.6182C190.158 62.8578 190.837 63.33 190.981 63.8126Z" fill="#2B2B2B"/>
</svg>
