<svg width="314" height="74" viewBox="0 0 314 74" fill="none" xmlns="http://www.w3.org/2000/svg">
<path d="M4 9.00001C4 6.23858 6.23858 4.00001 9 4.00001H305.103C307.865 4.00001 310.103 6.23858 310.103 9.00001V65C310.103 67.7614 307.865 70 305.103 70H9C6.23858 70 4 67.7614 4 65V9.00001Z" fill="#41C56F"/>
<path d="M6.82328 62.2306C7.13895 60.5686 6.93202 66.1169 7.40345 62.4327C7.4353 63.2009 7.46815 63.9739 7.5 64.7421C7.42356 64.8274 7.3472 64.9137 7.27085 65C7.17282 65.0402 7.0761 65.0856 6.98111 65.1371C6.97264 65.0919 6.96565 65.0469 6.96013 65C6.91423 64.0787 6.86833 63.1565 6.82242 62.2306C6.82271 62.2306 6.82299 62.2306 6.82328 62.2306ZM4.63674 60.8219C5.13471 61.7674 5.26748 64.7715 5.72702 61.5263C5.55611 61.2683 5.38525 61.0041 5.21435 60.7461C5.3469 59.6194 5.47941 58.4858 5.61124 57.3591C5.54608 56.9539 5.48086 56.5492 5.41642 56.144C5.71341 55.628 6.01119 55.1166 6.3089 54.6006C6.26543 55.0588 6.22121 55.5231 6.17774 55.9812C6.41891 57.7925 6.48486 59.4041 6.52977 61.863C6.60004 61.6471 6.6697 61.4307 6.73997 61.2148C6.62044 62.4627 6.50062 63.7099 6.3811 64.9526C6.26377 63.8734 6.13329 62.6667 6.02394 61.6666C5.76699 62.5498 5.73074 63.8052 5.76618 65C5.79139 65.6407 6.06962 66.1829 6.30841 66.5102C6.6793 67.0057 6.85884 67.1559 6.98447 67.3139C7.1179 67.4591 7.22419 67.6062 7.6542 67.7735C7.79341 67.8215 7.87494 67.6757 8.12888 67.7576C8.37649 67.8336 8.67792 67.8898 9 67.8957C11.3216 67.9233 13.9159 68.046 11.7421 68.3738C10.7996 68.3612 9.89062 68.3707 9 68.3907C7.2137 68.5012 5.38125 66.9901 5.46033 65C5.4636 64.8567 5.46746 64.7128 5.47196 64.5682C5.00371 65.5781 4.84437 63.5668 4.63674 60.8219ZM68.4578 67.8723C67.2785 68.0997 64.8768 68.0079 63.2495 67.85C63.2477 67.85 63.2458 67.85 63.2439 67.85C62.8859 67.8153 62.0749 67.513 63.2439 67.5253C65.1497 67.5465 66.0712 68.0222 67.0716 67.6992C67.5192 67.7594 67.9892 67.8129 68.4578 67.8723ZM72.5997 67.8441C73.7687 67.9607 73.2385 68.3192 71.7747 68.2222C71.7747 68.2224 71.7747 68.2227 71.7747 68.223C71.1638 68.1824 72.3631 67.8991 70.1724 68.1867C69.725 67.9629 69.2844 67.7594 68.8423 67.5429C69.3787 67.5392 69.8679 67.5334 70.4306 67.5305C70.0519 67.8983 71.431 67.7283 72.5997 67.8441ZM13.7177 68.1713C13.9016 67.8404 13.1317 67.8425 11.8207 67.6129C13.058 67.6238 14.2956 67.6354 15.5277 67.6463C14.9224 67.8215 14.323 67.9961 13.7177 68.1713ZM5.87996 48.5028C5.87996 48.5009 5.87996 48.499 5.87996 48.4972C5.82781 48.0917 5.77546 47.6851 5.72403 47.2849C5.84211 47.0426 5.95968 46.8032 6.07777 46.5609C5.96693 45.1286 5.8561 43.6886 5.74453 42.2562C6.10524 42.4303 6.04655 45.0013 6.29864 46.4178C6.18997 48.524 5.9806 49.5389 5.6749 49.6758C5.74296 49.2862 5.81189 48.8976 5.87996 48.5028ZM309.662 48.8396C309.562 48.3605 309.462 47.8875 309.362 47.4085C309.316 48.0454 309.281 48.6773 309.228 49.3195C309.663 50.9992 309.279 51.1569 309.305 53.3576C309.388 60.1031 310.063 58.3134 309.074 64.4055C309.121 59.5143 308.657 61.394 308.299 58.4452C308.571 57.8343 309.185 60.7563 309.313 58.7763C309.025 55.3645 308.756 52.0836 308.57 48.298C308.523 48.4086 308.476 48.5186 308.429 48.6292C308.458 49.2295 308.488 49.8248 308.518 50.4251C308.392 49.7774 308.267 49.1443 308.139 48.486C308.425 49.318 308.266 47.1977 308.594 47.4814C308.741 47.6078 308.944 48.5449 309.083 49.0978C309.16 47.671 309.229 46.2076 309.303 44.765C309.42 45.5125 309.536 46.2594 309.653 47.0016C309.657 47.6121 309.659 48.2179 309.663 48.8284C309.662 48.8321 309.662 48.8359 309.662 48.8396ZM45.7004 5.96328C47.5119 5.62279 50.8038 5.56645 52.5363 5.94534C50.2561 5.95113 47.9805 5.95748 45.7004 5.96328ZM5.42283 49.8133C5.48072 49.6082 5.53798 49.4094 5.59586 49.2043C5.70305 50.1099 5.80951 51.0208 5.9167 51.9263C5.74943 52.1 5.58212 52.2777 5.41557 52.4567C5.41774 51.5775 5.42066 50.6924 5.42283 49.8133ZM43.8953 68.3909C43.2328 68.401 43.1742 68.3955 42.3491 68.3717C42.35 68.3718 42.351 68.372 42.3519 68.3721C42.0249 68.3632 39.2885 68.2655 39.5934 68.1367C40.9521 68.1345 42.4013 68.1367 43.7915 68.1367C43.8336 68.2214 43.8428 68.3055 43.8953 68.3909ZM27.9029 68.3157C27.9011 68.3154 27.8992 68.3151 27.8973 68.3149C27.4028 68.2953 26.9344 68.2555 26.4241 68.2482C28.2613 68.0455 28.5516 68.4092 30.2208 68.3063C31.8898 68.2027 32.9212 68.0021 34.3375 68.5003C33.8109 68.5749 33.2439 68.6816 32.7015 68.7686C30.3321 68.5694 29.694 68.7568 27.7935 68.9531C27.8303 68.7402 27.8661 68.5287 27.9029 68.3157ZM299.086 68.5503C298.634 68.7965 298.129 68.5549 298.076 68.552C298.077 68.5517 298.078 68.5514 298.079 68.5511C294.068 68.7792 298.601 68.4148 294.815 68.3764C295.379 68.3148 295.933 68.2498 296.491 68.1875C297.354 68.3063 298.244 68.4409 299.086 68.5503ZM168.759 68.5272C168.722 68.4555 168.678 68.3836 168.641 68.3119C170.916 68.3285 171.496 68.0462 173.386 68.3033C171.844 68.3786 170.302 68.4534 168.759 68.528C168.759 68.5278 168.759 68.5275 168.759 68.5272ZM55.3614 68.9125C52.8389 69.0495 50.9732 69.1098 48.5508 68.8925C48.5489 68.8922 48.5471 68.8919 48.5452 68.8916C48.4055 68.8782 49.081 68.7282 48.8987 68.6904C48.3989 68.7128 47.8829 68.7473 47.3778 68.7741C47.3094 68.654 47.2442 68.5338 47.1757 68.4144C48.5974 68.4484 50.0199 68.4825 51.4468 68.5165C51.2361 68.4462 51.0204 68.3766 50.8098 68.3063C52.0207 68.2701 53.2272 68.234 54.4381 68.1978C54.017 68.3948 53.5969 68.5918 53.181 68.7895C53.9074 68.8308 54.6349 68.8705 55.3614 68.9125ZM206.631 69.312C206.231 69.2338 206.972 69.1025 206.351 69.0352C205.729 68.9686 204.584 69.1146 204.852 68.8937C205.689 68.8641 206.567 68.83 207.42 68.7989C204.676 68.4006 201.939 68.761 201.897 68.2691C204.53 68.3966 206.695 68.3374 209.244 68.2012C209.138 68.5917 206.589 68.9292 208.194 69.2958C207.679 69.3008 207.137 69.3083 206.637 69.3111C206.635 69.3114 206.633 69.3117 206.631 69.312ZM0.526835 12.9625C0.543783 12.0731 0.499183 10.5285 0.500011 9.00001C0.47639 7.04261 1.29626 5.1472 2.22097 4.08097C2.47727 3.76369 3.196 3.21586 3.89235 2.90609C4.58617 2.58319 5.22144 2.47041 5.23789 2.5139C5.27913 2.80747 3.10575 4.45139 5.63888 2.94885C4.78025 3.43019 4.05753 4.0803 3.47818 4.86032C3.75608 4.85088 4.02825 4.85927 4.29038 4.88741C4.97042 4.05811 5.87378 3.39945 6.89428 3.00666C6.96857 3.05658 7.04134 3.10792 7.11273 3.16023C5.32636 3.82939 5.18263 4.34673 5.11006 4.47921C5.07131 4.66336 5.15593 4.69464 4.66431 5.45606C5.80632 4.25169 7.46904 3.64703 9 3.79084C8.11337 3.75981 7.07703 4.0486 6.39192 4.43606C6.4412 4.62104 6.84084 4.45901 7.29265 4.3314C7.74196 4.19555 8.25312 4.10854 8.406 4.1276C9.18287 4.2796 7.81595 4.1842 6.4691 5.13021C5.04676 6.02444 4.39957 8.13017 4.66373 9.00001C4.70699 9.25405 4.75749 9.43382 4.81703 9.51374C4.82425 9.34345 4.83145 9.17215 4.83863 9.00001C4.88368 7.95917 5.35162 6.94228 6.08886 6.24664C5.90998 6.53136 5.76974 6.83556 5.67445 7.14066C5.28418 7.64296 5.01774 8.28825 4.95027 9.00001C4.74939 11.5601 4.63323 14.3038 4.462 17.1269C4.4772 17.4689 4.49281 17.8116 4.50729 18.1484C4.67312 18.0483 4.83832 17.9537 5.00415 17.8537C5.02371 18.3698 5.04312 18.8922 5.06268 19.4083C4.5165 17.8868 4.52395 19.9938 4.19072 22.5372C3.99877 21.1841 4.11514 19.5149 3.75751 19.63C4.03266 24.2741 3.64381 29.7128 3.95446 34.2306C4.03124 35.352 4.49259 35.3484 4.45004 37.9852C4.39933 37.8957 4.30778 37.8804 4.24113 37.8225C4.46209 42.3828 4.59417 45.1497 4.36887 49.889C4.53468 49.6153 4.7012 49.3461 4.86701 49.0724C4.78443 48.0666 4.70053 47.0591 4.61794 46.0586C4.89176 45.3742 5.0126 46.3857 5.00971 43.3843C5.00753 40.9251 4.88663 42.389 4.80549 41.7202C4.69472 40.8147 4.91263 40.02 4.78883 39.046C4.69393 38.2929 4.468 39.1076 4.52523 37.1434C4.81791 37.9333 5.12012 38.7391 5.41642 39.5342C5.3505 40.0134 5.28356 40.489 5.21691 40.9682C5.13867 40.4837 5.06146 40.0075 4.98322 39.523C5.12375 41.229 5.2563 42.8411 5.4019 44.605C4.97882 44.031 5.13744 45.8543 5.18743 46.8443C5.26559 48.3865 4.97442 47.0653 5.02295 48.0762C5.07223 49.0873 5.39753 50.1777 5.32799 52.0049C5.13966 51.0256 4.97078 52.3578 4.79695 52.1003C4.62312 51.8423 4.58463 49.9096 4.39493 51.7664C4.53909 55.3366 5.20109 51.4625 5.30834 53.8738C5.43728 56.7698 4.35817 57.459 4.1262 56.5958C3.94364 55.9165 3.98036 53.579 3.79852 52.8945C3.47037 57.0808 4.1182 57.1171 4.24497 57.8333C4.70641 60.4346 3.47481 58.6872 3.92028 61.7676C3.68997 61.7097 3.48282 61.6628 3.26193 61.6048C3.30394 62.1363 3.35978 62.4892 3.39309 63.1314C3.84184 61.2377 3.8226 62.7877 3.8233 63.5832C3.82475 64.8365 4.04364 62.9007 4.10014 63.2324C4.25136 64.1277 4.1827 65.5434 4.3804 64.6748C4.3553 64.7811 4.33017 64.8899 4.30504 65C4.23787 65.2761 4.19604 65.5723 4.18091 65.8644C4.33311 66.5865 5.12279 67.54 5.66989 67.781C5.93616 67.9175 6.1104 67.9319 6.09022 67.8215C6.07613 67.7045 5.85008 67.4824 5.48338 66.9359C5.90086 66.9798 6.20225 67.7167 6.71646 68.14C7.22502 68.5457 7.32797 68.3307 7.81408 68.5601C8.82877 68.9383 9.08182 68.9472 8.93265 69.1302C8.79531 69.2921 8.26542 69.4144 8.0233 69.5097C8.43664 69.5724 8.7559 69.5637 9 69.5415C10.9965 69.3702 8.66539 69.2475 13.5156 69.1236C14.0475 68.8751 11.5055 68.61 13.6223 68.4665C14.0122 68.8982 15.5708 69.2083 18.6089 69.3517C18.9038 69.2525 19.1979 69.1524 19.4928 69.0531C21.1515 69.4515 20.3037 69.8659 23.3737 69.3718C21.7255 70.281 22.8588 69.6993 25.6075 70.0695C26.1657 70.1441 24.8757 70.3327 25.6552 70.4283C26.0085 70.4715 26.8661 70.3291 27.729 70.439C28.1502 70.4933 30.1197 70.8439 31.4836 70.6774C30.4831 70.2369 33.0745 69.8622 30.8522 69.4978C34.9597 69.5877 37.8343 69.3762 33.2318 69.9768C34.2745 70.1101 35.318 70.2428 36.3607 70.3754C37.0874 70.2703 37.8204 70.1661 38.5524 70.0618C38.6628 70.4238 38.5518 70.5253 41.4147 70.4617C40.1725 70.5471 38.9355 70.634 37.688 70.7201C37.646 70.7932 37.4724 70.8692 37.5141 70.9402C39.0419 70.8011 43.3439 70.7413 44.3864 70.6449C45.4291 70.5486 43.4156 70.5222 43.7157 70.4288C46.2166 69.6581 46.0182 70.2265 47.8127 70.0943C48.8659 70.016 46.3514 69.9311 46.9148 69.8977C49.0039 69.7756 49.9731 70.1852 51.8256 70.1904C51.1675 69.9579 50.5148 69.7218 49.8725 69.4872C51.8156 69.4995 53.9817 69.5015 55.7879 69.4269C56.4969 69.3978 55.9612 69.2249 56.077 69.2133C56.6514 69.1539 58.9892 69.0598 59.2367 69.0591C61.0998 69.0577 61.153 69.2972 62.9633 69.3103C62.2526 69.3306 61.5844 69.3488 60.8895 69.3684C60.5736 69.7567 60.2514 70.1449 59.9354 70.5339C61.7098 70.5621 63.4848 70.5898 65.2644 70.618C63.9639 70.4884 62.6587 70.3593 61.3582 70.2297C63.3908 69.916 65.4234 69.6016 67.456 69.2872C68.5144 69.4799 69.5686 69.6726 70.627 69.8653C73.5014 69.8144 72.9225 69.0322 74.2862 69.7174C75.1337 69.6595 75.9812 69.6016 76.8287 69.5444C76.7075 69.6422 76.5877 69.7402 76.4667 69.8379C77.4882 69.7778 78.5094 69.7181 79.531 69.6572C78.4569 69.311 77.404 68.9466 76.3404 68.6105C78.3507 68.5353 78.3893 68.829 78.6891 68.9023C79.4843 69.0964 81.0627 68.8346 81.6946 69.0142C81.9081 69.0759 79.938 69.2693 80.617 69.4923C80.7496 69.5355 83.3874 70.3553 85.0704 70.166C85.0388 70.0175 84.9087 69.8354 84.8403 69.6739C87.1038 69.5837 88.258 70.3589 87.958 70.5762C89.1638 70.424 90.9263 70.4113 91.1738 70.1737C91.79 70.1679 92.4013 70.1624 93.0175 70.1566C92.3755 70.7353 94.9452 70.6295 95.1137 70.1318C94.0552 70.1195 92.9956 70.1066 91.9371 70.0943C92.7375 69.4843 89.5211 69.1161 96.2137 69.6811C97.4934 69.9984 93.9391 69.6379 94.9818 69.8755C96.7931 70.0138 98.4935 69.8981 100.215 70.119C102.358 70.395 99.7218 70.6605 104.714 70.3091C93.7027 69.429 106.224 69.7145 111.395 69.4415C112.817 70.3108 117.184 70.5861 123.198 70.3275C122.571 70.0856 120.679 70.2102 119.589 70.1306C118.499 70.0509 119.678 69.9073 118.321 69.7943C116.963 69.6814 114.078 69.5278 112.703 69.3569C113.867 69.2199 119.615 68.8962 115.815 69.2851C118.652 69.5248 119.985 69.7712 123.501 69.8161C124.554 69.4387 124.476 69.2037 127.904 69.1928C125.877 69.7173 129.772 70.0818 128.914 70.6236C126.483 70.4974 127.842 69.9708 126.436 69.7187C126.292 69.6935 124.027 69.8255 123.501 69.8161C125.786 70.2892 126.577 70.4653 125.171 71.0282C126.787 70.9789 127.793 71.0496 127.94 70.7808C128.277 70.8974 128.616 71.0141 128.948 71.1307C129.474 71.1278 129.948 71.117 130.505 71.1192C129.737 70.7137 131.226 70.9633 132.284 70.7795C133.343 70.5955 131.923 70.2755 134.83 70.2711C133.861 70.1762 132.975 70.0948 132.037 70.005C133.912 69.9007 135.792 69.7957 137.667 69.6914C136.35 69.4437 133.497 69.0757 133.575 68.7498C134.439 68.8728 137.396 68.6566 137.72 68.6477C138.973 68.6143 138.29 68.8199 138.385 68.825C140.354 68.9249 141.976 68.8549 142.723 69.1663C144.203 69.0258 145.319 69.1059 146.888 69.098C147.751 69.0936 147.583 68.8649 148.089 68.9083C151.448 69.198 148.248 69.4937 154.728 68.9309C153.944 68.7716 153.17 68.6085 152.385 68.4477C153.117 68.3876 153.845 68.3271 154.577 68.267C155.066 68.296 155.552 68.3252 156.041 68.3542C156.031 68.6997 156.018 69.0459 156.008 69.3915C156.545 69.4103 157.084 69.4286 157.621 69.4474C156.7 69.4815 155.776 69.5155 154.854 69.5495C154.77 69.6103 154.692 69.6712 154.607 69.732C155.977 69.8261 157.341 69.9212 158.71 70.0161C158.736 69.8959 158.762 69.7748 158.789 69.6546C161.874 69.822 161.948 69.9237 164.881 69.5927C167.14 69.5963 168.98 69.0938 170.286 68.8822C170.754 68.9496 171.223 69.0178 171.697 69.0851C171.997 68.9852 172.301 68.8856 172.601 68.7857C173.196 68.9247 173.799 69.0639 174.394 69.2022C174.725 68.8865 174.897 68.788 172.575 68.6771C173.371 68.2845 177.458 68.4577 179.122 68.5896C180.385 68.6896 178.984 69.0171 179.142 69.0569C179.669 69.1923 181.75 69.0755 182.187 69.098C184.035 69.1914 185.33 69.175 186.999 69.2475C187.324 69.262 188.233 69.4695 188.31 69.4761C188.91 69.5116 190.392 69.6124 190.56 69.6153C199.252 69.7703 189.965 68.8698 198.047 68.9647C197.805 68.8459 197.582 68.728 197.346 68.6092C197.956 68.602 198.573 68.5951 199.184 68.5879C199.958 68.6871 199.021 68.8676 200.559 68.722C200.459 68.8683 200.358 69.0147 200.253 69.1603C200.922 69.0814 201.566 69.003 202.251 68.9241C203.325 69.4319 207.247 69.5472 206.968 70.1434C206.873 70.3462 204.093 70.5544 205.562 70.771C206.756 70.8136 205.948 70.5714 206.435 70.5586C209.952 70.4703 209.748 70.8098 211.186 70.7193C211.412 70.5737 211.65 70.4254 211.882 70.2784C212.424 70.3211 212.967 70.3638 213.515 70.4066C213.641 70.3088 213.773 70.2108 213.899 70.113C213.388 70.1065 212.813 70.0999 212.345 70.0934C212.998 69.7146 219 69.5444 216.711 69.8674C215.779 69.9985 214.072 69.9428 215.151 70.3903C216.757 70.3258 218.579 70.26 220.269 70.1955C220.322 70.2919 220.371 70.3884 220.424 70.4847C222.702 70.4224 220.63 70.0371 220.634 69.8307C221.155 69.8249 221.682 69.8198 222.203 69.814C222.424 69.9073 222.634 70.0051 222.865 70.0955C222.886 69.947 223.178 69.6016 224.731 69.7298C225.73 69.8133 224.157 70.1881 226.061 70.1361C225.919 69.9043 225.231 69.622 227.352 69.5474C227.563 69.7893 227.854 70.0109 228.017 70.2651C230.655 70.0327 231.855 70.4063 234.951 70.1361C236.915 69.9651 239.606 69.3582 240.875 70.2933C242.312 70.318 241.856 70.0851 242.281 70.0327C244.287 69.785 245.78 70.2284 246.153 70.2545C248.538 70.4216 249.607 70.2682 251.55 70.4775C251.444 70.3043 251.387 70.1404 251.303 69.9716C249.523 70.231 248.621 70.2188 246.125 70.163C246.962 70.1283 247.8 70.0927 248.637 70.0579C248.5 69.9174 248.364 69.7769 248.233 69.6371C240.513 70.1906 242.314 69.3161 248.786 69.1249C249.344 69.3849 249.922 69.6442 250.475 69.905C254.214 69.5109 255.973 69.853 260.201 69.9349C260.704 69.9443 262.535 69.7945 263.322 69.7871C263.309 69.7861 263.295 69.7851 263.282 69.7841C263.772 69.5385 263.109 69.4255 263.03 69.206C263.456 69.1785 263.883 69.1511 264.309 69.1236C265.262 69.2909 264.927 69.4283 266.801 69.3885C266.549 69.2219 266.299 69.0552 266.046 68.8886C268.1 68.8828 269.444 69.0638 271.356 68.9856C271.035 69.0486 270.717 69.1118 270.396 69.1749C274.556 69.3357 271.245 70.3152 274.389 69.8277C274.589 69.9131 274.784 69.9994 274.984 70.0849C273.689 70.1059 272.393 70.1262 271.103 70.1472C271.077 70.2682 271.048 70.3886 271.027 70.5095C272.412 70.4733 273.804 70.4359 275.189 70.3997C274.178 70.4809 273.161 70.5621 272.15 70.6432C273.756 70.7012 275.362 70.7592 276.968 70.8171C275.263 70.3724 277.474 70.318 277.058 69.8776C279.902 70.2442 282.135 70.7274 286.543 70.4181C287.417 70.3565 286.942 70.0487 289.422 70.4232C288.822 69.9336 291.929 69.7038 291.529 69.2381C290.666 69.2605 289.771 69.2747 288.934 69.3022C289.887 69.4637 290.045 69.9081 288.597 70.04C286.749 70.2081 284.053 69.9001 284.163 70.3933C283.426 70.3701 282.741 70.3565 282.025 70.3369C282.32 70.2146 282.608 70.0914 282.898 69.9691C280.861 70.1609 279.581 70.0985 278.601 69.7901C281.029 69.7191 283.451 69.6488 285.878 69.5786C285.52 69.5576 285.158 69.5365 284.8 69.5162C286.638 69.2011 284.742 68.9026 288.17 68.8352C288.149 68.9793 288.132 69.1236 288.111 69.2684C289.359 68.883 292.777 68.8851 291.686 68.4417C292.719 68.5779 292.929 68.6641 293.513 68.4251C296.236 68.762 297.984 69.1879 297.015 69.6965C298.026 69.6147 299.038 69.5327 300.043 69.4509C299.459 69.3118 298.874 69.1734 298.289 69.0343C300.048 69.043 301.82 69.0515 303.573 69.0595C303.742 69.4709 300.188 69.1843 301.213 69.5521C301.419 69.6259 302.365 69.4678 302.614 69.5094C305.236 69.9592 301.119 69.6342 301.893 69.9789C304.639 70.0537 303.91 70.3613 305.103 70.3689C305.62 70.3519 306.652 70.3286 307.986 69.3018C308.174 69.3186 308.378 69.319 308.565 69.3196C309.365 68.658 309.56 68.186 309.728 67.7929C309.877 67.3858 310.01 67.0143 310.19 66.195C310.264 65.8289 310.369 65.4318 310.426 65C310.531 64.2682 310.652 63.4903 310.446 62.7751C310.387 62.5771 309.811 64.4455 309.836 60.5189C309.856 57.4715 310.263 58.7399 310.407 57.0926C310.551 55.4443 309.987 51.6737 310.627 50.5626C310.542 51.426 310.496 52.5257 310.427 53.4838C310.551 53.8735 310.674 54.2528 310.798 54.6372C310.638 52.4466 310.827 50.1822 310.53 48.7077C310.984 45.7851 310.563 42.5165 310.05 43.4012C310.124 44.3632 310.347 43.3167 310.205 44.6528C310.085 44.7897 309.966 44.934 309.847 45.0709C309.861 42.796 309.858 41.2161 310.222 42.2535C310.231 41.9007 310.24 41.5512 310.249 41.1984C309.985 41.1352 309.72 41.0792 309.456 41.016C309.427 40.5947 309.397 40.1717 309.368 39.7504C309.426 39.282 309.484 38.8126 309.543 38.3389C309.96 38.9761 309.974 40.0614 310.207 36.47C310.063 36.4595 309.919 36.444 309.775 36.4335C309.958 33.4268 310.308 33.3475 310.295 29.5724C310.795 32.4686 309.908 34.0532 310.912 34.0426C310.846 34.7694 310.779 35.5019 310.713 36.2287C310.859 36.3392 311.005 36.4488 311.15 36.5542C311.074 32.6524 310.116 26.1711 310.751 23.5588C310.673 23.2429 310.606 22.9258 310.523 22.6047C310.906 20.0454 310.046 18.9402 310.541 16.3441C310.593 16.0763 311.402 16.6367 311.373 13.2573C311.268 13.3415 311.091 13.3853 310.958 13.4537C311.023 12.722 311.09 11.9941 311.156 11.2677C311.059 11.1361 310.962 10.998 310.864 10.8664C310.827 12.1145 310.788 13.359 310.751 14.607C310.717 13.5701 310.684 12.5264 310.651 11.4894C310.492 12.8423 310.49 13.4526 310.236 12.6371C310.221 11.4628 310.205 10.2869 310.19 9.11255C310.169 9.07497 310.149 9.03747 310.129 9.00001C310.084 8.91599 310.036 8.83482 309.988 8.75598C309.963 8.8381 309.937 8.91946 309.909 9.00001C309.744 9.48686 309.581 9.97668 309.412 10.4623C309.438 9.96443 309.46 9.47712 309.48 9.00001C309.582 6.79567 308.053 5.03686 306.305 4.29164C306.135 4.21875 306.352 4.19791 306.36 4.15524C306.37 4.13131 306.156 3.966 305.103 4.01553C304.964 4.02617 304.81 4.03852 304.641 4.05273C304.598 3.91878 304.525 3.81 304.478 3.68617C301.139 4.06143 300.042 3.94942 296.562 3.67848C298.815 3.93131 296.804 3.76688 296.23 3.90235C295.837 3.99568 297.372 3.98189 297.199 4.07965C297.025 4.17671 295.03 4.56867 296.736 4.61581C300.234 3.94354 301.603 4.50637 305.103 4.48179C305.721 4.47806 306.418 4.56925 307.171 4.87492C306.49 4.64038 305.774 4.57963 305.103 4.67746C305.049 4.68426 304.995 4.69105 304.941 4.69784C304.996 4.70774 305.05 4.71752 305.103 4.72721C305.383 4.78691 305.637 4.86622 305.915 4.98658C305.591 4.90005 305.321 4.8686 305.103 4.85584C303.452 4.77744 304.393 4.86817 303.33 4.97511C302.098 5.09899 299.858 5.20423 298.357 5.23828C297.885 5.24898 298.383 5.06878 297.316 5.05201C296.59 5.04042 294.604 5.30755 294.145 4.99262C293.845 4.78762 297.036 4.22313 292.624 4.22447C291.794 4.0235 293.909 4.08592 293.955 4.0617C294.339 3.82263 291.627 3.64289 290.374 3.82545C290.272 3.84119 291.262 4.02749 290.186 4.10058C287.632 4.27517 286.157 4.06153 284.503 3.77247C284.324 4.11151 282.175 4.51642 279.5 4.39109C279.363 4.48811 279.233 4.58599 279.096 4.68374C279.511 4.63239 279.926 4.58172 280.342 4.53037C280.795 4.59122 281.275 4.63552 281.717 4.70724C279.027 4.79061 278.646 5.25787 277.356 5.42882C272.941 6.01281 275.617 4.77748 276.413 4.56455C276.987 4.65075 277.542 4.74699 278.111 4.83754C278.048 4.71946 277.984 4.60047 277.926 4.48166C271.317 4.48527 276.919 3.71513 273.565 3.49563C272.701 4.0766 270.238 4.13259 267.099 3.76393C266.752 3.76682 266.403 3.76757 266.056 3.77119C265.998 3.8559 265.999 3.98538 265.904 4.04119C262.123 4.13972 261.45 3.24502 261.091 3.16026C259.501 2.78433 258.263 3.30447 257.794 3.30893C255.82 3.32704 255.246 3.09609 253.366 3.19529C251.344 3.30248 252.727 3.4797 252.112 3.63832C251.618 3.76429 250.023 3.78673 249.364 3.9173C249.626 3.81051 249.917 3.70578 250.178 3.59859C248.083 3.453 246.37 3.3111 243.991 3.27561C241.305 4.057 239.02 2.73889 239.947 3.80793C242.201 3.8811 243.461 4.00292 244.667 4.27531C243.187 4.31008 241.707 4.34394 240.228 4.3787C239.796 4.26137 239.489 4.14703 238.979 4.02752C237.873 4.27668 235.31 4.16976 234.304 4.24284C229.591 4.5855 231.049 5.0105 226.747 4.29625C229.847 4.22665 229.842 3.87975 232.917 3.92755C232.254 3.6798 230.691 3.73113 231.702 3.43411C228.727 3.50727 229.689 3.77245 228.531 4.00787C227.533 4.21083 225.522 4.22219 225.635 4.48594C225.43 4.34093 225.271 4.20054 225.066 4.05572C223.139 4.05717 221.212 4.05726 219.285 4.05871C220.106 3.90732 220.927 3.75566 221.749 3.605C221.128 3.54782 220.506 3.49086 219.886 3.43368C215.146 3.90456 206.974 3.04156 208.279 4.22447C205.994 4.26214 205.708 4.11378 204.466 3.88996C204.329 3.97976 204.196 4.05446 204.059 4.15441C202.585 4.0604 201.453 4.39756 200.152 4.30992C198.852 4.22295 198.529 3.90448 198.34 4.4398C197.497 4.28624 196.66 4.15868 195.823 4.01599C195.317 4.1376 194.813 4.25781 194.313 4.3787C193.523 4.31496 192.731 4.25148 191.942 4.18773C191.519 4.44327 188.414 4.33312 187.045 4.50473C185.745 4.22928 185.781 3.362 182.723 3.51742C182.802 3.73252 182.88 3.947 182.959 4.1621C182.259 4.11719 181.557 4.07243 180.852 4.02752C180.809 3.95732 180.773 3.88711 180.731 3.8169C181.089 3.83863 181.442 3.86024 181.8 3.88269C181.489 3.76389 181.185 3.64563 180.88 3.52682C179.811 3.70283 178.741 3.87886 177.667 4.05487C179.114 4.18813 180.563 4.32148 182.011 4.45475C180.194 4.61268 178.929 4.45515 177.349 4.63119C175.975 4.33422 176.483 4.1631 177.041 3.84083C176.53 3.86834 176.014 3.89491 175.503 3.92243C175.84 3.60011 174.976 3.40805 177.961 3.43411C177.756 3.34218 177.547 3.25452 177.347 3.15898C176.857 3.17346 176.539 3.09575 176.003 3.13121C174.538 3.22828 173.416 3.79442 173.516 3.99292C173.57 4.0969 175.014 3.89805 174.956 4.04504C174.813 4.40349 171.502 4.24256 176.278 4.60257C174.692 4.83077 174.338 4.65867 172.59 4.59274C172.727 4.71219 172.86 4.83088 172.991 4.95033C172.181 4.89529 171.369 4.84046 170.559 4.78542C171.685 4.17184 165.708 3.94139 171.089 3.40463C169.499 3.37711 167.914 3.34944 166.33 3.32047C166.656 3.25745 166.983 3.19507 167.309 3.13206C168.025 3.16538 168.737 3.19815 169.453 3.23075C168.611 3.1156 167.767 3.00113 166.925 2.88598C164.934 3.0287 164.154 3.24819 163.243 3.51913C165.559 3.71684 164.802 3.44677 166.607 3.39309C166.544 3.56468 166.628 3.7225 166.47 3.90277C165.537 3.54737 162.495 3.80593 161.789 3.82331C159.642 3.8761 161.326 3.5269 159.889 3.51955C158.452 3.51231 156.756 3.72016 155.582 3.37387C155.603 3.56796 155.697 3.76877 155.781 3.9455C153.543 4.00925 153.99 3.77996 153.758 3.75025C150.061 3.262 148.055 3.67421 143.827 3.72419C144.364 3.78431 144.907 3.83859 145.449 3.89508C142.259 4.30718 144.408 4.181 147.177 4.31718C144.581 4.27589 143.095 4.62684 141.262 4.73116C139.43 4.8353 136.287 4.65506 135.139 4.51456C137.767 4.28853 140.601 4.43759 143.518 4.37528C143.187 4.17756 142.864 4.01023 142.522 3.79298C140.748 4.20796 139.719 3.93049 139.135 3.87543C137.419 3.71396 137.473 4.07014 136.435 3.68703C136.478 3.81882 136.508 3.92963 136.55 4.05273C133.007 3.99768 129.184 3.76468 126.878 4.25139C126.667 3.93484 126.508 3.62986 126.266 3.3068C124.765 3.54508 123.48 3.30107 122.216 3.35678C120.958 3.41256 121.437 3.66838 119.958 3.76692C119.684 3.78503 119.113 3.62491 118.439 3.74299C117.759 3.8617 115.249 4.74434 114.948 3.97327C113.68 3.96964 112.479 3.94145 111.236 3.92841C112.447 3.88494 113.658 3.84285 114.864 3.79939C113.832 3.6125 112.807 3.42618 111.775 3.23929C111.643 3.40592 111.511 3.57555 111.385 3.74C108.604 3.94284 106.587 3.67042 103.78 3.73487C103.311 3.74574 104.417 4.07517 102.338 3.99121C100.258 3.90718 98.714 3.29232 95.1705 3.52981C94.9915 3.54212 93.9421 4.01303 92.673 3.68703C92.3842 3.61314 93.5997 3.50381 92.9368 3.40677C92.2733 3.30969 89.3128 3.22987 89.0811 2.99877C89.1127 3.08061 89.2974 3.1654 89.387 3.24869C88.8816 3.2878 88.3711 3.32694 87.8604 3.36533C87.813 3.22118 87.7619 3.07682 87.7145 2.9334C84.8078 3.2688 83.3056 3.81594 78.9985 3.6349C80.2096 3.84425 81.4211 4.05443 82.6269 4.26378C82.9587 4.11672 83.291 3.96866 83.6175 3.8216C85.6024 3.88027 87.5929 3.93852 89.5778 3.99719C89.9043 3.82984 90.2251 3.66298 90.5516 3.49563C91.078 3.51736 91.5994 3.53841 92.1258 3.56014C91.9942 3.68111 91.8614 3.80145 91.7245 3.92243C92.7669 3.89273 93.8107 3.8624 94.8478 3.83271C92.7363 4.5468 88.9512 3.77197 89.2242 4.3693C88.7558 4.27662 88.2867 4.1833 87.8183 4.0899C87.6129 4.37954 86.6604 4.29618 84.9813 4.25053C85.3657 4.39325 85.7902 4.53402 86.1431 4.67819C84.5106 4.47681 81.6149 4.49637 79.9246 4.41886C79.1822 4.38482 79.9237 4.17482 79.7029 4.15014C78.5707 4.02119 76.4067 4.3876 75.9538 4.35862C73.2473 4.18618 71.4884 3.49151 68.5343 3.94934C71.5833 4.06236 69.9246 4.01462 71.0093 4.26891C71.3489 4.34863 75.2879 4.51494 70.3555 4.44108C69.7772 4.43183 60.8274 3.95187 63.7694 3.58406C62.3213 3.70142 61.1874 3.83713 59.8604 3.96173C56.6165 2.99242 57.7392 3.90302 58.6818 4.40434C58.1499 4.40651 57.644 4.4116 57.0963 4.4116C58.2601 3.88493 52.331 3.85222 50.3194 4.1181C49.6454 4.20648 51.53 4.37506 49.9714 4.45475C49.2292 4.41781 48.3872 4.36999 47.603 4.32872C48.7404 4.66194 46.5082 4.79035 46.5395 5.12934C45.1125 4.82727 44.021 4.187 44.8052 3.83997C43.6259 3.98049 42.4404 4.12083 41.261 4.26207C41.8087 4.34248 42.3634 4.42219 42.9111 4.5026C39.0564 4.28961 34.1 4.77426 33.2943 4.06213C32.7835 4.0672 32.2673 4.07158 31.7565 4.07665C31.5985 4.19691 31.4459 4.3174 31.2879 4.43766C28.9767 4.33336 26.6706 4.22837 24.3594 4.12408C26.4174 4.04945 26.9072 3.87828 29.0654 4.01727C28.2337 3.87896 27.3866 3.73989 26.5707 3.60158C23.3216 3.97394 22.8784 4.21867 17.9866 4.10784C17.7654 4.10277 14.0693 3.79051 13.9429 3.76008C13.3639 3.621 14.2428 3.41895 13.985 3.34866C13.2688 3.15161 8.91695 2.65684 9.00121 2.58222C10.0649 1.66652 24.7069 1.65438 28.6669 1.60729C69.7412 1.11904 109.911 1.77226 150.727 1.6607C151.147 1.65897 150.964 1.52379 151.143 1.518C152.253 1.48405 153.344 1.69473 153.755 1.70342C154.633 1.72133 154.149 1.52669 154.791 1.52655C161.415 1.52872 167.667 1.64318 174.296 1.60986C174.728 1.60768 174.287 1.76342 175.046 1.73589C175.437 1.72082 176.662 1.48189 177.546 1.47827C180.632 1.46596 183.224 1.54256 186.478 1.53894C188.258 1.53678 190.928 1.55709 192.918 1.55346C193.797 1.55192 194.713 1.44262 195.581 1.43897C196.813 1.4339 196.562 1.65548 196.751 1.66924C197.583 1.72936 197.699 1.48616 198.488 1.49194C199.958 1.50354 200.037 1.66591 201.901 1.65215C203.233 1.64201 206.282 1.51381 207.962 1.47614C211.89 1.66447 216.841 1.5897 220.506 1.5274C222.675 1.49047 222.876 1.71782 223.761 1.71709C226.878 1.71269 229.243 1.42232 232.171 1.41291C236.056 1.40064 239.5 1.59264 243.264 1.60644C243.874 1.60861 243.734 1.40031 244.333 1.39496C246.55 1.3754 249.385 1.33749 251.36 1.36719C253.56 1.39984 254.372 1.70219 256.526 1.64062C257.157 1.62234 257.342 1.35723 258.4 1.32319C260.09 1.26967 261.944 1.50345 263.123 1.52954C264.74 1.56431 263.334 1.29423 265.514 1.33045C265.604 1.33202 265.93 1.52508 266.398 1.51587C267.762 1.48979 267.626 1.33775 269.622 1.35224C269.814 1.35424 272.46 1.5382 272.723 1.53894C274.271 1.54184 277.388 1.60624 278.305 1.56714C281.58 1.42804 279.001 1.13766 281.787 1.76793C283.014 1.61366 284.23 1.4573 285.53 1.30738C284.663 1.4472 288.185 1.64896 288.432 1.63592C290.479 1.53085 289.26 1.28562 291.856 1.32618C288.427 1.8927 295.204 1.3992 296.716 1.38471C299.587 1.35699 302.355 1.36222 305.103 1.37848C309.15 1.30694 312.769 4.92397 312.668 9.00001C312.657 10.6288 312.65 12.278 312.651 13.9644C312.653 16.413 312.772 19.6943 312.77 22.2847C312.769 22.8886 312.635 22.4323 312.632 22.9638C312.63 23.494 312.781 22.9058 312.773 23.5111C312.721 27.276 312.437 30.226 312.792 33.675C312.74 33.8429 312.7 33.8376 312.644 34.1156C312.962 36.9382 312.534 42.3739 312.475 44.4171C312.384 47.6127 312.599 48.429 312.556 50.7506C312.498 53.8206 312.078 58.4299 312.771 56.3714C312.793 58.4774 312.799 60.5049 312.734 62.632C312.727 62.8688 312.551 62.7056 312.547 62.8004C312.522 63.4005 312.679 63.596 312.687 64.0014C312.706 65.1007 312.517 63.3067 312.57 64.8741C312.572 64.9169 312.573 64.9588 312.575 65C312.498 66.057 312.952 67.1713 310.976 69.88C309.576 71.5882 307.354 72.6539 305.103 72.6381C292.513 72.6406 279.142 72.5989 266.442 72.5781C265.468 72.5767 266.109 72.7471 264.887 72.7362C260.643 72.6985 253.046 72.4118 249.386 72.4508C245.727 72.4899 246.552 72.7391 244.262 72.8434C243.82 72.8637 244.182 72.7217 243.782 72.7196C241.091 72.7065 237.883 72.485 235.703 72.4517C234.262 72.4294 234.377 72.6527 233.377 72.6687C231.887 72.6919 230.353 72.4662 229.558 72.4589C225.82 72.4271 223.249 72.6089 219.759 72.5162C219.895 72.5654 219.985 72.6109 220.101 72.6593C215.968 72.6513 211.839 72.6433 207.706 72.6354C207.901 72.6803 208.089 72.7256 208.284 72.7712C203.434 72.7466 203.988 72.2598 204.414 73.2878C204.062 73.324 203.688 73.366 203.351 73.3993C203.488 72.8697 200.554 72.4822 196.821 72.3474C196.547 72.3373 194.71 72.8536 194.91 72.2436C194.431 72.3929 194.145 72.4957 193.74 72.6268C192.95 72.4422 192.15 72.2597 191.36 72.0757C190.934 72.1032 190.501 72.1298 190.075 72.1573C190.012 72.2769 190.06 72.401 189.923 72.5183C187.943 72.5364 183.883 72.3887 182.318 72.4038C178.432 72.4422 174.476 72.7654 171.453 72.4162C169.981 72.4518 171.443 72.6864 169.253 72.6567C169.005 72.538 168.773 72.4241 168.515 72.3017C166.725 72.8324 166.351 72.5096 163.899 72.3987C162.24 72.3234 161.154 72.4531 159.574 72.4277C159.174 72.4212 159.231 72.2655 158.957 72.2705C158.04 72.2866 155.423 72.501 154.776 72.5068C148.91 72.5633 143.871 72.5392 138.284 72.482C137.684 72.4762 138.462 72.6299 137.841 72.6234C136.841 72.6132 137.429 72.377 136.85 72.3654C135.235 72.3344 135.222 72.5835 132.969 72.5965C125.55 72.6392 117.019 72.4521 109.268 72.4354C109.026 72.4354 109.04 72.5814 108.777 72.5828C107.061 72.59 105.323 72.3927 103.765 72.3949C101.18 72.3978 99.2363 72.6028 96.6824 72.6021C91.6903 72.6013 87.23 72.4964 82.0958 72.4906C77.8936 72.4855 74.2441 72.505 69.6364 72.5042C49.6062 72.5013 29.169 72.9602 9 72.7218C8.85009 72.7206 8.70191 72.7152 8.5527 72.7054C7.761 72.6346 8.10023 72.5259 7.86241 72.5033C5.6298 72.1074 5.38662 71.9042 4.89431 71.2218C2.69194 69.5852 1.58091 68.7641 1.22288 65.2049C1.22138 65.132 1.22162 65.0638 1.22318 65C1.26214 63.9719 1.64632 64.7417 1.43597 62.7469C1.23821 60.8737 1.00571 62.9409 1.24329 57.3703C1.24982 57.2229 1.50842 56.497 1.4411 55.3386C1.37445 54.1749 1.18928 55.522 1.13349 52.7205C1.00311 46.1436 1.22664 37.8187 1.15785 30.1728C1.1535 29.6936 1.01525 25.0786 0.951497 24.1676C0.827622 22.4046 0.635452 22.7729 0.588356 20.4831C0.552133 18.7137 0.769816 17.2539 0.726349 15.1738C0.721066 14.9315 0.497154 14.5257 0.526835 12.9625ZM309.227 41.204C309.008 40.7722 308.199 39.9929 308.445 37.382C308.468 37.1345 309.025 38.4705 309.113 37.0284C309.172 38.4396 309.191 39.8139 309.228 41.204C309.228 41.204 309.228 41.204 309.227 41.204ZM8.66708 5.69939C7.37159 5.76818 6.1311 6.71162 5.71152 7.9915C5.88328 7.07952 6.47206 6.19876 7.32595 5.66304C7.79528 5.58193 8.24966 5.60172 8.66708 5.69939ZM180.991 68.7011C180.989 68.7011 180.987 68.7011 180.986 68.7011C183.039 68.5967 185.094 68.4922 187.148 68.3879C186.932 68.4647 186.716 68.5418 186.5 68.6186C184.878 68.7396 183.256 68.8604 181.639 68.9813C181.424 68.8879 181.207 68.7945 180.991 68.7011ZM164.766 69.5141C163.455 69.4228 163.776 69.2689 163.054 69.1189C163.054 69.1192 163.054 69.1195 163.054 69.1198C162.864 69.0807 161.977 69.0466 161.634 69.0407C161.761 69.1371 161.924 69.2322 162.061 69.3278C159.001 69.5611 153.018 68.7321 160.764 68.3982C160.648 68.5199 160.538 68.6409 160.422 68.7626C164.271 68.7285 168.563 68.9925 164.766 69.5141ZM308.877 10.2519C308.822 9.79625 308.773 9.38355 308.73 9.00001C308.583 8.1318 308.277 7.57096 307.86 6.99774C307.428 6.44894 306.848 5.8085 305.659 5.47854C306.073 5.42864 306.513 5.45258 306.953 5.56197C307.351 5.90718 307.657 6.31829 307.864 6.755C307.865 6.75604 307.866 6.75707 307.867 6.75811C308.02 6.75462 308.177 6.76114 308.333 6.77402C308.754 7.44308 308.957 8.22717 308.92 9.00001C308.906 9.41761 308.892 9.83499 308.877 10.2519ZM38.9817 69.2261C38.0659 68.4304 38.3301 68.8929 40.946 68.7135C41.8518 68.6512 40.969 68.5119 41.5325 68.4887C44.5752 68.3621 44.8187 68.8953 44.1395 69.1727C42.4175 69.1916 40.6777 69.2087 38.9873 69.2261C38.9855 69.2261 38.9836 69.2261 38.9817 69.2261ZM4.60854 23.8898C4.60854 23.8879 4.60854 23.8861 4.60854 23.8842C4.80264 23.8052 4.85485 25.0318 5.03876 23.6485C5.03803 24.7009 5.03649 25.7533 5.03577 26.811C5.01769 26.5008 5.00045 26.184 4.98236 25.8738C4.91571 26.1476 4.84822 26.4221 4.78157 26.696C5.00468 27.0698 4.87499 27.4172 4.80037 28.5228C5.0387 28.2174 5.27721 27.9134 5.51554 27.608C5.44456 28.8926 5.37333 30.1819 5.30236 31.4665C5.24229 31.4823 5.18213 31.4984 5.12207 31.5142C5.19883 31.9985 5.27643 32.4779 5.35319 32.9622C5.28149 33.0938 5.21043 33.2206 5.13873 33.3522C5.19304 33.9365 5.24732 34.5218 5.30236 35.1061C5.12866 35.2839 5.05359 33.9961 5.09771 36.2791C4.91952 35.5788 4.74187 34.88 4.56368 34.1744C4.57817 30.7464 4.59333 27.3178 4.60854 23.8898ZM62.7809 68.9813C59.0054 69.0147 60.0688 68.8888 60.9429 68.4947C61.5535 68.6569 62.1702 68.8191 62.7809 68.9813ZM257.3 69.3321C258.395 69.0633 259.495 68.7972 260.616 68.5379C262.849 68.3879 265.083 68.8778 263.403 69.0698C261.381 69.3001 259.269 69.0423 257.3 69.3321ZM307.516 68.4537C305.439 69.3935 307.286 68.1968 307.413 67.7385C308.006 67.613 308.665 66.9458 308.938 65.6581C308.829 66.8925 307.882 68.2837 307.517 68.4544C307.516 68.4542 307.516 68.4539 307.516 68.4537ZM213.338 69.03C212.243 69.0381 211.154 69.1131 210.175 69.0219C210.471 68.7649 212.429 68.9987 211.029 68.6178C211.729 68.6112 212.43 68.6049 213.125 68.5977C212.683 68.7555 213.277 68.8735 213.335 69.0292C213.336 69.0295 213.337 69.0297 213.338 69.03ZM99.3622 68.6784C101.511 68.9827 101.918 68.8525 104.082 68.6417C104.387 68.8894 101.807 69.3044 100.19 69.3957C99.9162 69.1567 99.6414 68.9175 99.3622 68.6784ZM74.3627 5.1947C74.8786 4.87893 78.6846 4.83775 80.5756 4.9311C80.3504 4.97794 80.1245 5.0254 79.8993 5.07294C78.0562 5.11351 76.2058 5.15413 74.3627 5.1947ZM309.015 65.0336C309.003 65.256 308.976 65.465 308.938 65.6581C308.971 65.4417 308.994 65.2309 309.015 65.0336ZM254.609 3.71821C255.509 3.4205 252.834 3.32048 256.082 3.4371C256.082 3.43681 256.082 3.43653 256.082 3.43624C258.231 3.51304 258.705 3.53354 260.696 3.55672C259.979 3.93917 255.941 4.07588 261.507 4.15484C261.58 4.15519 261.434 3.92761 262.323 3.95874C262.598 3.96842 263.476 4.15519 264.812 4.20952C265.244 4.22691 268.489 4.28451 264.066 4.28813C264.198 4.55473 263.96 4.82457 263.971 5.0832C262.244 5.15836 260.917 4.63633 259.091 4.64914C256.379 4.66942 254.999 5.19731 254.477 4.50473C256.758 4.33458 260.673 4.33049 261.184 4.74697C263.39 4.75204 264.024 4.41081 262.245 4.24199C254.625 4.45643 260.153 3.73549 253.481 4.00787C253.402 4.10419 253.128 4.20785 253.17 4.29838C251.133 3.95942 254.288 3.8247 254.609 3.71821ZM270.543 4.45475C269.226 4.65832 267.914 4.86352 266.603 5.06782C266.603 4.73603 267.326 4.43829 269.401 4.25139C269.779 4.31943 270.164 4.38743 270.543 4.45475ZM159.8 4.5419C159.61 4.72228 159.105 4.88758 158.736 5.05927C158.336 4.90714 148.857 4.7612 153.679 4.61197C154.38 4.59023 158.652 4.9092 159.8 4.5419ZM84.4446 68.9501C85.561 69.0711 86.6729 69.1923 87.784 69.3133C86.0736 69.39 84.3618 69.4688 82.6515 69.547C83.2508 69.3481 83.8453 69.149 84.4446 68.9501ZM275.472 69.6487C275.001 69.6419 276.567 69.3938 274.709 69.4329C276.094 69.2743 277.391 69.14 278.744 68.9907C279.15 69.1081 279.56 69.225 279.965 69.3423C280.281 69.267 280.603 69.1921 280.919 69.1168C280.73 69.2877 280.561 69.4547 280.361 69.6286C278.081 69.262 277.558 69.6776 275.472 69.6487ZM207.672 70.3173C207.262 69.9457 210.564 69.7247 207.316 69.6653C207.932 69.4212 208.923 69.2932 210.824 69.2714C211.129 69.3648 211.433 69.4575 211.738 69.5508C211.781 69.301 212.27 69.2081 213.338 69.03C213.339 69.0303 213.34 69.0306 213.341 69.0309C216.231 69.0128 216.058 69.0961 216.753 69.5068C213.694 69.275 213.602 69.6502 211.517 69.8734C210.085 70.0268 208.215 69.9573 207.672 70.3173ZM169.899 4.53763C167.736 4.85129 169.677 5.14385 165.839 4.81063C166.086 4.73094 166.335 4.65192 166.582 4.57224C167.688 4.55992 168.793 4.54849 169.899 4.53763ZM196.995 69.0437C197.242 69.6189 199.279 70.0666 199.627 69.1309C197.642 68.9403 198.611 69.4704 196.995 69.0437ZM307.206 69.6622C306.272 70.0689 305.541 70.0526 305.103 69.9832C304.071 69.8109 304.341 69.5017 305.103 69.2629C305.254 69.2083 305.418 69.1494 305.59 69.0841C305.801 69.1782 306.029 69.2557 306.263 69.3143C306.826 69.1082 307.335 68.7894 307.756 68.3922C307.65 68.8164 307.468 69.2488 307.206 69.6622ZM129.694 69.6756C132.612 69.2648 126.545 69.4471 128.583 69.1907C130.21 68.9857 132.354 69.3996 131.543 69.6589C130.98 69.6662 130.353 69.6712 129.7 69.6756C129.698 69.6756 129.696 69.6756 129.694 69.6756ZM146.576 69.5581C146.097 69.1192 146.788 69.2471 144.483 69.3261C143.825 69.3486 138.594 69.1837 140.79 69.5474C142.659 69.5474 144.634 69.5537 146.576 69.5581ZM309.574 26.6091C309.766 26.574 310.185 30.6017 310.08 31.1186C310.081 31.1186 310.081 31.1186 310.081 31.1186C309.795 32.5141 309.754 28.2655 309.362 30.1084C309.707 26.0275 308.871 24.8066 309.973 25.0909C310.021 27.4949 309.794 26.3568 309.574 26.6091ZM24.3903 4.29497C24.3884 4.29497 24.3865 4.29497 24.3847 4.29497C24.6551 4.30395 26.8838 4.58445 26.6128 4.6816C23.9327 4.5983 24.4103 4.41367 21.9152 4.71706C21.7785 4.61935 21.6613 4.52457 21.514 4.42612C22.504 4.36817 23.0527 4.25077 24.3903 4.29497ZM149.551 4.15655C150.536 4.10656 152.333 4.31369 153.455 4.30137C149.885 5.0968 145.618 4.35506 149.551 4.15655ZM4.63588 60.8135C4.63617 60.8163 4.63645 60.8191 4.63674 60.8219C4.63631 60.8211 4.63589 60.8199 4.63546 60.8191C4.6356 60.8172 4.63574 60.8154 4.63588 60.8135ZM225.86 4.63376C225.733 4.58212 225.661 4.53727 225.635 4.4979C225.635 4.4942 225.635 4.49049 225.635 4.48679C225.704 4.53514 225.777 4.58403 225.86 4.63376ZM309.517 18.2382C309.783 16.5607 310.207 22.1499 310.106 23.9572C309.984 23.8309 309.874 23.8112 309.734 23.5167C310.049 22.0579 309.472 18.5173 309.517 18.2382ZM232.291 69.5111C236.709 69.5183 230.959 70.5707 230.722 69.7311C230.731 69.7148 232.177 69.5125 232.291 69.5111ZM309.627 53.0798C309.946 54.2054 310.03 51.9433 309.975 55.5604C309.893 55.7709 309.81 55.9813 309.727 56.1918C309.694 55.1547 309.66 54.1169 309.627 53.0798ZM261.234 70.8927C266.794 70.7153 272.113 70.4021 268.491 69.5235C268.07 69.5517 267.643 69.579 267.222 69.6072C267.159 70.0359 265.606 69.8019 263.333 69.7879C263.009 69.9581 261.748 69.9975 261.512 70.1421C261.054 70.4217 262.503 70.6182 261.234 70.8927ZM26.4718 70.1951C26.5613 70.1219 26.6488 70.0484 26.7383 69.9759C27.6178 69.8933 28.4995 69.8111 29.379 69.7285C29.2369 69.869 29.0945 70.0094 28.9524 70.1498C28.1261 70.165 27.3037 70.1803 26.4774 70.1955C26.4755 70.1954 26.4737 70.1952 26.4718 70.1951ZM275.961 3.55031C275.456 4.35568 277.221 4.20735 280.802 3.80024C279.191 3.71693 277.573 3.63362 275.961 3.55031ZM171.88 70.5663C171.764 70.3375 171.65 70.1094 171.529 69.8806C169.628 70.119 169.981 70.381 170.892 70.6838C171.223 70.6447 171.548 70.6054 171.88 70.5663ZM144.497 70.6637C145.285 70.7115 144.883 70.5267 144.965 70.5304C146.961 70.6275 147.242 70.7123 149.691 70.5732C149.991 70.5246 150.286 70.4736 150.586 70.4236C149.454 69.9442 148.632 70.2055 146.237 69.9238C146.668 70.0882 147.098 70.2529 147.53 70.4181C146.198 70.3833 144.872 70.349 143.54 70.3143C143.382 70.365 143.224 70.4152 143.066 70.4659C143.539 70.5311 144.028 70.6044 144.497 70.6637ZM16.3022 69.987C15.0068 69.9682 13.7054 69.9486 12.41 69.9298C12.3626 70.0478 12.3171 70.1667 12.2697 70.2848C13.6122 70.1856 14.9597 70.0862 16.3022 69.987ZM249.364 3.9173C249.262 3.95919 249.162 4.00133 249.073 4.04419C249.081 3.99195 249.193 3.95118 249.364 3.9173ZM20.9724 3.64729C19.5034 3.56472 17.3866 3.61894 15.7753 3.60158C15.902 3.8978 19.9973 3.81592 21.4354 3.99548C21.6665 3.94233 21.5933 3.68204 20.9724 3.64729ZM301.94 70.087C301.572 70.2348 301.204 70.3818 300.84 70.5296C299.95 70.5137 299.058 70.4968 298.163 70.4809C298.137 70.6019 298.111 70.7239 298.085 70.8449C302.028 70.6877 301.119 71.0366 303.071 71.3806C302.692 70.9497 302.319 70.5187 301.94 70.087ZM3.24569 38.9393C3.32756 41.7882 3.48045 42.7987 3.84338 41.1927C3.7601 40.1872 3.67674 39.1759 3.59346 38.1704C3.47757 38.4284 3.36158 38.6866 3.24569 38.9393ZM197.481 3.64388C195.097 3.77949 195.057 3.29241 192.727 3.56441C193.975 3.65422 195.223 3.74503 196.465 3.83485C196.801 3.77134 197.145 3.70738 197.481 3.64388ZM311.797 10.4455C311.859 10.0802 311.792 9.59951 311.71 9.00001C311.552 7.61163 311.002 5.84704 309.477 3.98707C308.68 3.54287 308.113 3.42436 307.391 3.30983C307.079 2.97847 306.655 2.65759 306.262 2.40032C306.259 2.39989 306.257 2.39946 306.254 2.39903C305.763 2.32397 305.385 2.323 305.103 2.33808C303.848 2.43173 305.058 2.63012 305.008 2.80182C304.981 2.885 303.078 2.74594 303.672 2.92699C303.969 3.01665 304.499 3.06557 305.103 3.0989C306.924 3.06998 308.863 4.47863 308.638 4.70549C308.112 4.16438 307.077 3.6402 306.262 3.53339C305.448 3.41252 304.946 3.55009 305.361 3.67646C305.804 3.83274 306.675 3.90034 307.571 4.31907C308.466 4.71524 309.317 5.4956 309.639 6.28203C309.247 5.22691 309.593 5.46389 310.064 6.25168C310.54 7.03548 310.686 8.424 310.465 9.00001C310.427 9.11097 310.387 9.19535 310.344 9.24444C310.592 11.1533 310.738 10.5133 310.799 9.00001C310.831 8.25021 310.667 7.28229 310.212 6.41004C311.328 8.11017 310.041 5.44685 309.777 4.94648C310.477 5.55797 311.442 7.34497 311.414 9.00001C311.455 10.7519 311.523 12.0725 311.797 10.4455ZM238.074 71.0371C239.971 71.0142 242.933 71.2179 244.231 70.9171C244.987 70.7418 242.018 70.6061 244.066 70.3309C242.218 70.3578 241.797 70.4653 242.113 70.7065C241.691 70.7354 241.265 70.7637 240.844 70.7919C240.649 70.7449 240.45 70.6984 240.255 70.6514C240.034 70.7506 239.811 70.849 239.595 70.9483C239.148 70.9287 238.696 70.9092 238.248 70.8889C238.196 70.9388 238.106 70.9822 238.074 71.0371ZM129.03 3.65883C129.556 3.65593 130.078 3.65305 130.604 3.64943C130.546 3.59069 130.477 3.52951 130.411 3.46914C130.363 3.42143 130.315 3.37373 130.267 3.32602C130.573 3.49647 133.081 3.77976 134.137 3.59774C134.668 3.50642 133.46 3.18224 135.711 3.12565C134.079 3.14232 132.568 3.18657 130.983 3.21409C131.125 3.11774 131.262 3.02035 131.404 2.924C131.403 2.92386 131.402 2.92372 131.401 2.92357C130.875 2.90185 130.342 2.87908 129.816 2.85735C129.552 3.12468 129.293 3.39151 129.03 3.65883ZM173.423 71.0188C175.219 70.8297 175.82 70.7315 174.972 70.4258C174.97 70.4256 174.968 70.4255 174.966 70.4253C174.298 70.5608 173.629 70.6962 172.96 70.8316C173.113 70.8939 173.265 70.9565 173.423 71.0188ZM233.897 2.90819C230.079 4.06945 238.677 3.35758 237.04 2.96202C236.966 2.94391 234.255 3.03642 233.897 2.90819ZM308.028 69.6236C307.167 70.1818 306.138 70.4887 305.103 70.4946C304.993 70.4956 304.882 70.4966 304.772 70.4976C304.881 70.5622 304.992 70.6268 305.103 70.6913C305.257 70.7692 305.414 70.8411 305.577 70.9065C306.517 70.6815 307.366 70.2242 308.028 69.6236ZM2.7185 51.3426C2.39974 52.4456 2.28425 55.2768 2.63092 56.6603C2.67149 55.9336 2.71211 55.2067 2.75268 54.4799C2.79251 55.8538 2.83635 57.2122 2.87401 58.5966C3.3181 58.6703 3.06046 57.0749 3.18289 54.6736C3.20264 54.3018 3.75387 51.9249 3.3384 51.1041C3.25301 50.939 3.19494 53.4675 2.94664 51.7102C2.9271 52.4787 2.93143 53.1419 2.92058 53.8682C2.81481 53.9209 2.70892 53.973 2.60315 54.031C2.64144 53.1328 2.6802 52.2407 2.7185 51.3426ZM249.114 71.0025C251.719 71.027 252.04 70.8496 252.582 70.536C251.371 70.5715 250.16 70.6065 248.948 70.642C249.006 70.7619 249.056 70.8819 249.114 71.0025ZM10.7684 71.3832C12.1943 71.4345 11.5836 71.1792 12.1574 71.1307C14.3268 70.9482 15.8065 71.1306 17.9494 71.0162C17.8073 71.0655 17.6766 71.1115 17.5397 71.1593C17.5416 71.1593 17.5434 71.1593 17.5453 71.1593C27.6923 71.3745 22.3625 70.7956 16.291 70.8897C16.1487 70.7948 16.0122 70.6998 15.87 70.6056C13.153 70.7715 10.6472 70.9312 10.7684 71.3832ZM267.815 2.86846C267.699 2.80906 268.684 2.43155 266.836 2.60828C265.372 3.15946 267.772 2.88589 268.373 3.09788C267.873 3.15077 267.362 3.20222 266.867 3.2551C269.858 3.41086 270.294 3.2798 269.204 2.87701C269.126 2.84994 267.931 2.92768 267.815 2.86846ZM248.158 2.59675C247.747 3.40885 251.522 3.04367 251.385 2.79156C250.864 2.78151 250.459 2.91901 249.906 2.85821C249.348 2.79737 249.205 2.60767 248.158 2.59675ZM311.308 52.3473C311.312 52.2368 311.653 51.1258 311.386 51.2361C310.753 52.6105 311.16 55.3798 311.381 54.8954C311.37 53.9794 311.275 53.3686 311.309 52.3473C311.309 52.3473 311.308 52.3473 311.308 52.3473ZM2.5271 34.1632C2.50444 34.2158 2.36725 36.9877 2.49463 37.3454C2.63805 37.6402 2.79175 37.7866 2.94023 38.0077C2.80258 36.4805 2.90744 33.3894 2.5271 34.1688C2.5271 34.167 2.5271 34.1651 2.5271 34.1632Z" fill="#F5F1E8"/>
</svg>
