<svg width="55" height="49" viewBox="0 0 55 49" fill="none" xmlns="http://www.w3.org/2000/svg">
<path d="M12 13L9.5 1H0M12 13L18 42H49M12 13H20.5M12 13L14.5 25M20.5 13H33.25M20.5 13L24.5 37M24.5 37H17L14.5 25M24.5 37H33.25M45 13H53L51 25M45 13L42 37M45 13H33.25M42 37H49L51 25M42 37H33.25M33.25 13V37M51 25H14.5M27.5 45C27.5 46.3807 26.3807 47.5 25 47.5C23.6193 47.5 22.5 46.3807 22.5 45C22.5 43.6193 23.6193 42.5 25 42.5C26.3807 42.5 27.5 43.6193 27.5 45ZM43.5 45C43.5 46.3807 42.3807 47.5 41 47.5C39.6193 47.5 38.5 46.3807 38.5 45C38.5 43.6193 39.6193 42.5 41 42.5C42.3807 42.5 43.5 43.6193 43.5 45Z" stroke="#209F4B" stroke-width="2"/>
</svg>
