<svg width="49" height="42" viewBox="0 0 49 42" fill="none" xmlns="http://www.w3.org/2000/svg">
<path d="M10.6415 11.3226L8.42453 1H0M10.6415 11.3226L15.9623 36.2688H43.4528M10.6415 11.3226H18.1792M10.6415 11.3226L12.8585 21.6452M18.1792 11.3226H29.4858M18.1792 11.3226L21.7264 31.9677M21.7264 31.9677H15.0755L12.8585 21.6452M21.7264 31.9677H29.4858M39.9057 11.3226H47L45.2264 21.6452M39.9057 11.3226L37.2453 31.9677M39.9057 11.3226H29.4858M37.2453 31.9677H43.4528L45.2264 21.6452M37.2453 31.9677H29.4858M29.4858 11.3226V31.9677M45.2264 21.6452H12.8585M24.3868 38.8495C24.3868 40.0372 23.3942 41 22.1698 41C20.9454 41 19.9528 40.0372 19.9528 38.8495C19.9528 37.6618 20.9454 36.6989 22.1698 36.6989C23.3942 36.6989 24.3868 37.6618 24.3868 38.8495ZM38.5755 38.8495C38.5755 40.0372 37.5829 41 36.3585 41C35.1341 41 34.1415 40.0372 34.1415 38.8495C34.1415 37.6618 35.1341 36.6989 36.3585 36.6989C37.5829 36.6989 38.5755 37.6618 38.5755 38.8495Z" stroke="#2B2B2B" stroke-width="2"/>
</svg>
