<svg width="48" height="45" viewBox="0 0 48 45" fill="none" xmlns="http://www.w3.org/2000/svg">
<path d="M6 18H42M6 6H42M6 30H42" stroke="#2B2B2B" stroke-width="2" stroke-linecap="round"/>
<path d="M9.77 43.66V37.34C9.77 37.24 9.8 37.16 9.86 37.1C9.92667 37.0333 10.01 37 10.11 37H10.49C10.6167 37 10.7133 37.0533 10.78 37.16L12.57 40.01C12.6633 40.15 12.76 40.22 12.86 40.22C12.9733 40.22 13.07 40.15 13.15 40.01L14.93 37.16C14.9967 37.0533 15.0933 37 15.22 37H15.62C15.72 37 15.8 37.0333 15.86 37.1C15.9267 37.16 15.96 37.24 15.96 37.34V43.66C15.96 43.76 15.9267 43.8433 15.86 43.91C15.8 43.97 15.72 44 15.62 44H15.36C15.26 44 15.1767 43.97 15.11 43.91C15.05 43.8433 15.02 43.76 15.02 43.66V39.79C15.02 39.3967 14.9533 39.2 14.82 39.2C14.7 39.2 14.5567 39.3367 14.39 39.61L13.22 41.51C13.1533 41.6167 13.0567 41.67 12.93 41.67H12.79C12.6633 41.67 12.5667 41.6167 12.5 41.51L11.32 39.6C11.1467 39.3267 11.0067 39.19 10.9 39.19C10.76 39.19 10.69 39.3867 10.69 39.78V43.66C10.69 43.76 10.6567 43.8433 10.59 43.91C10.53 43.97 10.45 44 10.35 44H10.11C10.01 44 9.92667 43.97 9.86 43.91C9.8 43.8433 9.77 43.76 9.77 43.66ZM18.4946 43.66V37.34C18.4946 37.24 18.5246 37.16 18.5846 37.1C18.6513 37.0333 18.7346 37 18.8346 37H22.6846C22.7846 37 22.8646 37.0333 22.9246 37.1C22.9913 37.16 23.0246 37.24 23.0246 37.34V37.52C23.0246 37.62 22.9913 37.7033 22.9246 37.77C22.8646 37.83 22.7846 37.86 22.6846 37.86H19.7446C19.6446 37.86 19.5613 37.8933 19.4946 37.96C19.4346 38.02 19.4046 38.1 19.4046 38.2V39.65C19.4046 39.75 19.4346 39.8333 19.4946 39.9C19.5613 39.96 19.6446 39.99 19.7446 39.99H22.3646C22.4646 39.99 22.5446 40.0233 22.6046 40.09C22.6713 40.15 22.7046 40.23 22.7046 40.33V40.52C22.7046 40.62 22.6713 40.7033 22.6046 40.77C22.5446 40.83 22.4646 40.86 22.3646 40.86H19.7446C19.6446 40.86 19.5613 40.8933 19.4946 40.96C19.4346 41.02 19.4046 41.1 19.4046 41.2V42.8C19.4046 42.9 19.4346 42.9833 19.4946 43.05C19.5613 43.11 19.6446 43.14 19.7446 43.14H22.8046C22.9046 43.14 22.9846 43.1733 23.0446 43.24C23.1113 43.3 23.1446 43.38 23.1446 43.48V43.66C23.1446 43.76 23.1113 43.8433 23.0446 43.91C22.9846 43.97 22.9046 44 22.8046 44H18.8346C18.7346 44 18.6513 43.97 18.5846 43.91C18.5246 43.8433 18.4946 43.76 18.4946 43.66ZM25.3247 43.66V37.34C25.3247 37.24 25.3547 37.16 25.4147 37.1C25.4814 37.0333 25.5647 37 25.6647 37H26.0547C26.1747 37 26.268 37.05 26.3347 37.15L29.2047 41.45C29.3714 41.7033 29.508 41.83 29.6147 41.83C29.7547 41.83 29.8247 41.6433 29.8247 41.27V37.34C29.8247 37.24 29.8547 37.16 29.9147 37.1C29.9814 37.0333 30.0647 37 30.1647 37H30.4047C30.5047 37 30.5847 37.0333 30.6447 37.1C30.7114 37.16 30.7447 37.24 30.7447 37.34V43.66C30.7447 43.76 30.7114 43.8433 30.6447 43.91C30.5847 43.97 30.5047 44 30.4047 44H30.0447C29.9247 44 29.8314 43.95 29.7647 43.85L26.8547 39.45C26.6814 39.1967 26.5447 39.07 26.4447 39.07C26.3047 39.07 26.2347 39.26 26.2347 39.64V43.66C26.2347 43.76 26.2014 43.8433 26.1347 43.91C26.0747 43.97 25.9947 44 25.8947 44H25.6647C25.5647 44 25.4814 43.97 25.4147 43.91C25.3547 43.8433 25.3247 43.76 25.3247 43.66ZM35.7878 44.12C35.3411 44.12 34.9511 44.0567 34.6178 43.93C34.2911 43.7967 34.0211 43.61 33.8078 43.37C33.5945 43.13 33.4345 42.8367 33.3278 42.49C33.2278 42.1433 33.1778 41.7533 33.1778 41.32V37.34C33.1778 37.24 33.2078 37.16 33.2678 37.1C33.3345 37.0333 33.4178 37 33.5178 37H33.7678C33.8678 37 33.9478 37.0333 34.0078 37.1C34.0745 37.16 34.1078 37.24 34.1078 37.34V41.28C34.1078 41.56 34.1378 41.82 34.1978 42.06C34.2578 42.2933 34.3545 42.5 34.4878 42.68C34.6278 42.8533 34.8045 42.99 35.0178 43.09C35.2311 43.1833 35.4878 43.23 35.7878 43.23C36.0945 43.23 36.3511 43.1833 36.5578 43.09C36.7711 42.99 36.9445 42.8533 37.0778 42.68C37.2111 42.5 37.3078 42.2933 37.3678 42.06C37.4278 41.82 37.4578 41.56 37.4578 41.28V37.34C37.4578 37.24 37.4878 37.16 37.5478 37.1C37.6145 37.0333 37.6978 37 37.7978 37H38.0478C38.1478 37 38.2278 37.0333 38.2878 37.1C38.3545 37.16 38.3878 37.24 38.3878 37.34V41.32C38.3878 41.7467 38.3345 42.1333 38.2278 42.48C38.1278 42.8267 37.9711 43.1233 37.7578 43.37C37.5445 43.61 37.2745 43.7967 36.9478 43.93C36.6211 44.0567 36.2345 44.12 35.7878 44.12Z" fill="#2B2B2B"/>
</svg>
