<svg width="508" height="200" viewBox="0 0 508 200" fill="none" xmlns="http://www.w3.org/2000/svg">
<path d="M158.386 100.257C156.233 100.257 154.01 100.604 151.788 100.743C151.232 104.145 151.718 107.616 151.649 111.017C151.51 119.07 152.343 127.331 152.552 135.523C152.482 136.009 152.552 136.564 152.413 136.981C149.912 138.508 147.412 139.549 144.564 140.243C143.869 138.577 144.008 136.634 143.73 134.829C141.786 134.273 139.493 134.69 137.479 134.69C132.825 134.69 128.172 135.106 123.587 134.967C123.379 135.662 122.823 137.883 122.754 137.883C121.017 138.716 115.6 140.868 114.28 139.41C113.933 138.994 113.794 138.508 113.863 137.953C114.419 133.579 114.072 129.206 114.141 124.832C114.28 117.821 114.28 111.226 114.28 105.464C114.349 104.075 114.349 102.687 113.516 101.368C111.779 100.952 109.973 101.09 108.168 101.09C107.056 101.021 105.042 101.368 104.208 100.535C104.069 100.327 104 100.049 104 99.702C104.347 98.0359 106.362 98.7301 107.612 98.5912C109.487 98.6607 111.988 98.6607 113.585 98.5218C114.002 93.8012 113.238 89.2195 113.794 84.4989C113.933 82.7634 113.933 83.527 115.6 83.5964C118.1 84.0824 120.67 84.2906 123.032 84.9849C122.754 89.3583 121.712 93.8012 122.546 98.1053C125.393 99.0772 137.896 99.0078 141.855 98.383C142.689 97.6193 142.411 96.5086 142.411 95.5367C142.48 91.7186 141.994 87.9005 142.411 84.0824C142.55 83.7353 143.175 83.1799 143.522 83.2493C145.953 83.6659 148.315 84.0824 150.607 84.5683C151.232 84.7766 152.066 84.6377 152.343 85.332C151.649 88.7335 151.024 92.8293 151.718 97.2028C155.122 96.3004 157.136 91.0244 160.678 94.912C164.29 97.6193 165.193 100.188 162.207 100.257C161.026 100.257 159.775 100.257 158.386 100.257ZM115.877 86.2344C113.655 91.9963 122.268 86.2344 116.85 85.8179C116.503 85.8179 116.016 85.8873 115.877 86.2344ZM118.934 136.286C119.42 134.62 117.961 132.538 116.294 131.982C116.364 134.898 116.016 135.801 118.934 136.286ZM119.559 122.888C120.74 120.25 121.851 112.614 119.489 111.503C118.447 113.031 118.1 121.569 119.559 122.888ZM122.546 101.715C122.198 105.742 122.684 109.837 123.24 114.141C127.408 114.488 132.686 114.419 137.132 114.28C138.591 114.072 142.063 114.558 143.105 113.794C143.8 113.031 143.314 111.642 143.314 110.601C143.036 107.477 143.175 104.284 142.411 101.16C136.437 101.16 130.047 101.16 123.935 101.16C123.448 101.229 122.893 101.299 122.546 101.715ZM143.592 131.982C143.383 126.845 143.869 121.986 143.314 116.849C136.507 116.085 129.561 116.988 122.546 116.918C122.059 122.402 122.546 128.72 123.657 132.329H130.672C134.492 132.121 139.355 132.815 143.592 131.982ZM149.148 123.86C150.19 121.847 149.773 118.307 149.496 115.53C149.218 113.378 149.287 111.295 148.593 109.49C147.829 111.503 148.176 113.447 148.106 115.669C148.106 118.515 148.037 121.431 149.148 123.86ZM149.773 88.1088C149.912 86.6509 150.885 86.0262 148.662 86.0262C145.467 85.9567 148.315 87.484 149.773 88.1088Z" fill="#209F4B"/>
<path d="M235.292 124.604C231.716 128.996 228.702 130.739 223.724 133.248C222.953 133.179 222.812 132.412 223.233 131.854C223.934 130.46 224.705 129.205 225.336 127.741C230.314 116.517 225.266 121.188 235.432 122.443C236.133 121.258 235.643 119.864 235.783 118.539C233.75 117.981 230.314 118.469 228.211 118.26C226.598 118.26 224.004 119.027 223.373 117.424C222.882 116.239 223.794 115.332 225.126 115.263C226.318 115.193 227.299 114.984 228.702 115.054C231.296 115.193 233.048 115.123 235.853 114.914C236.694 113.311 235.362 111.289 236.764 109.895C236.764 109.965 242.163 110.941 243.845 111.568V114.914C245.318 115.332 246.58 115.332 247.631 114.078C248.543 113.171 250.015 111.429 251.487 111.289C252.329 111.289 252.89 111.986 253.591 112.544C255.273 114.008 258.218 116.099 256.185 117.981C253.941 119.376 246.089 116.936 244.266 118.4C243.214 121.049 243.004 131.366 243.495 137.082C241.952 138.058 239.849 138.895 237.535 139.243C235.222 139.104 235.853 136.106 235.643 134.294C235.572 132.551 235.572 130.739 235.572 128.996C235.432 127.88 235.853 125.441 235.292 124.604ZM242.373 114.775C242.373 114.635 240.831 114.566 240.62 114.705C241.251 115.123 242.023 115.193 242.373 114.775ZM240.41 133.039C240.27 133.388 239.989 135.549 240.13 135.618C240.69 134.921 240.55 134.015 240.41 133.039ZM237.816 125.301C236.484 126.904 236.554 130.111 238.026 131.645C239.148 130.599 239.148 126.556 237.816 125.301ZM230.595 124.743C230.875 124.534 231.085 123.977 231.296 123.767C230.595 123.21 229.964 123.001 229.263 122.652C228.772 123.001 229.964 124.534 230.595 124.743ZM254.712 87.1689C253.731 91.1424 238.166 94.4189 234.801 93.9309C231.296 94.0703 220.709 92.8155 228.912 90.8636C230.104 90.6545 231.155 90.1665 232.347 89.8179C236.414 88.5631 240.901 86.2626 244.687 84.0319C246.159 83.1953 247.631 82.1497 249.104 81.2434C249.594 81.3131 250.085 81.6617 250.506 82.0799C251.908 83.6833 253.38 85.4261 254.712 87.1689ZM241.952 87.866C241.462 90.2362 250.646 87.2386 248.403 84.3804C246.72 85.4958 243.074 86.3324 241.952 87.866ZM277.428 102.645C278.129 101.948 279.041 101.948 279.742 102.645C280.793 103.621 281.915 104.597 282.967 105.712C283.528 106.13 284.439 107.455 284.369 107.594C281.915 110.034 278.69 111.847 275.886 114.008C270.838 117.842 266.421 118.051 260.391 119.933C260.251 119.027 262.284 117.493 263.476 116.169C266.561 112.962 269.365 109.755 272.38 107.385C273.993 105.921 275.745 104.457 277.428 102.645ZM276.306 109.477C276.727 108.71 276.727 108.431 276.166 108.361C275.114 108.361 272.1 110.313 272.38 112.126C273.081 112.126 275.465 110.662 276.306 109.477ZM278.269 106.618C278.76 106.27 279.321 105.712 279.742 105.364C279.602 104.597 279.531 104.248 279.391 103.9C278.83 104.248 278.269 104.806 278.269 106.618ZM272.871 90.3756C274.624 88.4934 276.447 86.89 277.849 84.729C279.882 86.1232 282.055 88.4237 284.089 90.1665C282.055 93.5126 278.41 95.4646 275.395 97.2771C271.469 100.135 266.701 100.972 262.004 101.111C260.461 100.832 262.004 99.7867 262.495 99.3684C266.281 96.7891 269.856 93.7218 272.871 90.3756ZM271.539 128.578C275.044 125.859 277.638 122.304 280.864 119.306C282.266 121.606 283.738 124.046 285 126.416C282.546 129.693 270.417 136.246 266.14 136.106C265.019 136.037 263.827 136.106 262.845 135.828C262.915 134.921 263.336 134.154 263.897 133.736C266.491 131.993 269.015 130.39 271.539 128.578ZM280.513 127.811C282.266 128.787 282.055 125.301 281.635 124.813C278.76 125.719 280.233 127.532 280.513 127.811ZM247.982 106.409C246.019 106.061 248.403 102.087 248.683 101.46C250.155 99.0198 251.067 96.7194 251.628 94.2098C251.768 93.8612 252.048 93.3035 252.399 93.0247C254.362 94.0703 256.816 95.0463 258.709 96.2314C257.166 100.623 252.679 104.597 247.982 106.409ZM255.273 97.4862C254.783 95.5343 254.292 95.3251 253.521 95.5343C254.222 96.7194 255.203 97.6953 255.273 97.4862ZM255.554 125.162C259.48 127.253 257.377 132.551 253.38 132.969C252.749 132.969 251.908 132.691 251.558 131.436C250.856 129.135 249.384 127.253 248.122 125.301C247.561 124.465 247.07 123.628 246.58 122.791C245.107 121.118 246.65 120.909 246.65 120.909C249.594 122.164 252.749 123.349 255.554 125.162ZM248.963 123.558C249.384 123.907 250.155 124.186 249.594 123.279C249.314 123.349 249.104 123.419 248.963 123.558ZM224.846 98.8804C224.565 98.4622 224.004 97.5559 224.705 97.2771C227.44 97.6256 235.362 102.784 233.189 106.758C232.558 108.431 231.155 109.686 229.473 109.686C226.458 109.616 226.178 105.921 226.037 103.551C225.967 101.878 225.897 100.275 224.846 98.8804ZM241.321 106.688C236.554 106.549 238.447 98.6713 237.746 95.3949C237.816 95.0463 238.587 95.9525 238.797 96.092C239.989 97.1376 241.321 98.1833 242.654 99.1593C243.635 99.9958 245.037 100.066 245.037 101.669C245.248 104.109 243.916 106.758 241.321 106.688ZM239.989 101.808C239.779 102.296 238.938 104.527 240.62 105.015C240.48 104.109 240.34 102.505 239.989 101.808Z" fill="#209F4B"/>
<path d="M358.745 134.21C362.3 134.281 365.785 134.21 369.41 134.14C370.735 132.017 369.968 129.753 369.898 127.418C368.365 126.994 367.11 127.064 365.437 127.064C362.718 126.923 359.93 127.206 357.211 126.923C355.817 126.994 355.887 124.871 357.072 124.588C359.442 124.376 361.254 124.517 363.206 124.376C365.507 124.305 367.807 124.517 370.038 123.951C370.107 123.88 370.038 119.564 370.107 119.494C371.78 119.635 373.384 119.918 374.917 120.06L378.542 120.626C378.682 121.899 378.821 123.031 379.03 124.305H383.771C384.537 123.597 385.444 122.678 386.28 120.979C383.073 121.687 380.773 123.173 381.4 118.362C379.03 117.654 376.869 117.866 374.499 117.866C371.92 117.796 369.271 117.937 366.692 118.008C365.925 119.564 365.019 120.413 363.346 120.555C361.603 120.767 359.86 121.333 358.048 121.121C357.769 120.838 357.42 120.343 357.42 119.989C357.699 118.362 357.629 116.663 357.56 114.965C357.351 110.72 357.42 105.131 357.42 100.885C357.42 99.541 358.884 100.249 359.79 101.168C364.949 105.626 371.432 103.22 377.427 103.999C378.612 104.069 379.309 103.999 380.494 103.999C381.679 103.999 382.376 102.725 382.934 102.017C383.84 100.956 384.607 99.541 386.141 99.8948C387.535 100.107 391.16 103.291 391.648 104.423C391.299 106.97 389.068 106.546 389.696 110.649C389.835 112.418 389.766 114.187 389.835 115.956C389.696 117.583 390.602 119.777 388.79 120.767C390.323 122.395 391.857 124.022 393.251 125.649C394.018 126.498 393.112 127.772 392.066 127.701C387.744 127.56 383.492 127.206 379.17 127.277C378.333 129.47 378.542 131.876 378.542 134.21C380.843 135.059 383.84 134.706 386.35 134.564C388.162 134.14 389.905 130.39 391.787 130.319C393.878 130.602 395.83 134.706 397.015 136.121C397.573 136.899 396.736 138.243 395.691 138.243C381.261 136.97 368.156 137.041 354.423 137.111C353.447 137.041 351.983 137.324 351.634 135.767C351.425 134.776 352.192 134.493 352.68 134.352C354.771 133.998 355.817 134.14 358.745 134.21ZM363.067 111.711C363.137 110.72 361.673 109.659 360.976 108.881C360.488 110.154 360.557 111.569 360.488 112.701C360.766 112.56 362.788 111.923 363.067 111.711ZM381.61 114.753C381.679 112.772 381.749 110.72 381.749 108.739C381.749 107.182 381.261 106.758 379.658 106.687C375.405 106.829 370.386 106.121 365.995 107.041V115.036C369.689 115.036 373.314 115.107 376.869 115.036C378.403 115.107 380.215 115.39 381.61 114.753ZM385.722 115.814C387.814 114.541 387.395 110.932 386.28 109.022C384.956 109.8 384.886 112.064 385.722 115.814ZM372.199 130.107C371.641 131.38 371.711 132.795 372.338 134.069C373.175 133.715 374.987 131.451 374.639 130.743C374.22 129.894 372.966 130.177 372.199 130.107ZM403.847 98.692C400.989 102.866 397.573 106.192 393.878 107.748C392.414 108.173 393.251 106.121 393.53 105.414C394.506 103.008 395.482 99.4703 395.133 95.9326C381.122 94.8005 366.971 95.6496 352.75 95.6496C353.307 98.4797 354.562 101.593 353.935 104.423C353.447 106.546 351.425 108.315 349.264 108.315C344.176 108.244 344.594 103.362 345.709 99.541C346.476 96.7109 347.034 94.3052 347.173 91.7581C347.173 90.8383 347.312 89.8477 348.428 88.9987C349.683 89.6355 350.38 91.1213 351.216 92.2534C352.889 92.7487 355.259 92.6779 357.072 92.4656C357.072 92.4656 353.238 85.178 352.332 83.4091C352.192 83.1969 352.61 82.9846 353.377 82.9846C358.257 82.9846 366.692 84.6827 364.182 91.1921C363.973 91.6166 363.834 91.9704 363.903 92.5364C365.925 93.2439 367.737 92.7487 369.759 92.8902C370.665 88.6449 370.038 84.612 369.829 80.4375C369.829 80.296 370.107 80.296 370.177 80.296C372.756 80.2252 376.102 80.0837 378.263 81.0035C378.891 84.7535 377.566 88.4327 378.403 92.1119C380.494 93.6685 381.888 90.4845 383.143 89.1402C385.513 86.7346 387.117 83.6214 389.208 81.0035C391.369 82.7016 393.878 83.6922 395.83 85.744C394.297 89.211 390.602 90.2723 387.674 92.1119C388.65 92.9609 389.556 92.5364 390.602 92.6779C392.136 92.6072 393.6 92.6071 395.133 92.6071C396.458 92.0411 398.061 89.1402 399.595 88.5742C400.501 88.2204 401.756 88.7157 403.498 90.2723C406.147 92.6779 408.239 95.1543 406.147 96.2864C405.102 96.8524 404.474 97.7722 403.847 98.692ZM389.766 84.4705C386.977 84.3997 387.814 88.1497 389.487 88.4327C390.811 88.0789 390.114 85.461 389.766 84.4705ZM351.077 104.14C351.704 102.159 350.24 98.2675 349.961 98.6212C347.522 101.239 349.125 102.23 351.077 104.14ZM374.081 92.3241C374.708 91.7581 373.384 87.5129 373.105 86.4516C372.268 88.4327 372.199 91.2628 374.081 92.3241ZM402.174 94.0222C400.64 95.2958 400.431 98.1259 399.873 99.8948C401.546 98.409 403.568 96.0741 402.174 94.0222Z" fill="#209F4B"/>
<path d="M74 109.243V112.243H17V109.243H74Z" fill="#209F4B"/>
<path d="M491 109.243V112.243H434V109.243H491Z" fill="#209F4B"/>
<path d="M189.476 112.792C189.476 84.4528 163.182 60.7542 129.791 60.754C96.8309 60.754 75.5244 84.0498 75.5243 112.792C75.5243 141.443 96.7383 163.733 129.791 163.733V167.243L128.163 167.226C94.1722 166.499 72 142.991 72 112.792C72.0001 82.1133 94.8821 57.2434 129.791 57.2434L130.608 57.248C165.141 57.6325 193 82.3531 193 112.792C193 143.471 179.645 167.243 129.791 167.243V163.733C154.221 163.733 168.921 157.906 177.568 149.072C186.223 140.229 189.476 127.699 189.476 112.792Z" fill="#209F4B"/>
<path d="M164.076 48.5277C167.827 49.5833 170.604 51.0477 168.617 55.1276C167.714 56.8844 166.765 58.6667 165.39 60.1359C164.269 59.8215 163.013 59.0219 162.212 58.321C162.293 58.032 162.491 57.7828 162.664 57.5709C164.043 56.0528 164.971 54.2587 165.992 52.5418C167.144 50.7178 165.247 49.537 163.418 49.6249C162.912 49.9855 162.688 50.5285 162.368 51.0433C161.132 52.8205 160.149 54.6098 158.951 56.4594C158.605 57.0115 158.289 57.0926 157.673 56.8024C156.826 56.3836 156.017 55.9089 155.077 55.4129C157.06 52.1515 159.502 49.0681 161.287 45.7994C162.193 45.9175 163.845 46.86 164.654 47.463C164.506 47.8941 164.211 48.2434 164.076 48.5277ZM161.797 46.5441C161.569 46.7513 161.421 47.0542 161.408 47.3293C161.501 47.2782 161.986 47.0341 162.024 46.85C162.083 46.6775 161.864 46.6585 161.797 46.5441ZM156.528 54.6015C156.195 55.0067 156.131 54.9716 156.747 55.3901C156.776 55.3038 156.515 54.6201 156.515 54.6201C156.515 54.6201 156.54 54.5829 156.528 54.6015ZM163.124 47.4091C163.145 47.6773 163.056 47.936 163.25 48.1206C163.461 47.8527 163.697 47.4194 163.124 47.4091ZM158.884 54.6777C159.112 54.5988 160.272 52.6769 160.226 52.5742C160.196 52.5322 159.437 52.3677 159.21 52.9596C159.041 53.3791 158.863 54.4095 158.884 54.6777ZM166.105 54.1697C165.443 55.1876 164.966 55.975 165.181 55.7865C165.831 55.1719 166.573 54.2497 166.472 53.6293C166.421 53.7038 166.27 53.9274 166.105 54.1697ZM164.417 58.3643C164.746 58.3929 165.003 58.4842 165.142 58.5358C164.447 57.3803 164.186 57.0814 163.92 57.601C163.844 57.7128 164.24 58.1122 164.417 58.3643ZM168.184 53.245C168.529 52.9494 168.365 52.5504 168.247 52.1258C168.024 52.284 168.196 52.9699 168.184 53.245Z" fill="#209F4B"/>
<path d="M131.002 41.3485C130.392 41.0334 129.755 40.8478 129.16 40.5804C129.053 40.4933 129.065 40.3161 129.074 40.2729C129.943 38.7521 131.304 37.9954 133.12 37.9288C134.504 37.8942 135.763 38.2177 137.074 38.7749C138.581 39.3463 139.45 40.6963 139.594 42.1585C139.724 43.2142 139.372 44.6518 139.176 45.8265C139.018 46.941 138.463 48.2734 139.17 49.3241C139.389 49.5892 139.9 49.6616 140.188 49.9617C140.499 50.2662 140.32 50.8834 139.727 50.7284C138.324 50.4905 136.893 50.2697 135.648 49.5227C134.414 49.675 133.13 49.9523 131.857 49.6937C125.68 48.3452 128.626 41.6925 134.179 43.1495C134.777 43.2829 135.36 43.3687 135.89 43.4671C136.309 42.0646 136.67 39.8662 134.87 39.3751C133.177 38.9711 132.593 39.8495 132.279 41.2267C132.232 41.3302 132.249 41.4902 132.121 41.6235C131.679 41.6986 131.312 41.5406 131.002 41.3485ZM138.278 49.5174C138.302 49.5219 138.145 49.6723 138.145 49.6723L138.213 49.7073C138.222 49.6641 138.293 49.5651 138.306 49.5003C138.306 49.5003 138.263 49.4698 138.278 49.5174ZM130.063 48.2169C130.243 47.9586 129.997 47.5766 129.97 47.3473C129.932 47.4076 129.417 48.0745 130.063 48.2169ZM131.444 44.6154C131.49 44.5119 131.774 44.1159 131.774 44.1159C131.519 44.136 131.212 44.1686 131.006 44.1976C131.132 44.3108 131.298 44.4761 131.444 44.6154ZM138.232 46.7502C138.458 46.3884 138.274 45.9506 138.039 45.6378C138.039 45.6378 137.804 46.4016 137.824 46.4277C137.87 46.6831 138.059 46.7404 138.2 46.9013C138.2 46.9013 138.176 46.8968 138.232 46.7502ZM138.127 43.5459C138.136 43.5027 137.99 44.0811 138.19 43.9613C138.333 43.8757 138.107 43.5198 138.127 43.5459ZM137.801 41.0406C137.734 40.7591 137.715 40.7331 137.448 40.5714C137.427 40.7918 137.718 40.9579 137.801 41.0406ZM135.101 48.5465C135.237 47.1812 135.408 45.8895 135.539 44.5458C135.09 44.4176 134.574 44.2544 134.072 44.1389C130.507 43.9481 131.408 49.9243 135.101 48.5465ZM131.567 40.4441C131.383 40.3651 131.115 40.4499 131.053 40.5057L131.527 40.7508C131.527 40.7508 131.591 40.4485 131.567 40.4441Z" fill="#209F4B"/>
<path d="M103.987 46.3725C106.85 48.5542 109.864 50.7394 112.877 52.9247C113.205 53.1618 113.569 53.4355 113.498 54.0496C112.61 54.4506 111.657 54.6566 110.792 54.9794C110.292 55.1248 109.894 55.0508 109.523 54.7554C107.599 53.155 105.727 51.6346 103.803 50.0342C103.395 49.7021 102.949 49.3333 102.394 49.1623C102.257 49.2736 102.162 49.5147 102.016 49.6759C101.311 50.783 101.579 50.99 101.891 52.0859C102.298 53.3918 102.691 54.6544 103.105 55.9819C103.392 56.7766 102.928 57.0303 102.239 57.2069C101.626 57.3854 101.028 57.5356 100.385 57.6991C99.8855 57.3934 99.7734 56.9038 99.6816 56.5507C98.3533 51.4776 96.5168 46.5998 95.0067 41.5796C94.9566 41.428 94.9149 41.2265 94.9557 41.0485C95.9687 40.4214 96.5282 40.3061 97.7812 40.1789C98.2676 40.3697 98.351 40.7727 98.4357 41.1041C99.242 43.6942 100.009 46.3908 100.891 48.9827C101.063 49.0513 101.142 48.8384 101.228 48.6472C102.601 45.9451 104.176 43.3267 105.452 40.5579C105.726 39.9559 105.986 39.3106 106.356 38.847C106.579 38.6161 106.875 38.4585 107.232 38.7107C107.47 38.9026 107.456 39.3104 107.269 39.6496C106.197 41.9078 104.871 44.0739 103.987 46.3725ZM99.0753 51.5523C99.4117 50.8373 98.5366 49.1692 98.231 48.546C98.2322 48.4744 98.7769 50.9508 99.0622 51.4375C99.1208 51.5391 99.1208 51.5391 99.0753 51.5523ZM96.4794 41.8157C96.4533 41.586 96.2777 41.281 96.0505 41.3471C95.937 41.3802 95.9201 41.48 96.0085 41.5967C96.1112 41.7567 96.2606 41.8319 96.4794 41.8157ZM102.405 56.3517L102.112 55.4638C101.218 55.7 101.015 54.8573 100.834 54.3875C100.949 55.1851 101.534 55.7506 101.995 56.5422C102.124 56.4809 102.276 56.413 102.405 56.3517ZM97.929 42.5096C98.154 42.1355 97.8518 41.7487 97.7815 41.4606C97.6402 41.7866 97.6866 42.1529 97.929 42.5096ZM103.28 47.6228C103.303 47.6162 103.669 47.3673 103.859 47.2645C103.763 47.1261 103.696 47.0744 103.606 47.1008C103.37 47.2168 103.311 47.5663 103.28 47.6228ZM107.594 51.7084C107.61 51.6802 107.734 51.4541 107.734 51.4541C107.734 51.4541 107 51.1928 106.948 51.1844C107.079 51.431 107.079 51.431 107.594 51.7084ZM111.605 53.746C112.574 53.4401 112.059 53.1627 110.602 52.8983C110.564 52.9332 110.704 53.1299 110.879 53.4349C111.026 53.6532 111.332 53.8253 111.605 53.746Z" fill="#209F4B"/>
<path d="M275.9 50.3465C276.005 49.9872 276.049 49.652 276.178 49.3537C277.51 46.5658 278.796 43.7077 279.976 40.8036C280.219 40.1246 280.778 40.0624 281.316 40.3964C281.879 40.6147 282.594 40.9493 283.212 41.2165C283.216 41.8506 282.852 42.4011 282.588 42.8941C282.076 43.7855 281.823 44.8394 281.384 45.7372C280.883 46.836 280.541 47.9779 280.007 49.037C279.557 49.9043 279.416 50.9311 278.624 51.6509L278.305 51.5127C277.523 51.0986 276.706 50.8216 275.9 50.3465ZM281.406 43.698C281.259 43.8621 281.154 44.3983 281 44.8123C280.901 45.0985 280.681 45.2563 280.687 45.36C281.109 44.9102 281.303 44.286 281.406 43.698ZM278.442 50.6109C278.196 50.1254 278.184 50.0949 278.083 49.3934L277.668 50.3523C277.626 50.3338 277.647 50.3431 277.668 50.3523C277.951 50.5757 278.231 50.7473 278.442 50.6109ZM280.854 41.0564C280.664 41.2021 280.431 41.5062 280.541 41.6041C280.888 41.6784 281.712 41.5286 281.865 41.2914C281.737 41.2361 281.576 41.1411 281.384 41.0581C281.15 40.9568 281.034 40.932 280.854 41.0564ZM277.314 48.6563C277.139 49.0611 276.729 49.5414 276.871 49.8559C277.382 49.318 277.62 48.3586 277.713 47.7919C277.658 47.9197 277.523 48.2912 277.314 48.6563ZM283.789 35.4968C286.167 36.3734 284.618 40.1298 282.366 38.9032C282.357 38.9245 282.272 38.8876 282.251 38.8784C279.401 37.7474 281.463 34.6174 283.789 35.4968ZM282.194 36.7292C282.389 36.6872 283.438 36.4833 283.067 36.1712C282.821 36.0393 282.194 36.5524 282.194 36.7292ZM282.68 38.1787C283.133 38.4759 283.382 38.6596 283.799 38.1062C283.436 38.1263 283.064 38.1678 282.68 38.1787Z" fill="#209F4B"/>
<path d="M249.008 38.3464C248.408 38.0695 247.793 37.9309 247.211 37.7027C247.103 37.6206 247.101 37.4335 247.106 37.3873C247.806 35.7134 249.029 34.7984 250.736 34.5679C252.039 34.4092 253.251 34.6376 254.531 35.107C255.997 35.5738 256.922 36.9147 257.173 38.4376C257.378 39.5348 257.16 41.0755 257.067 42.3266C257.006 43.5109 256.587 44.9593 257.336 46.0003C257.564 46.2592 258.051 46.2901 258.346 46.5798C258.664 46.8721 258.543 47.5361 257.971 47.4258C256.631 47.2999 255.264 47.1946 254.031 46.5201C252.88 46.7891 251.691 47.194 250.47 47.0348C244.541 46.1647 246.795 38.9177 252.146 39.9569C252.72 40.0442 253.276 40.0827 253.784 40.1392C254.068 38.6293 254.236 36.2887 252.5 35.9321C250.872 35.6575 250.39 36.6316 250.203 38.1057C250.167 38.2185 250.195 38.3851 250.085 38.5363C249.674 38.6542 249.316 38.5208 249.008 38.3464ZM256.51 46.2821C256.533 46.2847 256.397 46.4564 256.397 46.4564L256.464 46.4872C256.469 46.4411 256.528 46.3308 256.536 46.2616C256.536 46.2616 256.492 46.2334 256.51 46.2821ZM248.663 45.6425C248.812 45.3554 248.55 44.9759 248.507 44.7375C248.476 44.8041 248.043 45.5501 248.663 45.6425ZM249.682 41.7382C249.718 41.6254 249.953 41.1845 249.953 41.1845C249.715 41.2281 249.428 41.2895 249.236 41.3382C249.364 41.4459 249.533 41.6049 249.682 41.7382ZM256.249 43.3801C256.434 42.9802 256.226 42.5366 255.98 42.229C255.98 42.229 255.819 43.0518 255.839 43.0775C255.903 43.3416 256.085 43.3852 256.231 43.5416C256.231 43.5416 256.208 43.539 256.249 43.3801ZM255.899 40.0242C255.904 39.9781 255.811 40.5985 255.991 40.4549C256.119 40.3524 255.878 39.9986 255.899 40.0242ZM255.394 37.4221C255.31 37.1323 255.289 37.1067 255.025 36.9605C255.022 37.1938 255.309 37.3426 255.394 37.4221ZM253.439 45.5433C253.46 44.0974 253.519 42.7259 253.537 41.3031C253.104 41.2081 252.604 41.0824 252.122 41.0054C248.746 41.1202 250.065 47.3167 253.439 45.5433ZM249.47 37.3467C249.29 37.28 249.044 37.3928 248.99 37.4569L249.457 37.6723C249.457 37.6723 249.493 37.3493 249.47 37.3467Z" fill="#209F4B"/>
<path d="M229.975 48.6406C231.008 51.3052 228.459 53.0347 226.27 53.8071C224.578 54.385 222.985 54.3895 221.321 53.7559C221.388 52.8744 221.426 52.0519 221.531 51.2803C221.558 51.0745 221.653 50.9196 221.828 50.8596C222.202 50.732 222.491 51.1483 222.742 51.308C223.982 52.2091 225.469 52.6825 226.649 51.4698C227.749 50.3824 227.077 48.8457 225.628 48.4821C224.098 48.0237 222.424 48.0802 220.88 47.7246C219.138 47.4366 218.11 44.4269 219.135 43.1199C219.854 42.0647 220.679 41.3905 221.747 40.9274C223.701 40.1127 225.794 40.2072 227.932 41.3659C228.078 42.2238 227.819 42.9745 227.604 43.6368C227.611 43.6588 227.583 43.7911 227.517 43.8137C227.012 43.9863 226.737 43.6139 226.618 43.3358C225.129 40.6306 221.079 41.9161 222.042 45.0217C222.499 46.2149 225.66 45.8463 226.807 46.0434C228.203 46.1798 229.511 47.352 229.975 48.6406ZM229.401 50.3334C229.035 50.5564 228.956 50.6818 228.834 51.1892C229.215 51.0102 229.237 51.0027 229.401 50.3334ZM226.81 42.6076C226.598 42.7046 227.085 42.98 227.166 43.0014C227.238 42.854 227.368 42.5888 227.295 42.5893C227.156 42.6124 226.898 42.5776 226.81 42.6076ZM219.617 44.6727C219.697 44.5473 219.695 44.4004 219.621 44.3276C219.521 44.6073 219.572 44.6143 219.617 44.6727ZM221.263 44.8953C221.312 44.5352 221.191 44.1103 221.144 43.7583C221.014 44.0236 221.144 44.6907 221.263 44.8953ZM221.324 42.274C221.083 42.5034 220.937 42.5779 221.05 42.9074C221.282 42.5827 221.326 42.5677 221.324 42.274ZM222.704 47.1751C222.778 47.248 223.593 47.3373 223.748 47.3582C223.63 47.3738 222.814 47.211 222.704 47.1751ZM225.474 47.5289C225.496 47.5214 225.54 47.433 225.518 47.4405C225.385 47.4121 225.194 47.3548 225.019 47.5616C225.1 47.5096 225.386 47.4855 225.474 47.5289ZM227.429 48.7257C227.413 48.6083 227.28 48.4331 227.088 48.3758L227.096 48.3978C227.288 48.6019 227.458 48.7401 227.429 48.7257ZM222.345 53.2343C222.367 53.2268 222.639 53.2322 222.588 53.2252C222.624 53.2616 222.293 53.0806 222.271 53.0881C222.278 53.11 222.301 53.1759 222.345 53.2343ZM222.22 52.2222C222.331 52.2581 222.543 52.161 222.609 52.1385C222.572 52.1021 222.283 51.7592 222.268 51.7153C222.144 51.7823 222.021 52.0695 222.22 52.2222Z" fill="#209F4B"/>
<path d="M409.48 42.8977C409.661 42.6001 409.858 42.2309 410.329 42.0823C410.786 42.2242 411.321 42.5497 411.694 42.8304C412.031 43.0354 412.436 43.3084 412.778 43.4616C412.872 43.5736 412.756 43.7202 412.764 43.7521C411.696 45.3307 410.724 46.886 409.863 48.4817C408.148 51.0798 407.795 53.7175 411.685 53.0385C412.153 52.5355 412.515 51.9403 412.865 51.2296C413.397 50.2214 415.479 46.5702 415.914 45.7206C416.075 45.411 416.284 45.022 416.759 44.8216C417.017 44.9783 417.235 45.1109 417.454 45.2435C417.969 45.5569 418.577 45.8987 419.061 46.2199C419.438 46.449 419.483 46.7757 419.23 47.1923C418.054 48.9495 416.977 50.7669 415.967 52.6524C415.372 53.6763 414.793 54.7639 414.166 55.7955C413.961 56.1328 413.847 56.4985 413.325 56.6429C412.571 56.1848 411.728 55.9173 410.955 55.4471C410.816 55.3628 410.593 55.2819 410.515 55.0983C410.656 54.7766 410.761 54.5144 410.893 54.2962C410.874 54.2841 410.846 54.2402 410.806 54.2161C409.329 54.1879 408.266 53.5688 407.266 52.9342C404.838 51.4316 405.94 48.8141 407.086 46.794C407.841 45.4605 408.665 44.195 409.48 42.8977ZM418.344 46.9525C418.271 47.0715 418.059 47.3769 417.878 47.6745C417.866 47.6943 417.877 47.8098 417.874 47.7262C418.31 47.231 418.335 47.1913 418.344 46.9525ZM416.021 50.7297C416.01 50.6142 415.828 50.4221 415.832 50.3703C415.519 50.8862 415.063 51.9944 414.932 52.567C415.166 52.1383 415.776 51.1782 416.021 50.7297ZM413.764 54.2207C413.35 54.3219 412.45 54.3726 412.332 54.79C412.279 54.921 412.474 54.958 412.581 55.0501C412.951 55.2473 413.201 55.3721 413.373 55.178C413.546 54.8485 413.798 54.5672 413.764 54.2207ZM407.593 51.5027C407.895 51.6318 407.974 50.9196 407.744 50.8069C407.43 50.6976 407.355 51.3581 407.593 51.5027ZM408.352 49.6278C408.72 49.1999 409.251 48.3269 409.345 47.8139C408.934 47.9987 408.374 49.2338 408.352 49.6278ZM411.641 43.722C411.498 43.6893 411.405 44.067 411.492 44.1471C411.631 44.0962 411.768 43.8262 411.641 43.722ZM410.223 43.2403C410.203 43.2282 410.223 43.2403 410.203 43.2282C410.294 43.2566 410.493 43.3771 410.513 43.3892C410.529 43.3176 410.479 43.0426 410.503 43.0029C410.491 43.0228 410.335 43.1453 410.223 43.2403Z" fill="#209F4B"/>
<path d="M380.625 34.6999C384.666 32.6403 389.772 35.4729 389.408 40.2656C389.22 44.4786 386.107 48.0493 381.745 46.8062C375.725 45.8643 376.106 37.2014 380.625 34.6999ZM387.86 42.4449C387.76 42.4704 387.609 42.7225 387.667 42.7828C387.723 42.7474 387.874 42.7093 387.871 42.6136C387.873 42.4953 387.86 42.4449 387.86 42.4449ZM378.565 43.7547C378.68 43.6612 378.632 43.5556 378.576 43.377C378.498 43.1933 378.419 43.0097 378.291 43.0529C378.282 43.3122 378.373 43.5462 378.565 43.7547ZM378.998 40.8076C379.134 40.8375 379.837 38.0684 379.995 37.8893C379.612 38.4467 379.441 38.7896 379.234 39.4095C379.201 39.4499 378.998 40.8076 378.998 40.8076ZM379.889 44.7586C379.969 44.6098 379.772 44.424 379.634 44.5125C379.609 44.6258 379.788 44.784 379.889 44.7586ZM384.746 45.5876C385.372 45.44 385.359 44.9616 385.469 44.6768C385.529 44.6187 385.398 44.7802 385.263 44.9643C385.072 45.1839 384.876 45.4261 384.746 45.5876ZM386.979 40.3975C386.801 40.6674 386.238 43.2295 386.233 43.2522C386.582 42.8535 386.727 42.41 386.942 41.649C387.021 41.2862 387.075 40.6088 386.979 40.3975ZM387.488 36.5639C387.461 36.5816 386.685 36.4349 386.657 36.4526C386.617 36.634 386.969 37.3054 387.014 37.3154C387.359 37.3674 387.488 36.5639 387.488 36.5639ZM385.041 43.9174C386.137 42.0665 387.386 36.1612 384.683 35.5913C382.39 34.9927 381.42 36.4908 380.767 38.4866C379.746 40.7579 379.181 44.6269 382.046 45.5414C383.293 45.8153 384.379 44.9842 385.041 43.9174Z" fill="#209F4B"/>
<path d="M347.457 40.9658C348.754 39.2224 351.363 38.659 353.438 38.5728C353.355 36.8306 352.638 35.0171 352.308 33.2352C352.166 32.601 351.915 32.015 352.253 31.2965C352.288 31.241 355.056 30.6419 355.101 30.6317C355.27 30.6413 355.243 30.8378 355.298 30.8729C356.451 35.2536 357.218 39.721 358.343 44.0842C358.559 44.9397 358.803 45.8128 358.957 46.7063C359.061 47.2776 359.176 47.8942 359.485 48.4196C359.745 48.8369 359.44 49.3816 359.004 49.4558C356.54 49.8199 356.439 50.7468 355.788 48.0619C351.608 50.0018 347.178 49.6662 346.7 44.1581C346.697 43.088 346.767 41.8112 347.457 40.9658ZM348.456 46.5707C348.604 46.2757 348.102 45.8414 347.91 45.6229C347.788 46.0311 348.154 46.496 348.456 46.5707ZM347.889 43.4147C347.961 43.208 347.729 42.8083 347.653 42.6826C347.532 42.7811 347.503 43.0732 347.604 43.3122C347.624 43.4028 347.889 43.4147 347.889 43.4147ZM356.488 46.31C356.644 46.156 356.724 46.0903 356.696 46.0727C356.531 45.4437 356.346 45.1521 356.351 45.1748C355.969 45.3797 356.314 46.0637 356.488 46.31ZM356.054 43.005C356.024 42.3454 355.303 41.1513 355.123 40.4543C355.114 40.8371 355.602 42.7973 356.054 43.005ZM357.937 48.6252C358.274 48.6444 358.757 48.4644 358.381 48.1682C357.993 47.9225 357.765 47.5454 357.362 47.2318C357.362 47.2318 357.321 47.2646 357.367 47.2544C357.526 47.6468 357.744 48.1926 357.937 48.6252ZM356.351 39.464L356.5 39.383C356.263 38.6509 356.198 38.5705 356.17 38.5529C356.188 38.5252 356.125 38.5631 356.12 38.5405C356.14 38.6311 356.346 39.4413 356.351 39.464ZM354.781 31.5365C354.399 31.5274 352.878 31.5366 352.997 31.9618C353.035 32.0246 353.32 32.1271 353.499 32.182C353.852 32.2692 354.819 32.3371 354.869 32.1355C354.891 32.1304 354.759 31.5416 354.781 31.5365ZM349.676 46.1771C349.699 46.172 349.699 46.172 349.626 46.1647C349.608 46.1924 349.626 46.1647 349.626 46.1647C349.626 46.1647 349.704 46.1947 349.676 46.1771ZM348.778 41.549L349.118 41.6865C349.133 41.5405 349.238 41.374 349.268 41.2959C349.036 41.3242 348.724 41.4182 348.778 41.549ZM351.689 48.2466C351.626 48.2845 351.676 48.297 351.663 48.1333C351.615 48.0252 351.426 47.925 351.348 47.895C351.348 47.895 351.397 48.2171 351.374 48.2222C351.492 48.2194 351.621 48.2619 351.689 48.2466ZM353.953 39.9085C353.273 39.8474 352.634 39.9674 351.931 40.1254C350.444 40.3888 349.858 41.5914 349.847 43.0217C349.643 44.9711 350.458 46.4772 352.339 47.6481C353.335 48.1616 354.62 47.4204 355.523 46.8842L353.953 39.9085Z" fill="#209F4B"/>
<path d="M431.519 98.8436C431.519 82.9499 425.476 72.7 415.702 66.2449C405.683 59.6283 391.333 56.7333 374.392 56.7332C357.823 56.7332 343.052 61.6553 332.491 70.405C321.993 79.1033 315.481 91.713 315.481 107.612C315.481 123.732 321.105 137.713 331.138 147.66C341.166 157.601 355.843 163.754 374.392 163.754V167.243L373.488 167.239C335.342 166.841 312 141.249 312 107.612C312 73.7108 339.934 53.2434 374.392 53.2434L376 53.2525C409.66 53.6148 435 65.4714 435 98.8436L434.985 101.203C434.355 150.249 413.874 167.243 374.392 167.243V163.754C394.023 163.754 408.021 159.453 417.208 149.718C426.445 139.931 431.519 123.921 431.519 98.8436Z" fill="#209F4B"/>
<path d="M310.547 107.62C310.547 90.4172 305.471 77.831 296.804 69.5253C288.11 61.1926 275.339 56.7234 259.1 56.7234C242.829 56.7234 226.799 61.2172 214.935 69.8278C203.164 78.3699 195.453 90.9623 195.453 107.62C195.453 141.447 221.16 165.763 253 165.763V169.243L252.212 169.239C218.886 168.84 192 143.147 192 107.62C192 71.8125 225.411 53.2435 259.1 53.2434C292.789 53.2434 314 71.8124 314 107.62L313.996 108.457C313.574 143.828 286.426 169.243 253 169.243V165.763C284.84 165.763 310.547 141.447 310.547 107.62Z" fill="#209F4B"/>
</svg>
