<svg width="300" height="300" viewBox="0 0 300 300" fill="none" xmlns="http://www.w3.org/2000/svg">
<path d="M150 24.5C162.673 24.5 175.222 26.9946 186.93 31.8418C198.638 36.689 209.276 43.7937 218.236 52.75C227.197 61.7063 234.305 72.3392 239.154 84.041C244.004 95.743 246.5 108.285 246.5 120.951C246.5 133.617 244.004 146.159 239.154 157.861C237.893 160.905 236.503 165.201 235.001 170.006C233.491 174.838 231.859 180.215 230.094 185.513C228.329 190.81 226.446 195.98 224.45 200.377C222.439 204.808 220.376 208.31 218.299 210.385C216.307 212.375 214.296 213.056 212.188 213.092C209.985 213.129 207.621 212.465 204.943 211.586C199.792 209.895 193.495 207.342 186.929 210.061C183.665 211.412 180.464 214.12 177.371 217.241C174.267 220.373 171.103 224.101 168.001 227.569C164.863 231.078 161.77 234.345 158.696 236.734C155.607 239.136 152.724 240.5 150 240.5C147.201 240.5 144.284 239.32 141.209 237.291C138.14 235.266 135.051 232.49 131.919 229.486C128.826 226.52 125.654 223.295 122.559 220.55C119.461 217.803 116.282 215.39 113.07 214.061C106.777 211.455 100.712 212.009 95.5547 212.011C90.3381 212.013 85.88 211.497 81.7637 207.385C79.6675 205.291 77.5969 201.952 75.585 197.811C73.5853 193.694 71.697 188.898 69.9258 183.979C68.1549 179.06 66.5146 174.055 65 169.51C63.4925 164.986 62.1011 160.891 60.8457 157.861C55.9962 146.159 53.5 133.617 53.5 120.951C53.5 108.285 55.9962 95.743 60.8457 84.041C65.6952 72.3392 72.8029 61.7063 81.7637 52.75C90.7245 43.7936 101.363 36.689 113.071 31.8418C124.779 26.9947 137.328 24.5 150 24.5Z" stroke="#209F4B" stroke-width="3"/>
<path d="M150 228.5C157.456 228.5 163.5 234.544 163.5 242C163.5 249.456 157.456 255.5 150 255.5C142.544 255.5 136.5 249.456 136.5 242C136.5 234.544 142.544 228.5 150 228.5Z" stroke="#209F4B" stroke-width="3"/>
<path d="M118.768 172.824V87.576C118.768 86.1253 119.493 85.4 120.944 85.4C122.395 85.4 123.12 86.1253 123.12 87.576V117.528C123.12 120.259 123.931 121.624 125.552 121.624C126.405 121.624 127.472 121.112 128.752 120.088L169.84 86.168C170.352 85.656 171.077 85.4 172.016 85.4H174.064C176.283 85.4 176.539 86.1253 174.832 87.576L129.392 124.952C128.453 125.72 127.941 126.573 127.856 127.512C127.856 128.451 128.325 129.347 129.264 130.2L178.672 172.824C179.44 173.507 179.739 174.061 179.568 174.488C179.397 174.829 178.843 175 177.904 175H175.728C174.96 175 174.192 174.701 173.424 174.104L128.88 135.192C127.685 134.083 126.576 133.528 125.552 133.528C123.931 133.528 123.12 134.936 123.12 137.752V172.824C123.12 174.275 122.395 175 120.944 175C119.493 175 118.768 174.275 118.768 172.824Z" fill="#209F4B"/>
<line x1="120" y1="158" x2="158" y2="158" stroke="#209F4B" stroke-width="4"/>
<path d="M242.49 219C259.676 225.022 270 232.742 270 241.159C270 260.401 216.05 276 149.5 276C82.9497 276 29 260.401 29 241.159C29 232.742 39.3236 225.022 56.5096 219" stroke="#209F4B" stroke-width="3" stroke-linecap="round"/>
</svg>
