<svg width="300" height="300" viewBox="0 0 300 300" fill="none" xmlns="http://www.w3.org/2000/svg">
<path d="M150 32.5C162.673 32.5 175.222 34.9946 186.93 39.8418C198.638 44.689 209.276 51.7937 218.236 60.75C227.197 69.7063 234.305 80.3392 239.154 92.041C244.004 103.743 246.5 116.285 246.5 128.951C246.5 141.617 244.004 154.159 239.154 165.861C237.893 168.905 236.503 173.201 235.001 178.006C233.491 182.838 231.859 188.215 230.094 193.513C228.329 198.81 226.446 203.98 224.45 208.377C222.439 212.808 220.376 216.31 218.299 218.385C216.307 220.375 214.296 221.056 212.188 221.092C209.985 221.129 207.621 220.465 204.943 219.586C199.792 217.895 193.495 215.342 186.929 218.061C183.665 219.412 180.464 222.12 177.371 225.241C174.267 228.373 171.103 232.101 168.001 235.569C164.863 239.078 161.77 242.345 158.696 244.734C155.607 247.136 152.724 248.5 150 248.5C147.201 248.5 144.284 247.32 141.209 245.291C138.14 243.266 135.051 240.49 131.919 237.486C128.826 234.52 125.654 231.295 122.559 228.55C119.461 225.803 116.282 223.39 113.07 222.061C106.777 219.455 100.712 220.009 95.5547 220.011C90.3381 220.013 85.88 219.497 81.7637 215.385C79.6675 213.291 77.5969 209.952 75.585 205.811C73.5853 201.694 71.697 196.898 69.9258 191.979C68.1549 187.06 66.5146 182.055 65 177.51C63.4925 172.986 62.1011 168.891 60.8457 165.861C55.9962 154.159 53.5 141.617 53.5 128.951C53.5 116.285 55.9962 103.743 60.8457 92.041C65.6952 80.3392 72.8029 69.7063 81.7637 60.75C90.7245 51.7936 101.363 44.689 113.071 39.8418C124.779 34.9947 137.328 32.5 150 32.5Z" stroke="#209F4B" stroke-width="3"/>
<path d="M97.3496 26.3979C99.9901 27.9591 102.756 29.5052 105.522 31.0512C105.823 31.2189 106.159 31.4142 106.173 31.9602C105.483 32.4192 104.716 32.7154 104.037 33.103C103.639 33.2911 103.299 33.2746 102.955 33.0613C101.165 31.8946 99.4267 30.7916 97.6363 29.6249C97.2569 29.384 96.8424 29.1154 96.3611 29.0332C96.2601 29.1473 96.2105 29.3698 96.1086 29.5286C95.6559 30.5833 95.9031 30.7319 96.2944 31.653C96.7892 32.7465 97.2669 33.8037 97.7702 34.9152C98.1046 35.5757 97.7495 35.8541 97.1985 36.0925C96.7103 36.3233 96.2317 36.5275 95.7169 36.7487C95.2651 36.5419 95.1132 36.1271 94.9946 35.8292C93.2817 31.5509 91.17 27.5053 89.3125 23.2953C89.2526 23.1687 89.1938 22.9974 89.2063 22.8367C89.9726 22.1647 90.4236 21.9957 91.4493 21.732C91.8764 21.8398 91.9941 22.1824 92.1042 22.4622C93.0853 24.6309 94.0463 26.8977 95.0901 29.0589C95.2413 29.098 95.2814 28.902 95.3301 28.7242C96.1463 26.1924 97.1404 23.7093 97.8682 21.1309C98.0237 20.5707 98.1621 19.9744 98.4136 19.5236C98.5707 19.2945 98.7982 19.1206 99.1254 19.2978C99.3459 19.4368 99.3828 19.7955 99.2684 20.115C98.6494 22.2217 97.8078 24.2787 97.3496 26.3979ZM93.8905 31.5285C94.0841 30.8618 93.1567 29.5083 92.8279 29.0001C92.8204 28.9373 93.5703 31.0383 93.8659 31.4295C93.9267 31.5114 93.9267 31.5114 93.8905 31.5285ZM90.5644 23.3229C90.515 23.125 90.3326 22.8794 90.1518 22.9649C90.0614 23.0076 90.0594 23.097 90.1468 23.1884C90.2514 23.316 90.3845 23.3636 90.5644 23.3229ZM97.2334 35.3239L96.8829 34.5825C96.1692 34.8978 95.8986 34.1851 95.6925 33.7959C95.8832 34.48 96.4374 34.9037 96.9155 35.5405C97.0154 35.4712 97.1334 35.3932 97.2334 35.3239ZM91.8521 23.7538C91.9941 23.3991 91.6966 23.0973 91.6035 22.8537C91.5253 23.1562 91.6078 23.4711 91.8521 23.7538ZM96.912 27.5781C96.9301 27.5696 97.2043 27.3072 97.3499 27.1941C97.2539 27.0847 97.1921 27.0475 97.1198 27.0817C96.938 27.2119 96.9311 27.5249 96.912 27.5781ZM100.987 30.6292C100.997 30.6026 101.073 30.3895 101.073 30.3895C101.073 30.3895 100.432 30.2502 100.387 30.2492C100.526 30.4491 100.526 30.4491 100.987 30.6292ZM104.564 31.9248C105.333 31.5391 104.872 31.359 103.629 31.3047C103.602 31.3399 103.741 31.4951 103.924 31.7407C104.072 31.9139 104.347 32.0273 104.564 31.9248ZM109.844 22.3709C109.275 22.3579 108.741 22.4596 108.203 22.4789C108.089 22.451 108.023 22.304 108.011 22.2658C107.99 20.7027 108.643 19.56 109.913 18.7919C110.887 18.2195 111.924 17.9838 113.096 17.9157C114.415 17.7814 115.606 18.5235 116.327 19.6407C116.866 20.4375 117.222 21.7298 117.578 22.7502C117.936 23.7073 118.103 24.9953 119.051 25.561C119.32 25.6874 119.716 25.5446 120.048 25.6724C120.4 25.7943 120.532 26.3604 120.043 26.4694C118.94 26.8301 117.824 27.2158 116.618 27.106C115.801 27.7136 115 28.4418 113.981 28.7348C108.997 30.0822 108.291 23.5817 112.876 22.5668C113.359 22.4386 113.812 22.2782 114.233 22.1486C113.94 20.8577 113.268 18.9508 111.775 19.2646C110.394 19.6063 110.347 20.5415 110.705 21.7707C110.715 21.8721 110.795 21.9941 110.76 22.1515C110.476 22.3854 110.147 22.4032 109.844 22.3709ZM118.496 26.0671C118.515 26.0612 118.466 26.2436 118.466 26.2436L118.53 26.245C118.518 26.2068 118.527 26.0994 118.509 26.0421C118.509 26.0421 118.465 26.0348 118.496 26.0671ZM112.075 28.2547C112.094 27.9768 111.757 27.7667 111.641 27.5932C111.64 27.6564 111.553 28.3946 112.075 28.2547ZM111.54 24.82C111.53 24.7185 111.565 24.2892 111.565 24.2892C111.391 24.4054 111.186 24.5525 111.05 24.657C111.189 24.6981 111.377 24.7657 111.54 24.82ZM117.293 23.8634C117.302 23.484 116.986 23.2048 116.686 23.0461C116.686 23.0461 116.84 23.7518 116.865 23.765C117.007 23.9517 117.166 23.9237 117.335 23.9972C117.335 23.9972 117.316 24.0031 117.293 23.8634ZM115.865 21.3319C115.853 21.2937 115.993 21.8156 116.085 21.6406C116.151 21.5156 115.84 21.3187 115.865 21.3319ZM114.573 19.4488C114.407 19.2489 114.382 19.2356 114.123 19.2108C114.201 19.396 114.479 19.415 114.573 19.4488ZM115.815 26.5372C115.335 25.3875 114.911 24.2834 114.438 23.1528C114.063 23.2265 113.624 23.2987 113.217 23.4033C110.589 24.6528 113.758 29.0966 115.815 26.5372ZM109.865 21.4225C109.701 21.4314 109.545 21.605 109.524 21.6741L109.967 21.6842C109.967 21.6842 109.884 21.4166 109.865 21.4225ZM126.747 15.6543C129.65 14.3527 132.204 13.8606 133.409 17.7543C133.899 19.4564 134.377 21.2013 134.41 22.9604C133.543 23.3502 132.307 23.4777 131.406 23.4271C131.284 23.184 131.257 22.9046 131.236 22.6646C131.177 20.8695 130.68 19.1279 130.285 17.3894C129.906 15.5062 128.055 15.7173 126.996 16.7684C126.901 17.2914 127.086 17.7875 127.196 18.3166C127.496 20.2131 127.957 21.9811 128.323 23.9071C128.439 24.4757 128.295 24.7028 127.749 24.8355C126.987 25.0048 126.214 25.115 125.35 25.2812C124.626 21.9553 124.287 18.5036 123.438 15.2799C124.059 14.8709 125.62 14.6276 126.468 14.606C126.633 14.9838 126.66 15.3849 126.747 15.6543ZM124.188 15.5184C124.172 15.7847 124.262 16.0739 124.417 16.2708C124.443 16.1853 124.593 15.7542 124.507 15.6064C124.441 15.4553 124.297 15.5609 124.188 15.5184ZM125.751 23.9356C125.789 24.3958 125.729 24.4058 126.351 24.3617C126.318 24.2862 125.755 23.9553 125.755 23.9553C125.755 23.9553 125.748 23.9158 125.751 23.9356ZM125.506 15.3972C125.678 15.5711 125.777 15.7977 126.004 15.8203C125.974 15.5211 125.861 15.0939 125.506 15.3972ZM127.228 22.7126C127.32 22.5348 126.889 20.5794 126.8 20.5336C126.757 20.5205 126.199 20.8176 126.41 21.3498C126.556 21.7309 127.057 22.5387 127.228 22.7126ZM131.316 18.4525C131.516 19.5141 131.692 20.316 131.711 20.0694C131.742 19.2933 131.648 18.2545 131.22 17.8806C131.233 17.9595 131.273 18.1962 131.316 18.4525ZM132.771 22.2635C132.988 22.1052 133.198 22.0291 133.313 21.9894C132.207 21.5676 131.872 21.5026 132.018 22.0053C132.038 22.1237 132.514 22.1851 132.771 22.2635ZM132.033 16.6886C132.068 16.2973 131.732 16.1106 131.409 15.8811C131.367 16.1114 131.878 16.4917 132.033 16.6886ZM147.817 20.1361C148.01 22.5906 145.478 23.3863 143.48 23.4814C141.941 23.5393 140.626 23.1485 139.41 22.2135C139.683 21.5027 139.918 20.8334 140.195 20.2226C140.269 20.0597 140.385 19.9552 140.545 19.9492C140.885 19.9364 141.021 20.3516 141.188 20.5455C141.988 21.5962 143.098 22.355 144.372 21.6466C145.549 21.022 145.375 19.5875 144.27 18.9286C143.12 18.1712 141.726 17.8034 140.539 17.1275C139.173 16.4583 139.07 13.7203 140.24 12.8957C141.095 12.2031 141.942 11.851 142.938 11.7335C144.753 11.5452 146.456 12.1416 147.933 13.6272C147.841 14.3711 147.441 14.9265 147.1 15.4197C147.101 15.4397 147.044 15.5419 146.984 15.5442C146.525 15.5614 146.39 15.1862 146.361 14.9272C145.803 12.3263 142.142 12.3839 142.167 15.1849C142.249 16.2826 144.949 16.7615 145.846 17.2081C146.964 17.6664 147.753 18.9577 147.817 20.1361ZM146.924 21.3905C146.567 21.484 146.47 21.5677 146.245 21.9565C146.603 21.903 146.623 21.9022 146.924 21.3905ZM146.7 14.374C146.501 14.4015 146.834 14.7492 146.896 14.7869C146.992 14.6833 147.165 14.4966 147.104 14.4789C146.984 14.4634 146.78 14.371 146.7 14.374ZM140.253 14.2962C140.35 14.2125 140.385 14.0911 140.342 14.0127C140.19 14.2185 140.23 14.237 140.253 14.2962ZM141.556 14.8877C141.685 14.6026 141.691 14.2221 141.74 13.9201C141.567 14.1067 141.508 14.6893 141.556 14.8877ZM142.256 12.7399C142 12.8695 141.861 12.8948 141.872 13.1946C142.145 12.9842 142.185 12.9827 142.256 12.7399ZM142.18 17.1258C142.223 17.2042 142.874 17.48 142.996 17.5354C142.896 17.5192 142.263 17.1827 142.18 17.1258ZM144.379 18.1039C144.399 18.1031 144.456 18.0409 144.436 18.0417C144.334 17.9855 144.191 17.8908 143.995 18.0182C144.074 17.9952 144.316 18.0462 144.379 18.1039ZM145.695 19.5755C145.711 19.4748 145.644 19.2972 145.501 19.2025L145.502 19.2225C145.61 19.4386 145.716 19.5947 145.695 19.5755ZM140.384 22.0368C140.404 22.036 140.627 22.1077 140.586 22.0892C140.607 22.1284 140.378 21.8969 140.358 21.8976C140.359 21.9176 140.361 21.9776 140.384 22.0368ZM140.531 21.1706C140.613 21.2276 140.813 21.2001 140.872 21.1978C140.851 21.1586 140.698 20.8041 140.696 20.7641C140.577 20.7886 140.405 20.9953 140.531 21.1706ZM155.254 15.7659C154.732 15.5407 154.199 15.4351 153.692 15.2515C153.598 15.1833 153.592 15.0222 153.595 14.9823C154.161 13.525 155.194 12.7097 156.659 12.4731C157.777 12.3074 158.826 12.477 159.938 12.8527C161.212 13.222 162.039 14.3562 162.289 15.6622C162.49 16.6026 162.336 17.9344 162.284 19.0139C162.258 20.0353 161.93 21.292 162.598 22.1718C162.8 22.3898 163.22 22.4055 163.48 22.6484C163.761 22.8931 163.672 23.4676 163.177 23.3853C162.019 23.3069 160.84 23.2466 159.763 22.6933C158.778 22.9506 157.762 23.3259 156.708 23.216C151.582 22.599 153.362 16.3073 157.993 17.0829C158.489 17.1452 158.969 17.166 159.408 17.2033C159.619 15.8966 159.711 13.8771 158.208 13.6086C156.8 13.4085 156.407 14.2582 156.278 15.5319C156.25 15.6298 156.278 15.7727 156.186 15.9054C155.835 16.0161 155.523 15.9092 155.254 15.7659ZM161.893 22.433C161.913 22.4347 161.8 22.5856 161.8 22.5856L161.858 22.6107C161.861 22.5708 161.909 22.4746 161.915 22.4148C161.915 22.4148 161.876 22.3915 161.893 22.433ZM155.12 22.0572C155.242 21.8066 155.008 21.4856 154.966 21.2813C154.941 21.3394 154.584 21.9915 155.12 22.0572ZM155.91 18.672C155.939 18.5741 156.132 18.1891 156.132 18.1891C155.928 18.2319 155.682 18.2912 155.517 18.3374C155.63 18.4273 155.779 18.5605 155.91 18.672ZM161.603 19.9395C161.753 19.5909 161.565 19.2136 161.346 18.9541C161.346 18.9541 161.225 19.6664 161.243 19.688C161.304 19.914 161.462 19.9475 161.591 20.079C161.591 20.079 161.572 20.0773 161.603 19.9395ZM161.226 17.0571C161.23 17.0172 161.164 17.5536 161.316 17.426C161.424 17.3348 161.208 17.0355 161.226 17.0571ZM160.734 14.8273C160.655 14.5797 160.636 14.558 160.406 14.438C160.409 14.639 160.659 14.7607 160.734 14.8273ZM159.231 21.8652C159.217 20.6195 159.237 19.437 159.221 18.2112C158.846 18.1391 158.413 18.042 157.996 17.9864C155.091 18.1606 156.365 23.4679 159.231 21.8652ZM155.63 14.8946C155.474 14.8412 155.264 14.9438 155.219 15.0001L155.626 15.1753C155.626 15.1753 155.65 14.8963 155.63 14.8946ZM169.051 24.4662C169.074 24.1445 169.05 23.8543 169.104 23.5797C169.72 20.9901 170.285 18.3496 170.752 15.6896C170.834 15.0737 171.293 14.92 171.807 15.1037C172.321 15.1853 172.984 15.3374 173.553 15.4503C173.671 15.9836 173.464 16.5134 173.331 16.9764C173.062 17.8201 173.039 18.7536 172.833 19.5894C172.611 20.6056 172.53 21.6294 172.272 22.6182C172.05 23.4304 172.118 24.3207 171.581 25.0706L171.287 25.0122C170.553 24.8053 169.816 24.7201 169.051 24.4662ZM172.481 17.868C172.387 18.0328 172.396 18.5035 172.341 18.8801C172.31 19.1391 172.154 19.3119 172.177 19.3981C172.451 18.9427 172.502 18.3818 172.481 17.868ZM171.239 24.2278C170.944 23.8634 170.929 23.8399 170.716 23.2676L170.541 24.1503C170.501 24.1425 170.521 24.1464 170.541 24.1503C170.819 24.2872 171.086 24.381 171.239 24.2278ZM171.537 15.7434C171.404 15.9005 171.263 16.1988 171.373 16.2614C171.679 16.2609 172.345 15.9855 172.431 15.7578C172.314 15.7345 172.161 15.6837 171.984 15.6486C171.768 15.6058 171.666 15.6059 171.537 15.7434ZM169.935 22.7862C169.861 23.1589 169.602 23.6378 169.779 23.8768C170.112 23.3312 170.138 22.48 170.114 21.9858C170.091 22.1035 170.044 22.4409 169.935 22.7862ZM173.001 10.5286C175.162 10.8354 174.539 14.2801 172.42 13.6555C172.417 13.6751 172.338 13.6595 172.318 13.6556C169.713 13.22 170.882 10.2099 173.001 10.5286ZM171.881 11.8559C172.037 11.7851 172.884 11.423 172.515 11.2274C172.284 11.1611 171.849 11.7069 171.881 11.8559ZM172.553 12.9885C172.989 13.1566 173.232 13.266 173.482 12.7244C173.18 12.8072 172.874 12.9096 172.553 12.9885ZM181.191 18.138C182.915 17.408 185.099 18.1269 186.679 18.9673C187.377 17.6366 187.634 15.9762 188.166 14.5084C188.336 13.975 188.405 13.4301 188.97 13.0436C189.02 13.0176 191.338 13.7792 191.376 13.7913C191.498 13.872 191.392 14.0062 191.418 14.0565C190.364 17.8141 188.987 21.4683 187.921 25.2008C187.708 25.9309 187.509 26.6861 187.234 27.4169C187.063 27.8871 186.879 28.3954 186.879 28.9204C186.891 29.344 186.426 29.6155 186.071 29.4808C184.081 28.6772 183.602 29.3221 184.288 27.0428C180.336 26.6623 177.191 24.4817 179.237 20.1802C179.701 19.3838 180.309 18.4653 181.191 18.138ZM179.49 22.7387C179.728 22.5839 179.545 22.0423 179.497 21.7962C179.228 22.0462 179.298 22.5514 179.49 22.7387ZM180.444 20.1461C180.588 20.0241 180.589 19.6256 180.588 19.4991C180.455 19.5198 180.306 19.7241 180.277 19.9458C180.253 20.022 180.444 20.1461 180.444 20.1461ZM185.572 26.0463C185.755 25.9997 185.843 25.9859 185.83 25.9608C185.982 25.4213 185.972 25.1241 185.965 25.1432C185.592 25.1289 185.55 25.7872 185.572 26.0463ZM186.69 23.401C186.956 22.898 186.941 21.6964 187.11 21.0997C186.937 21.3802 186.445 23.0499 186.69 23.401ZM185.639 28.3983C185.882 28.5597 186.319 28.6365 186.169 28.2525C185.987 27.9006 185.983 27.5212 185.819 27.1121C185.819 27.1121 185.775 27.119 185.813 27.1311C185.761 27.4923 185.685 27.9929 185.639 28.3983ZM188.455 20.8994L188.6 20.9039C188.744 20.257 188.73 20.1686 188.717 20.1434C188.743 20.1305 188.679 20.1313 188.685 20.1122C188.661 20.1884 188.461 20.8804 188.455 20.8994ZM190.744 14.3242C190.464 14.1507 189.33 13.4944 189.233 13.8625C189.234 13.9258 189.401 14.1261 189.51 14.2449C189.734 14.4634 190.423 14.9355 190.548 14.8074C190.567 14.8135 190.725 14.3182 190.744 14.3242ZM180.568 22.9782C180.587 22.9843 180.587 22.9843 180.536 22.9469C180.511 22.9599 180.536 22.9469 180.536 22.9469C180.536 22.9469 180.581 23.0033 180.568 22.9782ZM181.918 19.1472L182.111 19.3978C182.186 19.2957 182.336 19.2179 182.393 19.1729C182.208 19.093 181.936 19.0268 181.918 19.1472ZM181.162 25.3932C181.098 25.394 181.13 25.4252 181.192 25.298C181.203 25.1966 181.107 25.0397 181.062 24.9833C181.062 24.9833 180.957 25.244 180.938 25.2379C181.027 25.2874 181.104 25.375 181.162 25.3932ZM186.479 20.1842C186 19.8423 185.473 19.6529 184.882 19.4642C183.662 19.0115 182.702 19.6497 182.07 20.7076C181.069 22.0674 181.018 23.5418 181.906 25.2321C182.422 26.0478 183.7 26.0571 184.604 26.0521L186.479 20.1842ZM198.043 23.2596C201.826 22.2818 205.592 25.6174 204.391 29.5804C203.446 33.0887 200.161 35.5106 196.725 33.6507C191.837 31.7346 193.775 24.5199 198.043 23.2596ZM202.683 31.1244C202.593 31.127 202.419 31.311 202.457 31.3725C202.51 31.3531 202.644 31.3492 202.66 31.2682C202.684 31.1691 202.683 31.1244 202.683 31.1244ZM194.62 30.4906C194.734 30.4336 194.714 30.3357 194.7 30.1751C194.668 30.006 194.637 29.8369 194.521 29.8492C194.464 30.0656 194.497 30.2794 194.62 30.4906ZM195.534 28.0928C195.643 28.1433 196.752 25.9457 196.918 25.8245C196.491 26.2217 196.284 26.4783 195.994 26.9609C195.959 26.9888 195.534 28.0928 195.534 28.0928ZM195.546 31.5822C195.642 31.472 195.511 31.279 195.378 31.3276C195.336 31.4183 195.457 31.5848 195.546 31.5822ZM199.476 33.1861C200.031 33.1789 200.109 32.774 200.254 32.555C200.316 32.5174 200.176 32.6289 200.028 32.7585C199.826 32.9075 199.616 33.0746 199.476 33.1861ZM202.323 29.2378C202.123 29.4316 201.172 31.4815 201.163 31.4996C201.531 31.2294 201.736 30.8834 202.059 30.2835C202.193 29.9933 202.365 29.4335 202.323 29.2378ZM203.467 26.1086C203.441 26.1183 202.816 25.8501 202.789 25.8599C202.722 26.005 202.892 26.6353 202.928 26.6522C203.209 26.7604 203.467 26.1086 203.467 26.1086ZM200.037 31.8365C201.304 30.4844 203.457 25.751 201.29 24.767C199.473 23.8355 198.377 24.9142 197.456 26.4711C196.173 28.1906 194.976 31.3393 197.215 32.6433C198.212 33.1065 199.281 32.6101 200.037 31.8365Z" fill="#209F4B"/>
<path d="M150 236.5C157.456 236.5 163.5 242.544 163.5 250C163.5 257.456 157.456 263.5 150 263.5C142.544 263.5 136.5 257.456 136.5 250C136.5 242.544 142.544 236.5 150 236.5Z" stroke="#209F4B" stroke-width="3"/>
<path d="M118.768 180.824V95.576C118.768 94.1253 119.493 93.4 120.944 93.4C122.395 93.4 123.12 94.1253 123.12 95.576V125.528C123.12 128.259 123.931 129.624 125.552 129.624C126.405 129.624 127.472 129.112 128.752 128.088L169.84 94.168C170.352 93.656 171.077 93.4 172.016 93.4H174.064C176.283 93.4 176.539 94.1253 174.832 95.576L129.392 132.952C128.453 133.72 127.941 134.573 127.856 135.512C127.856 136.451 128.325 137.347 129.264 138.2L178.672 180.824C179.44 181.507 179.739 182.061 179.568 182.488C179.397 182.829 178.843 183 177.904 183H175.728C174.96 183 174.192 182.701 173.424 182.104L128.88 143.192C127.685 142.083 126.576 141.528 125.552 141.528C123.931 141.528 123.12 142.936 123.12 145.752V180.824C123.12 182.275 122.395 183 120.944 183C119.493 183 118.768 182.275 118.768 180.824Z" fill="#209F4B"/>
<line x1="120" y1="166" x2="158" y2="166" stroke="#209F4B" stroke-width="4"/>
<path d="M242.49 227C259.676 233.022 270 240.742 270 249.159C270 268.401 216.05 284 149.5 284C82.9497 284 29 268.401 29 249.159C29 240.742 39.3236 233.022 56.5096 227" stroke="#209F4B" stroke-width="3" stroke-linecap="round"/>
</svg>
