<svg width="63" height="2" viewBox="0 0 63 2" fill="none" xmlns="http://www.w3.org/2000/svg">
<path d="M0.600078 0.0101699C0.953113 -0.015883 1.41588 0.0119737 1.76758 0.0502087C1.87781 0.0620673 1.82199 0.115075 1.89808 0.125648C2.04689 0.146258 2.18553 0.120261 2.33259 0.144813C2.38133 0.153209 2.32066 0.237174 2.37176 0.244056C2.6518 0.281163 2.91673 0.259777 3.20041 0.277625C4.59774 0.365685 5.97127 0.397205 7.38569 0.435461C7.85207 0.448004 8.419 0.524206 8.90071 0.490881C8.95695 0.486916 8.92342 0.413216 8.93412 0.407141C9.10193 0.31415 9.04613 0.462935 9.1557 0.482702C9.59056 0.560754 10.0741 0.567542 10.4926 0.539099C10.6707 0.526782 10.4922 0.380395 10.6714 0.462561C10.6839 0.468112 10.6387 0.546377 10.6875 0.554724C10.7983 0.573498 11.0084 0.559509 11.0942 0.56571C11.2596 0.578057 11.2869 0.577269 11.4434 0.578161C11.6572 0.580061 11.9116 0.618966 12.141 0.601232C12.19 0.597215 12.1252 0.516985 12.2033 0.503332C12.2815 0.489702 12.4883 0.496505 12.558 0.515417C12.6277 0.534339 12.598 0.597399 12.6104 0.611853C12.7119 0.733849 12.9512 0.564884 12.9819 0.560705C13.5432 0.489506 14.0244 0.58576 14.5513 0.585485C14.9512 0.585073 15.3788 0.553296 15.7594 0.557653C16.2128 0.563155 16.597 0.606631 17.0374 0.599157C17.0839 0.598461 17.0295 0.50413 17.0862 0.503088C17.6894 0.492111 18.2884 0.502394 18.8889 0.566076C18.9491 0.572546 18.8715 0.655368 18.9317 0.666784C19.3001 0.734849 19.883 0.898357 20.1018 0.537756C20.3514 0.551837 20.6544 0.566385 20.8776 0.639074C21.0216 0.685858 20.8818 0.776084 21.0586 0.737584C21.0985 0.729007 21.0466 0.649991 21.1064 0.643102C21.3582 0.614176 21.6333 0.639861 21.8824 0.599035C21.9331 0.590545 21.9193 0.519744 21.9336 0.506994C22.0543 0.403741 22.2551 0.574425 22.2989 0.586828C22.6323 0.679315 22.8758 0.642919 23.1864 0.645178C23.2585 0.645741 23.1733 0.550639 23.2427 0.547766C23.6024 0.534136 23.975 0.54231 24.3273 0.584509C24.4056 0.594124 24.3336 0.675134 24.371 0.683874C24.5361 0.721424 24.5727 0.568417 24.731 0.601477C24.7644 0.60825 24.7456 0.6776 24.7517 0.685217C24.847 0.804778 24.9298 0.635368 24.9543 0.631628C25.2643 0.580523 25.4625 0.757378 25.762 0.732335C25.7978 0.729161 25.717 0.641412 25.8178 0.637853C26.4888 0.61363 27.1985 0.637735 27.8627 0.707922C27.966 0.718716 27.8923 0.784634 27.8988 0.79276C28.0047 0.919728 28.0732 0.749606 28.1069 0.7432C28.3725 0.697082 28.6207 0.839748 28.8012 0.637121C29.9262 0.707439 31.0461 0.593653 32.1619 0.775182C32.1761 0.777285 32.1507 0.86107 32.179 0.864903C32.5198 0.911948 32.4543 0.781731 32.6798 0.622473C32.7366 0.582482 32.9094 0.77476 32.9247 0.788854C32.9804 0.840791 32.9226 0.96544 32.9413 0.975499C33.0956 1.05448 33.0705 0.642259 33.2787 0.642126C33.2852 0.642813 33.2579 0.718688 33.2753 0.726232C33.3296 0.749917 33.3835 0.719767 33.4366 0.745885C33.5582 0.806321 33.6015 1.00663 33.7872 0.89005C33.8107 0.87492 33.7748 0.64109 33.9608 0.652136C34.0349 0.656737 34.3629 0.65273 34.4549 0.667883C34.5467 0.683018 34.4836 0.758369 34.4902 0.761632C34.7376 0.861272 34.6438 0.902568 34.7678 1.05008C34.8917 1.19704 34.8573 0.846531 34.9079 0.807408C34.9585 0.768397 35.1399 0.850607 35.1845 0.879186C35.229 0.907777 35.1735 0.955658 35.2131 0.971837C35.4758 1.07755 35.3284 0.797855 35.415 0.742223C35.6191 0.610497 35.778 0.870438 35.9648 0.895909C36.0154 0.902788 35.9741 0.843585 36.0191 0.838048C36.1974 0.816904 36.3047 0.898013 36.5075 0.823644C36.5407 0.811525 36.7046 0.655241 36.8108 0.769933C36.8258 0.786471 36.7831 0.851248 36.8591 0.865758C36.9726 0.887534 37.1771 0.901692 37.2991 0.88004C37.3892 0.86402 37.286 0.757283 37.3993 0.790441C37.4497 0.805246 37.3563 0.867688 37.451 0.890294C37.5452 0.912893 37.786 0.91015 37.8776 0.907994C37.969 0.905791 37.919 0.824826 37.9264 0.819371C37.9711 0.788126 38.1466 0.749085 38.1621 0.749181C38.9445 0.739297 39.666 0.875772 40.4277 0.830602C40.4875 0.827174 40.4476 0.741795 40.4568 0.740392C40.6614 0.70462 40.5001 0.931622 40.643 1.0076C40.6224 0.834345 40.7068 0.865716 40.8509 0.846715C40.9204 0.837418 40.8825 0.770331 40.8889 0.763463C40.9919 0.661566 41.0636 0.79318 41.0821 0.820104C41.1503 0.919144 41.2246 0.802121 41.271 0.868321C41.3174 0.934027 41.2106 1.03143 41.3489 1.03019C41.3876 0.968165 41.285 0.806089 41.39 0.779821C41.786 0.680461 42.5253 0.807627 42.8437 0.820836C43.1615 0.834035 43.2641 0.822592 43.4493 0.845006C43.7838 0.885533 43.6612 0.765283 43.8689 0.710241C44.0772 0.655205 43.976 0.951079 44.0059 1.01468C44.0353 1.07826 44.0674 1.01281 44.104 1.04776C44.1404 1.08271 44.0615 1.12595 44.1472 1.13907C44.233 1.15218 44.4675 1.03907 44.4979 0.972569C44.5621 0.831672 44.4565 0.683794 44.6834 0.735753C44.6964 0.738837 44.6541 0.816636 44.7041 0.824498C45.101 0.884391 45.5134 0.888103 45.9098 0.941075C45.9643 0.948481 45.9156 1.03503 45.9473 1.04032C46.2777 1.09568 46.1596 0.949745 46.3407 0.787633C46.3 1.00337 46.4002 1.13536 46.6509 1.13663C46.8017 1.13747 46.7758 1.04325 46.8732 0.976842C46.9025 0.956823 47.0092 1.02152 47.0285 0.977208C47.0922 0.83236 46.9918 0.670211 47.2503 0.734777C47.2617 0.737845 47.2255 0.817133 47.2647 0.821935C47.5181 0.853365 47.5484 0.701856 47.8223 0.683508C48.037 0.669111 48.4188 0.761499 48.6632 0.776525C48.6581 1.01907 48.8889 0.963534 48.9826 0.7963C49.1412 0.803147 49.3126 0.793693 49.4659 0.816808C49.5187 0.824689 49.484 0.894913 49.4906 0.902501C49.5927 1.02153 49.6617 0.858831 49.6959 0.852452C50.067 0.790448 50.3694 0.913761 50.7235 0.793248C50.7361 0.788908 50.7565 0.620425 50.8511 0.743444C50.8573 0.751924 50.7403 0.82858 50.9069 0.834508C51.0735 0.840449 51.3876 0.930768 51.619 0.852696C51.675 0.833901 51.8165 0.697128 51.9302 0.803991C51.9453 0.818502 51.9288 0.866823 51.9506 0.893712C52.0213 0.979391 52.0598 0.809097 52.1429 0.95377C52.2259 1.09844 52.3986 1.20678 52.632 1.10697C52.6394 1.10407 52.6946 0.969092 52.768 0.971226C52.8851 0.974749 53.0513 1.00287 53.1736 1.00199C53.2322 1.00152 53.1947 0.917706 53.2049 0.916173C53.5986 0.869207 53.8788 0.943925 54.3005 0.976353C54.3779 0.982464 54.6 0.868173 54.7497 0.958531C54.9141 1.05745 54.7452 1.46891 55.1229 1.37088C55.2753 1.33167 55.4682 0.809653 55.742 1.08011C56.2731 1.01309 56.7642 1.15151 57.2967 1.05582C57.3206 1.05158 57.3964 0.905889 57.4527 0.907872C57.5362 0.911098 57.5821 0.979192 57.6418 0.983678C57.8919 1.00419 58.1207 0.945929 58.3618 0.954991C58.4534 0.958284 58.4213 1.02869 58.5305 1.03263C58.6396 1.0365 58.7124 0.943782 58.8602 0.98856C58.9719 1.02269 59.0836 1.2122 59.2318 1.23429C59.2374 1.04736 59.3392 1.05121 59.5202 1.00187C59.555 0.992292 59.5177 0.927231 59.5341 0.919347C59.6011 0.885814 59.663 0.939735 59.7266 0.903233C59.7421 0.894467 59.7428 0.83063 59.7555 0.81986C59.863 0.725848 60.0401 0.869442 60.0705 0.894444C60.1871 0.989396 60.2416 0.906369 60.331 0.943761C60.4203 0.981147 60.2868 1.02788 60.3911 1.05057C60.6073 1.0975 60.8851 1.08719 61.1047 1.09012C61.1923 1.0909 61.1325 1.00569 61.145 1.00382C61.3262 0.982207 61.5094 1.07285 61.6098 0.903111C61.7354 1.34199 61.7191 0.860543 61.978 0.948399C61.9984 0.955505 62.0244 1.16305 61.946 1.19352C61.8677 1.22396 61.749 1.15908 61.6403 1.20658C61.6146 1.21772 61.4672 1.4122 61.4471 1.42398C61.2896 1.51605 61.2673 1.20591 61.2589 1.18888C61.1644 1.00505 60.9843 1.21456 60.9369 1.22904C60.7199 1.29537 60.5356 1.25176 60.3541 1.29911C60.2354 1.32971 60.2238 1.53286 60.1306 1.52664C59.8208 1.50609 59.7126 1.22269 59.4207 1.46842C59.3581 1.52083 59.4203 1.74287 59.196 1.56827C59.1819 1.55726 59.0154 1.39754 58.9191 1.49857C58.9071 1.51131 58.9074 1.57602 58.8915 1.58145C58.7847 1.61662 58.7134 1.56506 58.5971 1.58975C58.4807 1.61445 58.3409 1.65125 58.208 1.62931C58.128 1.61618 58.0252 1.49562 57.9869 1.4661C57.8787 1.38107 57.7627 1.52048 57.6956 1.41751C57.628 1.31403 57.7602 1.15687 57.5829 1.09C57.5764 1.25812 57.5613 1.43069 57.5507 1.59976C57.1622 1.59384 56.78 1.53948 56.3902 1.54691C56.3418 1.548 56.3913 1.63838 56.3395 1.64188C56.1209 1.65624 55.93 1.59181 55.7033 1.61746C55.5279 1.63767 55.3355 1.73337 55.152 1.75748C55.04 1.5651 54.7677 1.63041 54.5699 1.61283C54.5007 1.60675 54.5053 1.55537 54.456 1.53861C54.2702 1.47661 54.3573 1.64662 54.3063 1.67337C54.0877 1.78756 54.069 1.40276 53.8112 1.41227C53.7976 1.41264 53.6307 1.61775 53.6077 1.63053C53.4616 1.71382 53.5835 1.55913 53.4921 1.54398C53.3252 1.51628 53.2092 1.4673 53.0133 1.52738C52.9562 1.54517 52.8193 1.67302 52.7084 1.57413C52.6938 1.56118 52.7019 1.49338 52.6901 1.48941C52.4776 1.42323 52.472 1.63626 52.3505 1.70841C52.2291 1.78054 52.0414 1.63348 52.0033 1.5911C51.9034 1.48145 52.0798 1.54424 52.0852 1.53348C52.1487 1.40543 52.0119 1.42748 51.9074 1.41666C51.8922 1.20778 51.746 1.22032 51.799 1.40628C51.805 1.4266 51.8864 1.40712 51.9074 1.41666C51.8156 1.6216 51.6549 1.64784 51.4774 1.45633C51.3943 1.36657 51.4729 1.26192 51.2205 1.3002C51.106 1.31749 51.1502 1.46131 51.0492 1.50052C50.8182 1.58999 50.5182 1.45582 50.2801 1.47696C50.1937 1.48464 50.2779 1.56336 50.2188 1.57132C50.0621 1.59269 49.9239 1.53362 49.7665 1.56388C49.7523 1.56672 49.7871 1.64913 49.7382 1.65018C49.3672 1.65975 49.0441 1.60696 48.6567 1.6055C48.4695 1.60483 48.1349 1.65028 47.941 1.64115C47.605 1.62579 47.1916 1.50595 46.9045 1.53507C46.7173 1.5537 46.7583 1.63613 46.6781 1.69229C46.5233 1.80116 46.2493 1.60616 46.2124 1.57596C46.2112 1.57496 46.3723 1.55553 46.2864 1.51322C46.2364 1.42505 46.2142 1.57558 46.2124 1.57596C46.1881 1.55645 45.8663 1.53774 45.8024 1.5535C45.7676 1.56211 45.7871 1.64021 45.7689 1.64322C45.3386 1.71311 44.9075 1.73296 44.4709 1.69644C44.4633 1.69487 44.4748 1.60751 44.4568 1.60489C44.2041 1.56605 44.0423 1.67291 43.8338 1.73636C43.6255 1.79978 43.4602 1.77854 43.3368 1.62857C43.1796 1.64745 42.954 1.58116 42.8242 1.54093C42.6944 1.5007 42.6763 1.67074 42.6649 1.6741C42.3087 1.7817 42.1027 1.68437 41.7331 1.66922C41.5574 1.66173 41.2089 1.68639 41.0187 1.70499C40.8683 1.71997 40.7777 1.68012 40.6392 1.7056C40.6204 1.709 40.6394 1.78471 40.6337 1.78763C40.479 1.87822 40.5533 1.69312 40.5214 1.66007C40.4057 1.53985 40.3342 1.47583 40.1362 1.53238C40.0905 1.54533 39.9575 1.81184 39.8742 1.82742C39.766 1.8472 39.8068 1.75167 39.6935 1.77481C39.6838 1.77671 39.6858 1.83564 39.6159 1.83304C39.2912 1.82175 38.9372 1.78746 38.5998 1.79337C38.5537 1.79395 38.6128 1.88742 38.5462 1.8898C38.2337 1.90088 37.8912 1.89742 37.5868 1.85367C37.5119 1.84261 37.5588 1.77716 37.5426 1.75772C37.4427 1.64014 37.3011 1.81099 37.2777 1.81424C36.7204 1.89634 36.2938 1.74173 35.7257 1.81534C35.6948 1.81966 35.4567 2.00281 35.3506 1.84574C35.3433 1.83528 35.2382 1.67458 35.1453 1.78446C35.1395 1.79133 35.205 1.87407 35.0908 1.86563C34.9765 1.85722 34.7926 1.91247 34.6356 1.82157C34.5859 1.79293 34.4684 1.63262 34.32 1.76041C34.3104 1.76933 34.0814 2.05828 33.9997 1.85892C33.9864 1.8261 34.0003 1.61513 33.8233 1.7233C33.7895 1.74427 33.8509 1.79133 33.7618 1.82071C33.6252 1.866 33.4444 1.80949 33.2765 1.90347C33.2473 1.92011 33.1227 2.06331 33.0228 1.95462C33.0071 1.9376 33.0368 1.86717 32.9841 1.85929C32.7331 1.82148 32.4703 1.86859 32.2155 1.81986C32.1253 1.80273 32.1714 1.68887 32.0773 1.65836C31.9832 1.62786 31.7936 1.59851 31.6952 1.65055C31.5967 1.7026 31.7043 1.88407 31.5568 1.89859C30.9154 1.96166 30.2801 1.8552 29.6397 1.83963C29.5447 1.83731 29.6234 1.90224 29.4835 1.90347C28.9674 1.90831 28.0764 1.96919 27.6286 1.83121C27.2698 1.72069 27.7214 1.63656 27.4472 1.59159C27.3149 1.57013 27.1717 1.78111 27.1398 1.78775C26.8278 1.85522 26.611 1.76176 26.3301 1.79044C26.2722 1.79639 26.329 1.8819 26.2797 1.88602C26.1111 1.90085 25.9339 1.86268 25.7728 1.86966C25.7006 1.87299 25.7139 1.9383 25.6474 1.93326C25.4883 1.92195 25.3476 1.8945 25.1924 1.83328C25.1783 1.82771 25.2736 1.74646 25.1559 1.74344C24.9654 1.73878 24.7289 1.67839 24.5097 1.74076C24.4446 1.75951 24.4421 1.90878 24.3023 1.8057C24.2729 1.78417 24.3104 1.60493 24.1475 1.7598C24.1201 1.78553 23.8465 1.99442 23.7123 1.85977C23.6768 1.82434 23.5865 1.67767 23.5082 1.70072C23.4976 1.70439 23.5401 1.78457 23.4753 1.79239C23.2469 1.81856 23.0075 1.81 22.7728 1.83512C22.7102 1.84198 22.8035 1.92495 22.7101 1.93253C22.4533 1.9535 22.1326 1.93237 21.8815 1.9064C21.7889 1.89667 21.8529 1.82795 21.8461 1.82047C21.7378 1.69882 21.6737 1.86302 21.6378 1.87259C21.4141 1.92992 21.2438 1.85279 21.0377 1.8732C20.9808 1.87863 21.0211 1.95692 21.0098 1.9639C20.8924 2.03211 20.9798 1.89151 20.9055 1.87601C20.6972 1.83212 20.4651 1.83842 20.2545 1.84842C20.1771 1.85221 20.264 1.94299 20.1946 1.94534C19.7837 1.96099 19.3565 1.9523 18.9555 1.90225C18.88 1.89267 18.9275 1.82276 18.9117 1.80679C18.8033 1.69509 18.6443 1.84746 18.6077 1.86197C18.4414 1.92824 18.3768 1.86642 18.2299 1.87796C17.5124 1.93541 16.6265 1.89447 15.9492 1.86917C15.0667 1.83662 14.3818 1.77012 13.5402 1.78739C13.4867 1.7884 13.5407 1.88139 13.4946 1.88345C12.8992 1.90587 12.3131 1.86953 11.7166 1.89639C11.6677 1.89843 11.7382 1.98659 11.6597 1.99283C11.4985 2.00624 11.2944 2.00145 11.1314 1.9733C11.0519 1.95974 11.1585 1.88409 11.0786 1.87198C10.8923 1.84362 10.6926 1.83734 10.5013 1.85147C10.4199 1.85768 10.5427 1.94784 10.4369 1.94888C9.71598 1.95783 9.00797 1.97336 8.27947 1.8566C8.22953 1.84858 8.18571 1.66533 8.07952 1.70047C8.07152 1.75133 8.07196 1.81115 8.06846 1.86551C7.01901 1.89479 5.98027 1.83127 4.92788 1.82144C4.8835 1.82105 4.96019 1.91815 4.87428 1.91788C4.37709 1.91644 3.89428 1.94334 3.3857 1.84683C3.33524 1.8374 3.36113 1.66658 3.21243 1.69242C3.1862 1.69713 2.96223 1.71991 2.90433 1.75699C2.89646 1.76258 2.93732 1.84231 2.86515 1.84464C2.44576 1.85674 2.00625 1.83854 1.58758 1.78983C1.52001 1.78181 1.59197 1.69691 1.54384 1.69046C1.20245 1.64539 0.831121 1.70993 0.504909 1.63285C0.286554 1.58094 0.367396 1.43417 0.251365 1.28971C0.234953 1.26932 0.0997416 1.26609 0.0927493 1.18204C0.0747982 0.970681 0.140291 0.739242 0.113417 0.513952C0.10774 0.465427 -0.0733437 0.517692 0.0338694 0.400427C0.0413593 0.392579 0.172646 0.35366 0.204982 0.31388C0.227495 0.286376 0.186925 0.200894 0.23286 0.165687C0.27879 0.130513 0.329262 0.202169 0.405414 0.160804C0.481532 0.118927 0.448062 0.0216813 0.600078 0.0101699ZM42.2398 1.36112C42.1196 1.27946 42.1018 1.57855 42.2318 1.50699C42.2381 1.50318 42.246 1.36512 42.2398 1.36112ZM56.7821 1.31388C56.625 1.18195 56.5175 1.37593 56.6283 1.47782C56.7392 1.57959 56.83 1.35387 56.7821 1.31388ZM58.4116 1.21756C58.2279 1.11355 58.199 1.53768 58.3957 1.45194C58.4071 1.44709 58.4223 1.2236 58.4116 1.21756ZM0.789456 1.24857C0.787796 1.2446 0.690601 1.24073 0.688278 1.24466C0.636524 1.33965 0.830875 1.34733 0.789456 1.24857ZM60.0285 1.11271C59.9711 1.05533 59.8061 1.12156 59.8773 1.19291C59.9347 1.2503 60.0999 1.18407 60.0285 1.11271ZM35.9699 1.0419C35.968 1.03745 35.8983 1.03343 35.8997 1.05863C35.9044 1.13977 36.0014 1.11687 35.9699 1.0419ZM62.7766 1.10782C62.3706 1.09186 62.1244 0.741508 62.5666 0.781041C62.6466 0.788194 62.394 0.892765 62.4959 0.924351C62.6824 0.981896 62.8062 0.761919 62.9965 0.879796C63.0309 0.901371 62.7998 1.10951 62.7759 1.10831C62.7761 1.10815 62.7764 1.10799 62.7766 1.10782ZM42.1705 1.00187C42.1681 0.997911 42.0717 0.994161 42.0694 0.998082C42.0171 1.09304 42.2115 1.10065 42.1705 1.00187ZM31.9038 0.856969C31.8985 0.848541 31.6746 0.840659 31.6673 0.848424C31.5505 1.0037 32.0031 1.0201 31.9038 0.856969ZM48.667 0.782995C48.7723 0.68747 48.8982 0.676223 48.9821 0.796178C48.8775 0.78981 48.7722 0.788872 48.667 0.782995Z" fill="#2B2B2B"/>
</svg>
