<svg width="165" height="3" viewBox="0 0 165 3" fill="none" xmlns="http://www.w3.org/2000/svg">
<path d="M1.57163 0.0152547C2.49625 -0.0238245 3.70827 0.0179605 4.62939 0.0753131C4.91807 0.0931008 4.77189 0.172613 4.97117 0.188472C5.36091 0.219388 5.72401 0.180391 6.10917 0.217219C6.23681 0.229814 6.07792 0.355761 6.21177 0.366084C6.9452 0.421745 7.63905 0.389665 8.38203 0.416437C12.0417 0.548528 15.6391 0.595807 19.3435 0.653192C20.5649 0.672006 22.0498 0.786308 23.3114 0.736322C23.4587 0.730373 23.3709 0.619823 23.3989 0.610712C23.8384 0.471225 23.6922 0.694402 23.9792 0.724054C25.1181 0.841131 26.3846 0.851313 27.4807 0.808648C27.947 0.790173 27.4795 0.570593 27.949 0.693841C27.9816 0.702169 27.8633 0.819565 27.9912 0.832086C28.2812 0.860247 28.8314 0.839264 29.0562 0.848565C29.4893 0.867085 29.561 0.865904 29.9707 0.867242C30.5308 0.870092 31.197 0.928449 31.7979 0.901849C31.9262 0.895822 31.7564 0.775478 31.961 0.754998C32.1657 0.734553 32.7074 0.744757 32.89 0.773126C33.0727 0.801509 32.9949 0.896098 33.0272 0.917779C33.2931 1.10077 33.9197 0.847326 34.0003 0.841058C35.4702 0.73426 36.7307 0.878639 38.1105 0.878228C39.1579 0.877609 40.2779 0.829944 41.2746 0.83648C42.462 0.844733 43.4683 0.909946 44.6219 0.898736C44.7436 0.897691 44.601 0.756194 44.7496 0.754632C46.3294 0.738167 47.8981 0.753591 49.471 0.849114C49.6287 0.858819 49.4254 0.983052 49.583 1.00018C50.5479 1.10227 52.0746 1.34754 52.6477 0.806634C53.3013 0.827755 54.0948 0.849578 54.6795 0.958611C55.0565 1.02879 54.6903 1.16413 55.1534 1.10638C55.2579 1.09351 55.1221 0.974986 55.2787 0.964653C55.9382 0.921263 56.6587 0.959791 57.3111 0.898553C57.4438 0.885818 57.4076 0.779616 57.4452 0.760492C57.7612 0.605612 58.2872 0.861638 58.4019 0.880242C59.2752 1.01897 59.9129 0.964379 60.7264 0.967766C60.9152 0.968612 60.692 0.825959 60.8737 0.821649C61.8158 0.801203 62.7918 0.813464 63.7143 0.876763C63.9195 0.891186 63.7308 1.0127 63.8288 1.02581C64.2612 1.08214 64.357 0.852626 64.7717 0.902215C64.8591 0.912374 64.8099 1.0164 64.8258 1.02782C65.0754 1.20717 65.2923 0.953052 65.3564 0.947442C66.1685 0.870784 66.6875 1.13607 67.4719 1.0985C67.5658 1.09374 67.3542 0.962118 67.618 0.95678C69.3754 0.920444 71.2342 0.956602 72.9738 1.06188C73.2442 1.07807 73.0512 1.17695 73.0682 1.18914C73.3456 1.37959 73.5251 1.12441 73.6133 1.1148C74.309 1.04562 74.9589 1.25962 75.4317 0.955681C78.3783 1.06116 81.3113 0.89048 84.2336 1.16277C84.2707 1.16593 84.2041 1.2916 84.2783 1.29736C85.1708 1.36792 84.9994 1.1726 85.59 0.933709C85.7388 0.873723 86.1913 1.16214 86.2314 1.18328C86.3773 1.26119 86.2259 1.44816 86.2748 1.46325C86.679 1.58172 86.6132 0.963388 87.1585 0.963189C87.1756 0.96422 87.1039 1.07803 87.1497 1.08935C87.2919 1.12488 87.4329 1.07965 87.572 1.11883C87.8905 1.20948 88.004 1.50994 88.4904 1.33507C88.5519 1.31238 88.4579 0.961634 88.9448 0.978203C89.1389 0.985106 89.9981 0.979094 90.2389 1.00182C90.4794 1.02453 90.3143 1.13755 90.3315 1.14245C90.9795 1.29191 90.7337 1.35385 91.0584 1.57513C91.3831 1.79556 91.293 1.2698 91.4254 1.21111C91.558 1.1526 92.0331 1.27591 92.1499 1.31878C92.2665 1.36167 92.121 1.43349 92.2248 1.45776C92.9128 1.61632 92.5268 1.19678 92.7535 1.11333C93.288 0.915746 93.7043 1.30566 94.1936 1.34386C94.326 1.35418 94.218 1.26538 94.3359 1.25707C94.8028 1.22536 95.0836 1.34702 95.6149 1.23547C95.7018 1.21729 96.1312 0.982862 96.4092 1.1549C96.4486 1.17971 96.3367 1.27687 96.5357 1.29864C96.833 1.3313 97.3686 1.35254 97.6882 1.32006C97.9241 1.29603 97.6537 1.13593 97.9507 1.18566C98.0826 1.20787 97.838 1.30153 98.086 1.33544C98.3326 1.36934 98.9632 1.36523 99.2032 1.36199C99.4427 1.35869 99.3116 1.23724 99.331 1.22906C99.4482 1.18219 99.9078 1.12363 99.9485 1.12377C101.998 1.10895 103.887 1.31366 105.882 1.2459C106.039 1.24076 105.934 1.11269 105.958 1.11059C106.494 1.05693 106.072 1.39743 106.446 1.5114C106.392 1.25152 106.613 1.29857 106.99 1.27007C107.172 1.25613 107.073 1.1555 107.09 1.1452C107.36 0.992349 107.548 1.18977 107.596 1.23016C107.775 1.37872 107.969 1.20318 108.091 1.30248C108.212 1.40104 107.933 1.54715 108.295 1.54528C108.396 1.45225 108.127 1.20913 108.402 1.16973C109.44 1.02069 111.376 1.21144 112.21 1.23125C113.042 1.25105 113.311 1.23389 113.796 1.26751C114.672 1.3283 114.351 1.14792 114.895 1.06536C115.44 0.982808 115.175 1.42662 115.254 1.52202C115.331 1.61739 115.415 1.51922 115.51 1.57165C115.606 1.62406 115.399 1.68893 115.624 1.70861C115.848 1.72827 116.462 1.55861 116.542 1.45885C116.71 1.24751 116.434 1.02569 117.028 1.10363C117.062 1.10826 116.951 1.22495 117.082 1.23675C118.122 1.32659 119.202 1.33215 120.24 1.41161C120.383 1.42272 120.255 1.55254 120.338 1.56048C121.204 1.64351 120.894 1.42462 121.368 1.18145C121.262 1.50505 121.524 1.70304 122.181 1.70495C122.576 1.70621 122.508 1.56487 122.763 1.46526C122.84 1.43523 123.119 1.53228 123.17 1.46581C123.337 1.24854 123.074 1.00532 123.751 1.10217C123.781 1.10677 123.686 1.2257 123.789 1.2329C124.452 1.28005 124.532 1.05278 125.249 1.02526C125.811 1.00367 126.811 1.14225 127.451 1.16479C127.438 1.52861 128.042 1.4453 128.288 1.19445C128.703 1.20472 129.152 1.19054 129.554 1.22521C129.692 1.23703 129.601 1.34237 129.618 1.35375C129.886 1.5323 130.066 1.28825 130.156 1.27868C131.128 1.18567 131.92 1.37064 132.847 1.18987C132.88 1.18336 132.934 0.930638 133.182 1.11517C133.198 1.12789 132.891 1.24287 133.328 1.25176C133.764 1.26067 134.587 1.39615 135.193 1.27904C135.339 1.25085 135.71 1.04569 136.008 1.20599C136.047 1.22775 136.004 1.30023 136.061 1.34057C136.246 1.46909 136.347 1.21365 136.565 1.43066C136.782 1.64766 137.235 1.81017 137.846 1.66045C137.865 1.6561 138.01 1.45364 138.202 1.45684C138.509 1.46212 138.944 1.5043 139.264 1.50298C139.418 1.50228 139.32 1.37656 139.346 1.37426C140.377 1.30381 141.111 1.41589 142.216 1.46453C142.418 1.4737 143 1.30226 143.392 1.4378C143.823 1.58617 143.38 2.20337 144.37 2.05632C144.769 1.99751 145.274 1.21448 145.991 1.62017C147.382 1.51964 148.668 1.72727 150.063 1.58373C150.125 1.57737 150.324 1.35883 150.471 1.36181C150.69 1.36665 150.81 1.46879 150.967 1.47552C151.622 1.50628 152.221 1.41889 152.852 1.43249C153.092 1.43743 153.008 1.54304 153.294 1.54894C153.58 1.55475 153.771 1.41567 154.158 1.48284C154.45 1.53404 154.743 1.8183 155.131 1.85143C155.146 1.57104 155.412 1.57682 155.886 1.5028C155.977 1.48844 155.88 1.39085 155.923 1.37902C156.098 1.32872 156.26 1.4096 156.427 1.35485C156.467 1.3417 156.469 1.24594 156.502 1.22979C156.784 1.08877 157.248 1.30416 157.328 1.34167C157.633 1.48409 157.776 1.35955 158.01 1.41564C158.244 1.47172 157.894 1.54183 158.167 1.57586C158.733 1.64625 159.461 1.63078 160.036 1.63518C160.265 1.63635 160.109 1.50853 160.142 1.50573C160.616 1.47331 161.096 1.60927 161.359 1.35467C161.688 2.01298 161.645 1.29081 162.323 1.4226C162.377 1.43326 162.445 1.74457 162.24 1.79027C162.035 1.83593 161.724 1.73862 161.439 1.80987C161.372 1.82658 160.986 2.1183 160.933 2.13598C160.52 2.27408 160.462 1.80887 160.44 1.78332C160.193 1.50757 159.721 1.82184 159.597 1.84356C159.028 1.94306 158.546 1.87764 158.07 1.94866C157.759 1.99456 157.729 2.29929 157.485 2.28997C156.674 2.25914 156.39 1.83403 155.626 2.20263C155.462 2.28124 155.625 2.6143 155.037 2.35241C155 2.33589 154.564 2.09631 154.312 2.24785C154.28 2.26696 154.281 2.36403 154.24 2.37218C153.96 2.42493 153.773 2.3476 153.469 2.38463C153.164 2.42167 152.797 2.47688 152.45 2.44396C152.24 2.42427 151.971 2.24342 151.87 2.19915C151.587 2.0716 151.283 2.28072 151.108 2.12627C150.931 1.97104 151.277 1.7353 150.812 1.635C150.795 1.88719 150.756 2.14603 150.728 2.39965C149.711 2.39077 148.709 2.30922 147.689 2.32036C147.562 2.322 147.691 2.45757 147.556 2.46282C146.983 2.48436 146.483 2.38771 145.89 2.4262C145.43 2.45651 144.926 2.60005 144.446 2.63622C144.152 2.34765 143.439 2.44561 142.921 2.41924C142.74 2.41013 142.752 2.33305 142.623 2.30791C142.136 2.21492 142.364 2.46993 142.231 2.51006C141.658 2.68133 141.609 2.10414 140.934 2.1184C140.898 2.11896 140.461 2.42663 140.401 2.44579C140.018 2.57073 140.338 2.3387 140.098 2.31597C139.661 2.27442 139.357 2.20095 138.844 2.29107C138.695 2.31776 138.336 2.50953 138.046 2.36119C138.008 2.34177 138.029 2.24007 137.998 2.23412C137.441 2.13484 137.427 2.45439 137.109 2.56261C136.79 2.67081 136.299 2.45022 136.199 2.38665C135.937 2.22218 136.399 2.31636 136.414 2.30022C136.58 2.10815 136.222 2.14122 135.948 2.12499C135.908 1.81167 135.525 1.83048 135.664 2.10943C135.68 2.13989 135.893 2.11068 135.948 2.12499C135.708 2.4324 135.287 2.47177 134.822 2.1845C134.604 2.04986 134.81 1.89288 134.149 1.95031C133.849 1.97623 133.965 2.19197 133.7 2.25078C133.095 2.38498 132.31 2.18373 131.686 2.21544C131.46 2.22695 131.68 2.34505 131.526 2.35698C131.115 2.38903 130.753 2.30042 130.341 2.34581C130.304 2.35008 130.395 2.47369 130.267 2.47527C129.295 2.48963 128.449 2.41045 127.434 2.40825C126.944 2.40725 126.068 2.47543 125.56 2.46172C124.68 2.43869 123.597 2.25893 122.845 2.3026C122.355 2.33055 122.462 2.4542 122.252 2.53844C121.847 2.70174 121.129 2.40923 121.032 2.36394C121.029 2.36244 121.451 2.33329 121.226 2.26983C121.095 2.13758 121.037 2.36337 121.032 2.36394C120.969 2.33468 120.126 2.30661 119.959 2.33025C119.868 2.34317 119.918 2.46031 119.871 2.46483C118.744 2.56967 117.615 2.59944 116.472 2.54467C116.451 2.5423 116.482 2.41127 116.434 2.40734C115.773 2.34908 115.349 2.50937 114.803 2.60454C114.257 2.69967 113.824 2.66781 113.501 2.44286C113.089 2.47118 112.499 2.37173 112.159 2.31139C111.819 2.25105 111.771 2.50612 111.741 2.51116C110.808 2.67255 110.269 2.52655 109.301 2.50383C108.841 2.49259 107.928 2.52959 107.43 2.55748C107.036 2.57995 106.799 2.52018 106.436 2.5584C106.387 2.5635 106.436 2.67707 106.421 2.68144C106.017 2.81732 106.211 2.53969 106.128 2.4901C105.824 2.30978 105.637 2.21375 105.119 2.29857C104.999 2.318 104.651 2.71776 104.432 2.74114C104.149 2.7708 104.256 2.62751 103.959 2.66222C103.934 2.66506 103.939 2.75346 103.756 2.74956C102.905 2.73263 101.978 2.68119 101.095 2.69005C100.974 2.69092 101.129 2.83114 100.954 2.8347C100.136 2.85132 99.2389 2.84614 98.4416 2.7805C98.2454 2.76391 98.3684 2.66573 98.3258 2.63658C98.0642 2.46021 97.6934 2.71648 97.6322 2.72136C96.1724 2.84451 95.0552 2.61259 93.5673 2.72301C93.4864 2.72949 92.8629 3.00422 92.5848 2.7686C92.5658 2.75293 92.2906 2.51187 92.0473 2.67668C92.0321 2.687 92.2036 2.8111 91.9044 2.79845C91.6051 2.78583 91.1236 2.8687 90.7122 2.73235C90.582 2.68939 90.2742 2.44893 89.8858 2.64061C89.8605 2.65399 89.2608 3.08742 89.0468 2.78838C89.0121 2.73915 89.0484 2.4227 88.5848 2.58495C88.4962 2.6164 88.657 2.68699 88.4237 2.73107C88.0661 2.799 87.5924 2.71424 87.1528 2.85521C87.0762 2.88017 86.7499 3.09496 86.4882 2.93193C86.4472 2.9064 86.5251 2.80075 86.3868 2.78893C85.7295 2.73221 85.0413 2.80288 84.3739 2.72978C84.1375 2.7041 84.2584 2.53331 84.012 2.48754C83.7655 2.44178 83.2691 2.39777 83.0112 2.47582C82.7533 2.5539 83.035 2.82611 82.6487 2.84789C80.9689 2.94249 79.305 2.78281 77.6277 2.75945C77.379 2.75596 77.5852 2.85336 77.2186 2.85521C75.867 2.86246 73.5335 2.95378 72.3607 2.74681C71.421 2.58104 72.6035 2.45484 71.8855 2.38738C71.539 2.3552 71.1641 2.67166 71.0804 2.68163C70.2633 2.78283 69.6954 2.64265 68.9599 2.68566C68.808 2.69458 68.957 2.82285 68.8277 2.82903C68.3862 2.85127 67.9222 2.79402 67.5003 2.80449C67.311 2.80948 67.3459 2.90745 67.1717 2.89989C66.755 2.88293 66.3865 2.84175 65.9802 2.74993C65.9432 2.74156 66.1928 2.61969 65.8845 2.61516C65.3855 2.60817 64.7661 2.51759 64.192 2.61113C64.0217 2.63927 64.015 2.86317 63.6488 2.70854C63.572 2.67625 63.67 2.4074 63.2435 2.6397C63.1717 2.6783 62.4552 2.99163 62.1036 2.78966C62.0108 2.7365 61.774 2.5165 61.5692 2.55107C61.5414 2.55659 61.6527 2.67686 61.4829 2.68859C60.8847 2.72784 60.2577 2.715 59.6431 2.75267C59.479 2.76297 59.7235 2.88742 59.4789 2.89879C58.8062 2.93025 57.9664 2.89856 57.3086 2.85961C57.0661 2.84501 57.2337 2.74192 57.2161 2.7307C56.9323 2.54823 56.7645 2.79452 56.6704 2.80889C56.0846 2.89488 55.6386 2.77918 55.0987 2.8098C54.9497 2.81794 55.0553 2.93538 55.0257 2.94585C54.7181 3.04816 54.9472 2.83726 54.7525 2.81401C54.2071 2.74819 53.599 2.75762 53.0474 2.77263C52.8448 2.77832 53.0725 2.91449 52.8906 2.91802C51.8144 2.94148 50.6956 2.92845 49.6453 2.85338C49.4476 2.839 49.572 2.73414 49.5308 2.71019C49.2467 2.54264 48.8304 2.77118 48.7345 2.79296C48.299 2.89236 48.1298 2.79964 47.7451 2.81694C45.8659 2.90311 43.5457 2.8417 41.7718 2.80376C39.4604 2.75493 37.6667 2.65518 35.4625 2.68108C35.3224 2.68259 35.4636 2.82209 35.3429 2.82518C33.7837 2.85881 32.2487 2.8043 30.6864 2.84459C30.5582 2.84765 30.743 2.97989 30.5372 2.98924C30.1151 3.00936 29.5805 3.00217 29.1537 2.95995C28.9456 2.9396 29.2248 2.82613 29.0153 2.80797C28.5274 2.76543 28.0045 2.75601 27.5034 2.77721C27.2901 2.78652 27.6119 2.92177 27.3347 2.92333C25.4466 2.93674 23.5923 2.96004 21.6843 2.7849C21.5535 2.77287 21.4388 2.498 21.1606 2.55071C21.1397 2.62699 21.1408 2.71673 21.1317 2.79827C18.3831 2.84219 15.6626 2.7469 12.9063 2.73217C12.7901 2.73158 12.991 2.87722 12.766 2.87682C11.4638 2.87466 10.1993 2.91501 8.86731 2.77025C8.73516 2.75609 8.80296 2.49987 8.4135 2.53862C8.34481 2.54569 7.75823 2.57987 7.60657 2.63549C7.58598 2.64388 7.69299 2.76347 7.50398 2.76695C6.40555 2.78512 5.25447 2.75781 4.15795 2.68474C3.98098 2.67272 4.16944 2.54536 4.04339 2.53569C3.14928 2.46809 2.17675 2.5649 1.32238 2.44927C0.7505 2.37141 0.962227 2.15126 0.658336 1.93456C0.615354 1.90399 0.261228 1.89914 0.242915 1.77306C0.1959 1.45602 0.367428 1.10886 0.297046 0.770929C0.282176 0.69814 -0.192091 0.776538 0.0887055 0.600641C0.108322 0.588869 0.452168 0.53049 0.536857 0.47082C0.595821 0.429565 0.489566 0.301341 0.60987 0.24853C0.730165 0.195769 0.862352 0.303253 1.0618 0.241206C1.26116 0.178391 1.1735 0.032522 1.57163 0.0152547ZM110.628 2.04168C110.313 1.91918 110.267 2.36783 110.607 2.26049C110.624 2.25477 110.644 2.04769 110.628 2.04168ZM148.715 1.97081C148.304 1.77293 148.022 2.0639 148.312 2.21672C148.603 2.36939 148.841 2.0308 148.715 1.97081ZM152.983 1.82635C152.502 1.67032 152.426 2.30652 152.941 2.17791C152.971 2.17064 153.011 1.8354 152.983 1.82635ZM2.06762 1.87285C2.06328 1.8669 1.80872 1.86109 1.80263 1.86699C1.66708 2.00948 2.1761 2.02099 2.06762 1.87285ZM157.217 1.66906C157.067 1.583 156.635 1.68234 156.822 1.78936C156.972 1.87545 157.404 1.77611 157.217 1.66906ZM94.2068 1.56286C94.2019 1.55617 94.0194 1.55015 94.023 1.58794C94.0354 1.70966 94.2894 1.67531 94.2068 1.56286ZM164.415 1.66173C163.352 1.63779 162.707 1.11226 163.865 1.17156C164.074 1.18229 163.413 1.33915 163.68 1.38653C164.168 1.47284 164.492 1.14288 164.991 1.31969C165.081 1.35206 164.476 1.66427 164.413 1.66247C164.414 1.66222 164.414 1.66198 164.415 1.66173ZM110.447 1.5028C110.44 1.49687 110.188 1.49124 110.182 1.49712C110.045 1.63955 110.554 1.65097 110.447 1.5028ZM83.5576 1.28545C83.5436 1.27281 82.9573 1.26099 82.9382 1.27264C82.6323 1.50555 83.8177 1.53014 83.5576 1.28545ZM127.461 1.17449C127.737 1.03121 128.067 1.01433 128.286 1.19427C128.013 1.18472 127.737 1.18331 127.461 1.17449Z" fill="#2B2B2B"/>
</svg>
