<svg width="42" height="42" viewBox="0 0 42 42" fill="none" xmlns="http://www.w3.org/2000/svg">
<rect x="1" y="1" width="40" height="40" rx="20" fill="#F5F1E8"/>
<rect x="1" y="1" width="40" height="40" rx="20" stroke="#2B2B2B" stroke-width="2"/>
<path fill-rule="evenodd" clip-rule="evenodd" d="M27.0002 17C27.0002 20.3137 24.314 23 21.0002 23C17.6865 23 15.0002 20.3137 15.0002 17C15.0002 13.6863 17.6865 11 21.0002 11C24.314 11 27.0002 13.6863 27.0002 17ZM25.0002 17C25.0002 19.2091 23.2094 21 21.0002 21C18.7911 21 17.0002 19.2091 17.0002 17C17.0002 14.7909 18.7911 13 21.0002 13C23.2094 13 25.0002 14.7909 25.0002 17Z" fill="#2B2B2B"/>
<path d="M21.0002 26C14.5259 26 9.00952 29.8284 6.9082 35.192C7.4201 35.7004 7.95934 36.1812 8.52353 36.6321C10.0883 31.7077 14.997 28 21.0002 28C27.0035 28 31.9122 31.7077 33.477 36.6321C34.0412 36.1812 34.5804 35.7004 35.0923 35.1921C32.991 29.8284 27.4746 26 21.0002 26Z" fill="#2B2B2B"/>
</svg>
