<svg width="610" height="139" viewBox="0 0 610 139" fill="none" xmlns="http://www.w3.org/2000/svg">
<path d="M597.115 52.6334H435.973C428.917 52.6334 423.194 46.9127 423.194 39.8554C423.194 32.798 428.917 27.0774 435.973 27.0774H566.065C573.547 27.0774 579.61 21.0183 579.61 13.5405C579.61 6.0614 573.547 0 566.065 0H295.095C287.614 0 281.557 6.06021 281.557 13.5405C281.557 21.0183 287.614 27.0774 295.095 27.0774H365.267C372.325 27.0774 378.046 32.7992 378.046 39.8554C378.046 46.9139 372.325 52.6334 365.267 52.6334H12.8352C5.74809 52.6334 0 58.3803 0 65.4698C0 72.5605 5.74809 78.3074 12.8352 78.3074H223.455C232.578 78.3074 239.972 85.7007 239.972 94.8237C239.972 103.948 232.578 111.346 223.455 111.346H165.258C157.62 111.346 151.429 117.535 151.429 125.171C151.429 132.809 157.62 139 165.258 139H491.401C499.036 139 505.227 132.809 505.227 125.171C505.227 117.535 499.036 111.346 491.401 111.346H314.854C305.731 111.346 298.338 103.949 298.338 94.8237C298.338 85.7007 305.731 78.3074 314.854 78.3074H597.115C604.205 78.3074 609.952 72.5605 609.952 65.4698C609.952 58.3803 604.205 52.6334 597.115 52.6334Z" fill="#F5D0E1"/>
</svg>
