<svg width="409" height="94" viewBox="0 0 409 94" fill="none" xmlns="http://www.w3.org/2000/svg">
<path d="M8.60059 35.2612H116.556C121.283 35.2612 125.117 31.4286 125.117 26.7007C125.117 21.9727 121.283 18.1402 116.556 18.1402H29.4016C24.3895 18.1402 20.3279 14.081 20.3279 9.07128C20.3279 4.06076 24.3895 0 29.4016 0H210.935C215.947 0 220.005 4.05997 220.005 9.07128C220.005 14.081 215.947 18.1402 210.935 18.1402H163.924C159.196 18.1402 155.363 21.9735 155.363 26.7007C155.363 31.4294 159.196 35.2612 163.924 35.2612H400.032C404.78 35.2612 408.631 39.1112 408.631 43.8608C408.631 48.6111 404.78 52.4612 400.032 52.4612H258.93C252.818 52.4612 247.864 57.4142 247.864 63.5261C247.864 69.6388 252.818 74.5951 258.93 74.5951H297.918C303.035 74.5951 307.183 78.7412 307.183 83.8571C307.183 88.9737 303.035 93.1215 297.918 93.1215H79.4222C74.3071 93.1215 70.1594 88.9737 70.1594 83.8571C70.1594 78.7412 74.3071 74.5951 79.4222 74.5951H197.698C203.81 74.5951 208.763 69.6396 208.763 63.5261C208.763 57.4142 203.81 52.4612 197.698 52.4612H8.60059C3.85026 52.4612 0.000174761 48.6111 0.000174761 43.8608C0.000174761 39.1112 3.85026 35.2612 8.60059 35.2612Z" fill="#F5D0E1"/>
</svg>
